<svg width="696" height="668" viewBox="0 0 696 668" fill="none" xmlns="http://www.w3.org/2000/svg">
<path fill-rule="evenodd" clip-rule="evenodd" d="M347.008 2.18373C346.71 3.38429 346.593 27.9517 346.746 56.7769C346.989 102.593 347.208 109.186 348.481 109.186C349.755 109.186 349.969 102.362 350.188 54.5932C350.409 6.77538 350.26 0 348.993 0C348.197 0 347.304 0.983163 347.008 2.18373ZM496.25 41.3637C487.742 65.9398 483.614 79.1412 484.243 79.7692C485.631 81.1561 485.253 82.1072 499.028 42.5254C512.118 4.91582 512.426 3.87151 510.426 3.89771C509.704 3.90742 503.958 19.0926 496.25 41.3637ZM264.947 30.249C264.93 33.8818 272.98 80.9561 273.777 81.8782C276.266 84.7558 275.833 78.9558 271.786 55.1862C269.047 39.0936 266.832 28.6078 266.123 28.372C265.442 28.1449 264.954 28.9232 264.947 30.249ZM370.535 39.4653C369.661 40.8794 364.652 97.039 365.339 97.7252C365.699 98.0863 366.385 97.9737 366.862 97.4748C368.228 96.0501 373.138 40.7522 372 39.6148C371.471 39.0858 370.811 39.0179 370.535 39.4653ZM84.7934 47.5732C84.0845 48.7195 84.6128 49.3299 113.374 80.6358C145.761 115.885 144.602 114.705 146.213 114.088C147.332 113.659 146.7 112.463 143.482 108.931C118.833 81.8714 86.1609 46.5862 85.7539 46.5862C85.5617 46.5862 85.1295 47.0307 84.7934 47.5732ZM519.607 60.892C508.557 81.3832 508.586 81.324 509.765 82.0528C510.334 82.4042 511.001 82.4876 511.249 82.2402C512.158 81.3327 529.121 49.3105 529.121 48.504C529.121 44.8586 526.209 48.6515 519.607 60.892ZM152.301 82.9991C152.301 84.9936 161.824 103.848 162.831 103.848C164.987 103.848 164.424 101.843 159.529 92.0883C154.614 82.2945 152.301 79.3868 152.301 82.9991ZM229.511 100.072C180.316 107.156 139.526 147.412 128.325 199.932C125.531 213.032 125.809 244.429 128.843 258.65C135.861 291.532 151.001 321.886 176.28 353.764C187.441 367.838 217.066 397.15 231.209 408.114L242.478 416.849L242.787 452.76C243.173 497.622 243.112 499.089 240.12 516.813C236.769 536.655 233.475 549.219 229.03 559.116C225.085 567.895 222.29 575.808 215 598.827C209.983 614.669 201.051 633.598 192.191 647.167C186.075 656.532 185.434 658.03 187.544 658.03C191.561 658.03 218.342 606.717 218.342 599.021C218.342 596.497 227.629 569.627 231.41 561.205C236.15 550.655 239.403 538.414 243.208 516.816C245.746 502.418 245.771 501.792 245.583 459.809C245.478 436.462 245.689 414.992 246.05 412.097L246.708 406.833L252.531 404.222C259.391 401.145 259.247 398.382 252.368 401.082C247.499 402.993 247.416 402.336 251.477 393.971C260.51 375.365 267.073 358.629 272.193 341.147C277.897 321.669 279.716 317.037 285.319 307.72C287.937 303.368 290.469 298.627 290.947 297.184C291.556 295.346 292.593 294.468 294.412 294.254C297.482 293.89 297.85 292.172 295.016 291.432C291.84 290.602 294.26 282.822 300.127 274.995C301.392 273.31 305.468 264.847 309.186 256.191C315.238 242.101 317.426 238.453 318.926 239.953C320.379 241.404 315.111 265.752 310.764 277.683C308.16 284.831 304.165 296.356 301.885 303.296C298.305 314.198 277.985 356.703 274.536 360.509C273.408 361.752 273.471 364.925 274.623 364.925C275.74 364.925 279.215 358.7 291.964 333.868C301.605 315.088 301.706 314.938 305.203 314.457C309.659 313.843 310.155 312.128 305.992 311.727C301.993 311.341 301.819 312.566 308.722 292.444C316.069 271.03 315.733 271.662 319.365 272.388C322.998 273.113 323.304 271.132 319.766 269.786C318.015 269.122 317.429 268.335 317.799 267.142C318.089 266.208 319.243 259.767 320.365 252.827C321.696 244.593 322.889 239.938 323.8 239.428C326.108 238.133 329.847 229.738 332.833 219.144C335.61 209.291 335.687 209.156 338.423 209.437C344.871 210.098 349.867 217.406 351.588 228.695C352.498 234.666 352.241 237.523 349.113 256.224C347.193 267.701 345.157 283.742 344.589 291.87C344.021 299.999 342.748 309.825 341.761 313.708C340.774 317.59 339.648 324.397 339.26 328.835C338.653 335.784 338.334 336.814 336.963 336.251C327.705 332.454 317.957 334.341 315.681 340.373C312.985 347.516 306.026 372.281 299.993 396.205C290.309 434.608 290.411 434.364 281.02 441.79C273.852 447.461 272.306 449.384 274.365 450.069C274.812 450.219 277.951 448.096 281.343 445.353C288.732 439.379 288.758 439.148 279.811 459.03C269.201 482.611 261.845 507.824 265.979 506.447C266.729 506.197 267.805 503.262 268.475 499.632C270.075 490.966 274.77 477.605 281.163 463.52C289.803 444.489 296.333 424.908 301.423 402.776C302.344 398.773 304.412 390.475 306.02 384.336C307.627 378.197 309.149 372.193 309.401 370.991C309.967 368.3 309.956 368.3 312.947 371.07C317.308 375.108 329.306 377.095 334.04 374.563C336.505 373.245 339.285 366.799 340.786 358.921C342.512 349.867 343.277 349.36 343.988 356.799C344.672 363.955 343.298 398.911 341.799 412.482C338.516 442.213 338.38 453.077 341.143 464.891C347.657 492.736 347.757 493.472 347.158 509.051C346.233 533.103 342.736 543.199 330.458 557.27C327.049 561.176 322.921 567.152 321.285 570.55C318.367 576.606 290.21 663.459 290.21 666.401C290.21 673.802 296.43 656.27 314.528 597.856C321.038 576.846 324.834 568.392 330.723 561.797C341.363 549.88 346.477 539.935 348.615 527.003L349.731 520.248L352.835 527.383C356.127 534.953 358.246 538.347 364.19 545.569C367.307 549.358 373.732 560.659 373.732 562.355C373.732 562.639 381.333 581.989 390.624 605.356C399.915 628.721 407.811 648.822 408.171 650.023C408.707 651.811 411.608 653.285 411.608 651.77C411.608 649.706 378.487 565.488 373.696 555.37C372.11 552.02 368.677 546.561 366.068 543.238C353.212 526.866 350.428 517.303 350.178 488.67C350.008 469.05 350.117 467.742 353.125 453.66C354.844 445.614 356.245 437.316 356.24 435.22C356.225 430.144 351.864 396.248 349.78 385.015C348.003 375.432 347.332 346.623 348.803 343.088C349.421 341.606 350.231 343.596 352.226 351.504C355.49 364.436 356.692 365.91 363.928 365.853C372.002 365.79 378.724 363.199 380.612 359.419L382.153 356.341L383.75 363.301C384.629 367.13 386.909 377.384 388.816 386.087C392.654 403.599 400.309 430.164 404.112 439.172C405.465 442.375 408.637 449.581 411.162 455.186C416.878 467.874 421.884 482.357 423.407 490.617C424.191 494.872 425.017 496.919 425.949 496.919C429.402 496.919 422.651 473.248 413.356 452.76C404.875 434.065 405.358 435.485 407.931 436.833C409.152 437.474 411.819 439.303 413.856 440.9C416.406 442.898 417.873 443.49 418.564 442.799C419.577 441.787 412.981 435.901 406.642 432.159C404.284 430.767 403.333 429.039 401.425 422.682C396.139 405.07 394.003 396.909 391.161 383.45C387.334 365.34 381.151 340.734 378.703 333.876C376.51 327.736 374.68 326.2 369.1 325.828C363.987 325.485 364.211 325.792 362.108 316.255C361.124 311.797 357.814 300.505 354.752 291.164L349.184 274.179L352.265 255.254C355.75 233.839 355.843 231.99 353.825 224.206C352.532 219.217 352.533 218.211 353.835 215.095C355.305 211.58 361.968 206.204 364.011 206.885C364.594 207.08 366.572 211.711 368.408 217.178C372.27 228.682 373.908 232.116 376.839 234.845C378.565 236.451 379.268 239.064 380.647 248.992C381.577 255.689 382.622 262.459 382.968 264.034C383.539 266.63 383.362 266.9 381.092 266.9C379.513 266.9 378.588 267.438 378.588 268.356C378.588 269.365 379.602 269.812 381.895 269.812C384.914 269.812 385.33 270.173 386.645 273.937C392.621 291.037 398.011 307.09 398.011 307.793C398.011 308.255 396.482 308.634 394.612 308.634C392.239 308.634 391.213 309.072 391.213 310.089C391.213 311.135 392.281 311.545 394.999 311.545H398.783L406.009 323.92C426.711 359.372 432.974 368.652 432.974 363.871C432.974 363.291 426.339 351.842 418.23 338.429L403.487 314.042L396.475 293.625C392.618 282.396 388.575 270.973 387.489 268.242C386.404 265.511 384.792 257.868 383.906 251.258C381.115 230.42 373.324 201.43 370.193 200.229C369.428 199.936 368.055 200.352 367.14 201.15C365.898 202.236 356.705 206.782 355.884 206.717C355.818 206.712 355.64 202.235 355.488 196.768C355.284 189.437 354.731 185.854 353.383 183.107L351.556 179.384L355.603 177.548C362.205 174.552 363.838 174.978 366.068 180.279C370.787 191.494 377.828 204.83 379.505 205.728C381.348 206.713 383.949 213.526 386.796 224.821C388.702 232.385 388.691 232.602 386.357 233.212C383.382 233.99 384.05 235.843 387.303 235.843C391.014 235.843 391.768 237.307 398.424 257.446C401.289 266.116 405.428 276.985 407.621 281.601C412.286 291.42 412.193 290.942 409.498 291.338C406.058 291.845 406.153 294.075 409.615 294.075C411.617 294.075 412.846 294.65 413.248 295.774C413.582 296.707 415.518 300.311 417.55 303.781C422.286 311.872 423.698 315.938 427.299 331.872C430.86 347.629 434.107 357.032 442.397 375.587C445.859 383.334 448.903 390.189 449.165 390.817C449.519 391.673 448.268 391.643 444.201 390.698C440.803 389.909 438.548 389.785 438.187 390.367C437.258 391.868 438.918 392.726 445.033 393.905C448.193 394.514 451.034 395.267 451.346 395.58C451.657 395.892 451.956 422.643 452.01 455.026C452.123 522.641 452.092 522.348 461.139 541.565C464.978 549.718 466.227 553.695 467.391 561.461C469.42 575 470.749 578.807 477.789 591.233C481.184 597.225 489.652 613.908 496.607 628.306C507.995 651.881 511.64 658.083 511.64 653.889C511.64 651.892 486.938 601.137 480.354 589.607C473.455 577.521 472.361 574.422 470.375 561.303C469.101 552.894 467.938 549.033 464.57 542.05C454.581 521.332 454.612 521.625 455.068 453.216L455.311 416.792L467.512 406.724C526.15 358.337 561.471 304.27 569.428 250.716C585.075 145.409 490.87 68.8971 396.554 110.31C382.116 116.65 364.799 128.324 353.092 139.608L348.478 144.056L343.38 139.106C312.695 109.308 269.114 94.3681 229.511 100.072ZM268.154 103.354C294.557 107.956 321.676 122.331 343.786 143.447L348.317 147.774L355.926 141.086C385.696 114.921 412.35 103.228 444.628 102.173C478.81 101.057 507.975 112.509 531.549 136.303C576.814 181.991 580.411 252.771 540.852 319.31C522.901 349.503 491.993 383.951 461.434 407.826L455.592 412.391L454.953 403.309C454.364 394.941 453.888 393.326 448.895 382.731C438.257 360.166 433.429 346.679 429.6 328.832C426.904 316.272 424.858 310.452 420.589 303.218C419.016 300.553 416.796 295.879 415.656 292.831C414.515 289.785 412.017 283.997 410.104 279.97C408.192 275.944 404.046 265.029 400.89 255.716C397.734 246.403 394.29 237.094 393.235 235.027C392.18 232.961 390.365 227.386 389.201 222.638C388.037 217.89 386.22 211.822 385.162 209.153C384.106 206.484 381.991 200.151 380.462 195.08C373.519 172.036 370.061 166.366 365.962 171.301C365.297 172.102 363.351 172.757 361.637 172.757C359.924 172.757 356.372 173.851 353.744 175.187C349.314 177.441 348.594 177.536 343.856 176.487C341.045 175.864 338.261 174.77 337.668 174.056C334.189 169.867 330.687 175.971 324.771 196.536C323.389 201.34 321.394 207.541 320.34 210.314C319.284 213.089 317.58 220.077 316.552 225.843C314.614 236.724 302.741 266.312 297.546 273.209C294.117 277.762 292.509 281.361 289.926 290.265C288.607 294.809 285.886 301.094 283.877 304.232C278.318 312.918 275.168 320.567 270.299 337.221C265.026 355.247 259.611 369.531 251.495 386.817C248.223 393.785 245.065 402.083 244.479 405.257C243.892 408.43 243.235 411.602 243.022 412.305C242.109 415.302 206.194 382.859 188.487 363.041C155.496 326.117 135.04 285.475 129.844 246.53C128.281 234.815 129.324 208.514 131.77 197.991C143.453 147.702 182.4 110.177 230.482 102.886C239.044 101.587 259.472 101.841 268.154 103.354ZM599.976 116.795C586.332 124.888 573.484 132.514 571.426 133.744C568.726 135.356 567.978 136.274 568.741 137.036C570.02 138.314 627.211 105.194 627.211 103.176C627.211 100.853 624.942 101.988 599.976 116.795ZM483.476 145.645C483.476 146.213 484.765 147.763 486.342 149.087C491.137 153.12 497.979 162.984 502.397 172.234C523.97 217.399 518.742 277.621 489.757 317.854C483.942 325.926 483.32 327.233 484.915 328.044C488.091 329.66 506.327 297.206 511.637 280.488C523.907 241.863 519.55 195.007 500.674 162.566C494.671 152.25 483.476 141.235 483.476 145.645ZM375.283 188.697C378.856 199.157 379.035 201.903 375.658 194.432C368.385 178.345 367.13 174.89 368.176 173.844C369.462 172.559 370.54 174.814 375.283 188.697ZM336.827 178.076C336.827 180.12 327.787 200.492 327.398 199.326C327.055 198.296 330.802 186.342 333.369 180.279C334.919 176.619 336.827 175.403 336.827 178.076ZM349.693 182.743C350.131 183.389 350.909 184.651 351.424 185.547C352.626 187.639 353.093 206.071 352.067 210.913L351.283 214.616L347.515 211.213C345.442 209.342 341.861 207.264 339.558 206.596C337.254 205.927 334.277 204.724 332.942 203.92C331.607 203.118 330.41 202.406 330.283 202.34C329.713 202.043 339.961 180.015 340.953 179.401C342.241 178.607 348.52 181.007 349.693 182.743ZM66.1079 198.234C66.3594 198.99 73.4296 200.612 84.8838 202.54C106.696 206.213 105.685 206.127 105.685 204.3C105.685 203.499 105.356 202.839 104.956 202.832C104.556 202.827 96.5797 201.521 87.2321 199.932C68.1289 196.685 65.5232 196.475 66.1079 198.234ZM610.215 199.976C602.737 200.931 594.325 202 591.52 202.349C588.046 202.781 586.421 203.425 586.421 204.37C586.421 206.074 584.739 206.127 604.388 203.801C626.55 201.178 627.211 201.05 627.211 199.403C627.211 197.754 627.735 197.736 610.215 199.976ZM371.574 209.881C374.181 217.461 376.89 228.158 376.341 228.706C375.494 229.553 367.905 207.818 367.905 204.545C367.905 201.972 369.803 204.732 371.574 209.881ZM326.129 213.277C324.631 217.949 322.658 225.559 321.743 230.189C320.455 236.708 319.813 238.361 318.9 237.508C317.711 236.398 319.455 223.657 322.106 214.097C322.917 211.169 327.405 204.785 328.65 204.785C328.761 204.785 327.627 208.607 326.129 213.277ZM331.412 213.52C329.074 222.48 324.872 234.453 324.479 233.276C324.083 232.09 327.174 219.032 329.693 211.249C331.741 204.923 333.164 206.804 331.412 213.52ZM0.324645 229.997C-0.815526 231.84 -0.575644 231.885 29.5534 235.384C45.5197 237.237 67.8064 239.846 79.0809 241.181C102.436 243.945 106.016 244.116 105.457 242.44C105.084 241.321 96.4011 240.186 28.961 232.435C16.9426 231.054 5.739 229.688 4.06468 229.399C2.2641 229.089 0.735456 229.333 0.324645 229.997ZM586.421 242.636C586.421 243.17 586.858 243.611 587.392 243.616C631.057 243.995 695.742 243.422 695.998 242.653C696.218 241.992 678.204 241.666 641.374 241.666C605.386 241.666 586.421 242.001 586.421 242.636ZM66.2972 268.929C64.8715 271.235 68.8709 271.739 86.7465 271.507C102.395 271.303 105.199 271.046 105.199 269.812C105.199 267.933 67.4432 267.077 66.2972 268.929ZM174.639 270.285C174.639 272.13 180.656 286.704 185.062 295.531C192.842 311.115 203.492 327.122 214.767 340.176C217.995 343.913 220.993 347.385 221.431 347.892C221.927 348.467 222.645 348.396 223.337 347.705C224.17 346.872 223.297 345.316 219.841 341.473C203.723 323.559 183.569 290.186 178.467 272.966C177.309 269.058 174.639 267.188 174.639 270.285ZM586.421 271.19C586.421 272.975 588.177 273.387 599.047 274.158C603.587 274.48 619.757 275.816 634.98 277.129C667.716 279.951 665.087 279.869 665.087 278.061C665.087 277.261 664.748 276.606 664.334 276.606C662.168 276.606 594.059 270.754 590.549 270.266C587.229 269.805 586.421 269.985 586.421 271.19ZM349.87 301.509L346.349 306.119L346.901 300.825C347.204 297.913 347.729 292.482 348.067 288.756L348.684 281.979L351.037 289.44L353.39 296.9L349.87 301.509ZM356.954 307.921C358.688 313.555 361.106 323.835 361.106 325.573C361.106 325.764 359.194 327.039 356.856 328.408C352.841 330.759 347.739 337.234 345.832 342.395L345.013 344.614L342.957 341.834C340.967 339.144 340.941 338.729 342.148 328.87C342.834 323.268 344.155 317.188 345.083 315.358C348.037 309.528 353.454 300.868 354.135 300.885C354.497 300.893 355.766 304.059 356.954 307.921ZM373.489 329.816C374.749 330.615 378.588 349.402 378.588 354.771C378.588 359.829 372.917 362.984 363.826 362.984C358.099 362.984 357.247 361.529 354.026 346.259C351.789 335.649 352.001 334.942 358.678 330.821C361.706 328.952 371.121 328.312 373.489 329.816ZM333.26 338.103C339.943 340.894 340.91 345.275 337.793 358.636C334.563 372.482 334.092 373.032 325.966 372.452C317.68 371.859 314.156 369.688 313.685 364.881C313.301 360.955 317.045 343.945 318.958 340.93C321.26 337.302 328.102 335.95 333.26 338.103ZM102.529 353.147C79.3626 359.67 65.867 363.916 65.867 364.683C65.866 366.509 65.3717 366.624 104.98 355.656C143.674 344.943 143.561 344.979 143.561 343.516C143.561 341.8 139.158 342.833 102.529 353.147ZM553.628 346.727C554.063 348.08 586.07 365.896 588.066 365.896C589.675 365.896 589.704 364.479 588.121 363.25C587.453 362.731 583.629 360.554 579.623 358.411C575.617 356.268 568.588 352.49 564.004 350.015C555.452 345.397 552.946 344.603 553.628 346.727ZM541.775 361.286C541.79 361.953 546.27 365.582 551.729 369.35C562.912 377.069 615.964 414.278 621.748 418.46C625.266 421.003 627.211 421.292 627.211 419.269C627.211 418.795 622.295 414.974 616.285 410.78C610.276 406.585 591.527 393.46 574.619 381.613C544.591 360.571 541.716 358.792 541.775 361.286ZM350.998 414.143C353.921 437.306 353.952 436.158 349.916 454.976C348.019 463.823 347.088 464.393 344.144 458.513C341.902 454.037 341.744 447.072 343.429 427.04C344.035 419.834 345.079 407.387 345.749 399.38C347.145 382.683 346.962 382.168 350.998 414.143ZM380.635 399.946C379.357 400.457 375.315 401.557 371.651 402.389C367.257 403.388 364.991 404.371 364.991 405.28C364.991 406.923 366.137 406.985 371.304 405.625C383.195 402.495 385.386 401.671 385.386 400.323C385.386 398.705 384.012 398.596 380.635 399.946ZM370.051 407.384C365.735 408.279 363.122 409.275 363.358 409.939C364.052 411.882 379.96 409.318 379.309 407.367C378.778 405.774 377.806 405.776 370.051 407.384ZM306.72 409.873C306.72 411.35 311.122 412.996 321.288 415.318C326.955 416.613 327.115 416.605 327.115 415.028C327.115 414.166 324.267 412.963 319.102 411.643C314.695 410.517 310.107 409.32 308.905 408.984C307.318 408.541 306.72 408.784 306.72 409.873ZM188.823 428.945C166.085 447.136 167.161 446.16 168.446 447.445C169.481 448.478 210.573 416.225 210.573 414.378C210.573 412.031 206.839 414.531 188.823 428.945ZM312.547 416.78C312.547 417.692 314.461 418.552 318.131 419.288C321.203 419.905 324.698 420.637 325.901 420.918C327.464 421.282 328.086 420.989 328.086 419.884C328.086 419.036 327.103 418.119 325.901 417.846C313.229 414.97 312.547 414.916 312.547 416.78ZM500.009 425.342C500.023 426.009 504.283 429.892 509.478 433.97C514.673 438.048 526.759 447.548 536.335 455.079C552.439 467.745 556.314 470.227 556.314 467.88C556.314 466.799 502.311 424.128 500.944 424.128C500.417 424.128 499.996 424.675 500.009 425.342ZM175.722 463.324C152.444 486.592 140.646 499.045 141.133 499.831C141.625 500.628 153.613 489.295 177.193 465.736C208.691 434.267 214.427 428.011 211.782 428.011C211.379 428.011 195.151 443.901 175.722 463.324ZM346.158 466.59C347.548 468.419 347.993 473.626 346.759 473.626C346.346 473.626 345.553 471.661 344.995 469.259C343.898 464.534 344.152 463.95 346.158 466.59ZM405.781 541.663C400.992 545.794 389.881 550.909 382.678 552.299C375.663 553.654 374.862 555.831 381.573 555.306C389.633 554.675 402.216 548.99 408.452 543.163C413.936 538.038 411.542 536.694 405.781 541.663ZM289.239 562.361C289.239 565.072 305.86 569.683 315.703 569.703C318.296 569.708 319.345 569.291 319.345 568.255C319.345 567.207 318.273 566.799 315.524 566.799C310.756 566.799 299.138 564.397 294.463 562.445C290.095 560.621 289.239 560.608 289.239 562.361Z" fill="#FF1940"/>
</svg>
