<svg width="268" height="215" viewBox="0 0 268 215" fill="none" xmlns="http://www.w3.org/2000/svg">
<path d="M46.904 4.56403C46.904 9.65569 40.7412 8.77059 38.9723 3.42521C38.3483 1.53963 39.8796 0 42.3728 0C44.8659 0 46.904 2.05569 46.904 4.56403Z" fill="#FF1940"/>
<path d="M166.5 53C162.029 53 158.354 44.3156 161.649 41C164.941 37.6815 174.117 41.084 175 45.5C176.5 53 168.861 53 166.5 53Z" fill="#FF1940"/>
<path d="M28.2985 108.118L29.1658 92.9069C30.2535 73.8493 35.4544 75.8415 35.4544 95.3144V109.56H51.3664C61.2445 109.56 66.6086 110.653 65.5095 112.443C64.5362 114.029 57.3775 115.326 49.5975 115.326H35.4544V129.572C35.4544 137.408 34.1664 144.619 32.5921 145.6C30.8145 146.707 29.7297 141.304 29.7297 131.354V115.326H15.5866C-3.746 115.326 -5.72388 110.088 13.1965 108.992L28.2985 108.118Z" fill="#FF1940"/>
<path d="M262.389 127.397C260.814 125.811 260.462 122.991 261.604 121.129C262.99 118.871 264.636 118.704 266.545 120.627C268.119 122.213 268.471 125.033 267.329 126.895C265.944 129.153 264.298 129.32 262.389 127.397Z" fill="#FF1940"/>
<path d="M154.148 175.277C161.293 173.657 163.709 171.298 165.191 164.5C168.34 155 167 141.5 172.15 168.456C172.175 171.371 175.705 173.937 181.495 175.246L190.798 177.347L181.719 179.954C174.694 181.969 172.15 184.679 170.49 191.904L168.34 201.252L165.552 191.852C163.485 184.893 160.46 181.793 153.882 179.902L145 177.347L154.148 175.277Z" fill="#FF1940"/>
<path d="M92.4352 211.844C91.3267 213.785 88.703 214.876 86.6034 214.272C84.0582 213.539 82.2412 210.885 83.5854 208.532C84.6939 206.592 86.9857 204.428 89.0853 205.033C91.6306 205.766 93.7795 209.492 92.4352 211.844Z" fill="#FF1940"/>
</svg>
