<?xml version="1.0" standalone="no"?>
<!DOCTYPE svg PUBLIC "-//W3C//DTD SVG 20010904//EN"
 "http://www.w3.org/TR/2001/REC-SVG-20010904/DTD/svg10.dtd">
<svg version="1.0" xmlns="http://www.w3.org/2000/svg"
 width="2048.000000pt" height="2048.000000pt" viewBox="0 0 2048.000000 2048.000000"
 preserveAspectRatio="xMidYMid meet">

<g transform="translate(0.000000,2048.000000) scale(0.100000,-0.100000)"
fill="#F3F3F3" stroke="none">
<path d="M9880 18569 c-1772 -99 -3459 -754 -4810 -1869 -310 -256 -683 -615
-935 -900 -1124 -1272 -1819 -2830 -2004 -4495 -38 -341 -45 -484 -45 -905 0
-445 11 -636 60 -1025 142 -1121 525 -2216 1117 -3191 l55 -91 -708 -2089
c-390 -1149 -708 -2090 -707 -2091 1 -1 980 309 2175 688 l2173 691 77 -41
c293 -157 663 -332 907 -429 713 -284 1489 -474 2255 -551 594 -61 1269 -53
1860 20 2136 264 4085 1354 5435 3039 691 862 1197 1848 1490 2904 184 664
278 1314 292 2021 39 2045 -682 3992 -2055 5548 -152 173 -523 544 -687 688
-279 245 -569 471 -850 661 -1384 940 -3012 1436 -4685 1427 -146 -1 -330 -6
-410 -10z m791 -879 c1352 -67 2604 -476 3724 -1215 1695 -1119 2858 -2901
3184 -4880 70 -423 95 -740 95 -1190 0 -529 -37 -915 -134 -1405 -351 -1777
-1350 -3346 -2830 -4447 -837 -622 -1837 -1072 -2865 -1287 -821 -172 -1713
-201 -2545 -85 -992 139 -1976 490 -2806 1001 -61 37 -118 68 -125 68 -8 0
-697 -216 -1532 -481 -834 -265 -1519 -480 -1521 -478 -3 2 208 632 468 1399
260 767 483 1427 496 1465 l22 70 -114 170 c-903 1350 -1318 2943 -1192 4575
161 2089 1223 4000 2929 5273 1358 1013 3056 1531 4746 1447z"/>
<path d="M7352 13995 c-117 -33 -206 -98 -352 -259 -190 -210 -283 -345 -384
-558 -119 -250 -179 -506 -193 -818 -25 -608 229 -1287 768 -2048 378 -534
468 -653 705 -937 770 -926 1673 -1651 2534 -2035 316 -141 999 -393 1389
-511 508 -154 789 -189 1036 -130 50 12 137 29 195 37 312 44 752 282 1020
553 147 148 187 218 250 442 60 210 100 501 83 598 -8 41 -11 45 -58 63 -28
11 -216 101 -420 200 -708 346 -1158 555 -1272 592 -91 30 -94 28 -218 -136
-189 -252 -582 -719 -671 -797 -67 -60 -177 -111 -268 -124 -123 -18 -203 4
-505 137 -424 188 -647 306 -945 503 -475 313 -876 671 -1237 1105 -285 342
-618 835 -677 1001 -19 53 -25 93 -26 152 0 150 49 251 203 416 51 55 156 175
233 267 122 146 148 184 204 296 76 151 76 136 -3 315 -30 68 -183 433 -340
810 -157 377 -300 716 -319 752 -18 37 -47 78 -64 93 -30 25 -38 26 -138 26
-59 0 -190 2 -292 5 -146 4 -196 2 -238 -10z"/>
</g>
</svg>
