<svg width="460" height="651" viewBox="0 0 460 651" fill="none" xmlns="http://www.w3.org/2000/svg">
<path fill-rule="evenodd" clip-rule="evenodd" d="M320.989 0.396608C314.505 3.04892 313.833 5.27025 316.616 14.8436C318.284 20.5783 318.375 21.846 317.391 25.5192C314.676 35.6508 305.915 38.1993 296.245 31.67C289.393 27.0441 288.805 26.858 285.877 28.4025C279.818 31.598 279.288 37.9581 284.8 41.3321C292.554 46.0796 294.36 53.6766 290.198 64.0371C275.447 100.75 272.196 107.117 266.84 109.786C263.831 111.284 263.593 111.27 261.244 109.453C256.086 105.462 252.996 91.296 252.98 71.5659C252.972 62.9087 252.87 62.4347 250.614 60.5808C245.63 56.485 234.477 60.061 229.952 67.2046C227.652 70.8357 227.642 70.9255 228.669 79.6565C233.076 117.112 224.698 135.802 193.917 157.189C189.234 160.442 183.39 164.854 180.929 166.993L176.454 170.882L174.789 165.481C172.756 158.888 172.398 142.246 174.108 133.902C174.74 130.817 179.097 116.312 183.789 101.67C194.27 68.9669 194.38 66.3361 185.622 58.0706C174.246 47.3333 146.164 41.3948 134.625 47.2856C123.346 53.0436 115.123 70.8834 110.038 100.623L109.333 104.74L103.881 95.8761C85.1383 65.404 60.0341 37.9319 46.8184 33.4313C29.3096 27.4685 9.27438 57.8415 16.3695 79.5929C17.5714 83.2792 20.3959 86.7365 32.7301 99.626C49.7082 117.367 62.821 134.937 73.4914 154.242C75.8433 158.497 75.8693 158.677 74.0919 158.449C72.5276 158.247 71.4554 159.974 67.2751 169.428C54.2402 198.911 45.586 212.049 29.3597 226.991C5.87717 248.615 -2.39843 270.855 0.583541 304.327C2.31795 323.798 7.60978 334.643 16.9217 337.81L19.3748 338.645L16.6488 342.852C4.71284 361.275 2.65803 376.958 8.86181 402.293C23.837 463.454 48.7801 515.559 78.8674 548.53C120.465 594.115 143.916 615.84 167.171 630.328C208.85 656.295 237.317 657.688 265.344 635.13C282.728 621.139 292.521 604.651 310.673 558.814C320.459 534.102 328.632 516.168 337.931 499.002C348.078 480.273 360.111 450.505 365.719 430.266C371.327 410.022 372.527 397.308 370.88 375.574L370.207 366.692L372.646 366.545C382.865 365.925 390.788 329.81 385.946 305.924C383.469 293.709 376.762 274.118 370.124 259.713C366.337 251.492 364.231 245.886 364.733 245.362C365.919 244.123 379.823 244.301 384.55 245.616C393.833 248.198 400.636 253.004 411.826 264.881C420.83 274.438 423.214 276.463 426.583 277.408C442.434 281.86 460.012 268.626 460 252.251C459.994 243.792 457.531 239.466 445.141 226.151C433.52 213.662 428.382 206.775 428.382 203.69C428.382 201.054 432.069 196.802 437.794 192.832C444.014 188.518 444.267 183.553 438.541 178.139C434.397 174.222 432.816 174.414 424.752 179.814C410.774 189.174 404.835 190.317 393.479 185.836L386.767 183.187L387.064 177.096C387.652 165.027 383.641 154.767 371.965 138.477C363.52 126.696 362.41 124.672 361.644 119.666C360.963 115.219 362.981 106.38 366.184 99.7765C368.985 94.0035 368.372 92.3066 362.348 89.1532C352.651 84.0767 349.304 84.7227 344.419 92.6124C335.441 107.116 322.291 114.473 316.947 107.984C311.654 101.556 314.686 75.212 322.58 59.0504C328.28 47.3781 343.452 39.8587 364.394 38.3274L374.238 37.6075L376.252 33.436C378.234 29.3299 378.843 23.1287 377.703 18.6833C376.61 14.4201 364.814 13.0178 348.287 15.1867C333.693 17.1014 333.61 17.0612 330.368 6.58098C328.471 0.448968 328.285 0.204956 325.364 0.0291947C323.696 -0.0708396 321.727 0.0946356 320.989 0.396608ZM327.544 8.42273C327.276 8.87522 325.793 10.0504 324.247 11.0348C320.951 13.1346 322.59 13.4665 326.315 11.4537C329.816 9.56237 331.11 12.3072 327.968 14.9605L325.911 16.6975L328.029 15.6084C331.01 14.0761 333.602 16.5321 331.651 19.0423C330.682 20.2894 330.666 20.4942 331.582 19.9183C332.241 19.5041 335.664 19.0469 339.189 18.9011C342.715 18.7552 346.707 18.3364 348.061 17.9709C350.169 17.3996 350.522 17.5866 350.522 19.276C350.522 20.3595 350.925 21.2468 351.417 21.2468C351.909 21.2468 352.312 20.4605 352.312 19.4994C352.312 17.7558 355.781 16.6087 361.134 16.5825C362.959 16.5732 363.167 16.9004 362.665 18.988C362.289 20.554 362.411 21.1925 363.015 20.8027C363.527 20.4717 363.946 19.5368 363.946 18.7235C363.946 17.4875 364.768 17.3342 368.962 17.7867C375.168 18.4551 375.027 18.2803 372.882 22.6771C371.842 24.8069 371.106 28.1734 371.106 30.793C371.106 34.3101 370.792 35.2703 369.645 35.2703C368.384 35.2703 368.244 34.2839 368.613 28.0248C369 21.4758 368.929 21.0486 367.877 23.584C367.236 25.1266 366.694 28.3875 366.671 30.8295C366.636 34.6327 366.374 35.2703 364.841 35.2703C363.341 35.2703 363.042 34.627 362.995 31.2969C362.943 27.7069 362.852 27.548 362.051 29.6478C361.562 30.9258 361.345 32.6993 361.567 33.5884C361.997 35.3039 359.316 36.7932 357.689 35.7433C357.193 35.4226 356.746 32.5553 356.697 29.372C356.608 23.6373 356.599 23.6186 355.751 27.3236C355.28 29.3804 355.046 32.1916 355.229 33.5697C355.468 35.3647 355.117 36.1986 353.99 36.5071C351.978 37.0559 351.417 36.4342 351.417 33.6566C351.417 32.2926 351.04 31.6634 350.449 32.0449C349.917 32.3889 349.713 33.6314 349.996 34.8075C350.343 36.2528 350.053 37.1279 349.1 37.5103C345.706 38.8706 345.154 38.2086 345.09 32.6993C345.016 26.4504 343.531 28.4474 343.425 34.9365C343.382 37.6243 342.912 38.9902 341.892 39.3997C341.083 39.7232 340.357 39.8737 340.277 39.7335C340.199 39.5923 339.68 38.4255 339.124 37.1401C338.116 34.8075 338.113 34.8093 338.053 37.8085C337.933 43.7853 333.4 43.9882 332.089 38.075C331.804 36.7895 331.236 34.6859 330.825 33.4005C330.118 31.1847 330.076 31.2221 330.009 34.1315C329.97 35.819 330.551 38.7331 331.301 40.6076C332.737 44.1995 332.73 44.2182 328.762 46.5853C325.655 48.4393 323.134 44.2219 325.911 41.8146C328.053 39.9569 327.462 38.8238 325.168 40.3935C324.022 41.1788 322.813 41.5388 322.483 41.1947C322.154 40.8497 321.884 41.2115 321.884 41.9978C321.884 42.784 320.719 44.9577 319.296 46.8284C317.873 48.6992 315.356 52.9586 313.703 56.2934C311.228 61.2857 310.381 62.2683 308.907 61.8541C307.265 61.3923 307.242 61.4559 308.629 62.6301C309.917 63.7183 310 64.4943 309.188 67.8366L308.234 71.7641L303.648 71.2957L299.062 70.8273L303.09 72.038C306.766 73.144 307.1 73.488 306.922 75.9964C306.815 77.5072 306.713 80.9822 306.695 83.7187L306.664 88.6933L301.521 88.0949C294.498 87.2769 297.069 89.0364 305.084 90.5322L311.144 91.6634L311.157 95.9546C311.163 98.3153 311.412 101.192 311.708 102.349C312.225 104.365 312.01 104.456 306.55 104.518C299.989 104.594 301.685 106.142 308.459 106.263C311.966 106.325 312.684 106.698 314.016 109.141C315.92 112.638 319.452 114.109 324.176 113.372C327.138 112.91 328.423 113.238 331.112 115.145C334.943 117.861 335.584 116.79 331.952 113.743C330.292 112.351 329.871 111.537 330.659 111.242C334.516 109.804 344.034 99.8625 347.406 93.7529C348.264 92.1973 348.533 92.2206 352.113 94.1699C354.201 95.3067 357.704 96.7184 359.897 97.3065C363.011 98.1414 363.711 98.6705 363.089 99.7185C362.401 100.879 361.585 100.856 357.078 99.5512C352.897 98.3405 352.205 98.3031 353.586 99.3651C354.533 100.093 356.647 100.952 358.285 101.273C361.222 101.848 361.781 102.884 360.718 105.779C359.913 107.971 356.762 107.584 351.096 104.598C348.318 103.135 346.047 102.255 346.047 102.644C346.047 103.623 354.994 108.192 356.909 108.192C358.962 108.192 359.728 109.614 358.988 112.051C358.463 113.779 357.875 113.966 354.231 113.569C350.157 113.124 350.127 113.139 352.759 114.351C354.236 115.031 356.096 115.606 356.894 115.63C357.937 115.66 358.47 116.838 358.793 119.834C359.04 122.123 360.049 125.699 361.034 127.78C362.02 129.862 362.623 131.565 362.376 131.565C362.128 131.565 359.234 130.551 355.945 129.312C352.655 128.072 347.976 126.801 345.545 126.487C341.805 126.003 342.158 126.208 347.837 127.814C358.388 130.799 365.391 134.948 369.942 140.914C379.507 153.447 383.843 163.719 383.877 173.919C383.912 184.241 381.095 184.647 379.353 174.57C377.02 161.075 368.566 149.282 353.277 138.193C345.617 132.638 346.681 134.65 355.157 141.748C367.868 152.393 374.323 161.926 376.575 173.376C377.956 180.402 378.047 180.284 372.299 178.931C366.491 177.563 366.834 178.001 364.76 169.285C362.796 161.026 359.62 153.882 355.714 148.932C351.831 144.01 350.895 144.858 354.605 149.937C359.192 156.214 361.046 160.439 362.938 168.925L364.613 176.44H362.602C357.662 176.44 355.144 175.313 354.549 172.832C353.762 169.554 350.362 161.337 349.963 161.753C349.791 161.933 350.45 164.46 351.428 167.368C354.058 175.183 353.951 175.505 348.749 175.505C344.606 175.505 344.255 175.324 343.782 172.934C341.345 160.636 336.308 149.559 330.698 144.164L327.805 141.381L329.502 144.186C337.391 157.213 340.53 164.459 341.346 171.532L341.805 175.505H338.556C336.77 175.505 335.017 175.611 334.662 175.739C334.305 175.867 333.722 174.179 333.363 171.986C332.642 167.571 328.29 156.807 327.226 156.807C326.854 156.807 327.663 159.858 329.023 163.585C333.51 175.878 333.494 175.985 326.804 177.74C323.649 178.568 320.909 179.245 320.714 179.245C320.519 179.245 320.135 174.481 319.861 168.658C319.424 159.401 318.988 157.165 316.387 150.846C312.778 142.08 311.967 142.714 315.255 151.73C317.117 156.84 317.716 160.443 318.087 168.777L318.558 179.345L313.732 178.711C307.66 177.915 307.239 177.479 307.997 172.79C308.536 169.456 308.925 168.952 310.999 168.887L313.381 168.813L310.98 167.895C308.986 167.132 308.434 166.154 307.73 162.126L306.882 157.275L306.776 161.764L306.669 166.254L302.089 165.971L297.508 165.689L295.861 158.897C294.276 152.362 292.434 147.648 292.377 149.983C292.363 150.601 292.954 153.53 293.693 156.49C295.948 165.535 295.889 165.668 289.11 166.973C285.852 167.601 283.112 167.989 283.019 167.836C282.928 167.684 282.375 165.022 281.791 161.922C280.571 155.456 278.095 148.393 277.046 148.393C276.654 148.393 276.921 149.867 277.642 151.667C278.914 154.848 281.884 168.125 281.403 168.482C276.883 171.841 270.378 174.403 269.15 173.308C265.965 170.468 264.984 170.325 266.62 172.937C268.637 176.158 268.811 175.68 264.167 179.655L260.148 183.096L254.105 177.97C246.302 171.351 245.569 172.098 252.983 179.112L258.714 184.535L255.172 189.332C253.224 191.971 251.153 193.96 250.57 193.753C249.988 193.544 249.547 194.087 249.592 194.958C249.743 197.916 243.09 208.224 241.01 208.257C239.286 208.284 239.245 208.401 240.583 209.465C241.696 210.349 241.849 211.098 241.196 212.473C240.389 214.174 240.418 214.187 241.602 212.668C243.331 210.449 244.638 210.616 249.639 213.692L253.911 216.32L248.386 221.341L242.86 226.361L237.849 224.411C235.091 223.338 232.131 222.158 231.27 221.788C230.37 221.401 229.704 221.529 229.704 222.088C229.704 222.621 230.545 223.339 231.573 223.679C232.602 224.02 235.268 225.142 237.496 226.172L241.549 228.045L236.803 233.065C233.872 236.165 231.693 237.786 231.104 237.303C230.144 236.516 212.877 230.658 211.528 230.663C209.116 230.67 212.858 232.741 219.197 234.905C231.511 239.109 231.396 238.917 225.919 246.096C223.371 249.435 220.956 252.167 220.55 252.167C220.146 252.167 217.107 250.743 213.796 249.002C206.143 244.979 194.807 240.805 184.509 238.219C172.886 235.301 172.427 235.221 172.427 236.107C172.427 236.55 174.72 237.447 177.522 238.102C186.089 240.105 201.031 245.617 210.599 250.305L219.687 254.757L217.088 260.138C215.057 264.344 214.492 266.766 214.503 271.231C214.517 277.108 216.195 277.204 216.306 271.333C216.386 267.048 218.27 262.389 222.779 255.325C227.145 248.485 238.439 234.404 239.561 234.404C239.929 234.404 240.705 236.402 241.286 238.845C242.599 244.372 246.784 253.927 247.287 252.547C247.491 251.984 246.866 249.591 245.897 247.231C244.929 244.869 243.64 240.305 243.034 237.088L241.932 231.239L246.781 226.683C251.79 221.975 266.696 209.92 271.179 206.95C273.724 205.264 273.725 205.264 273.076 207.401C270.927 214.475 273.043 229.137 277.412 237.442C280.533 243.377 280.789 241.318 277.76 234.638C275.055 228.673 274.899 227.735 274.899 217.535C274.899 204.036 275.141 203.62 286.749 197.242C296.37 191.955 296.979 191.728 296.758 193.502C296.371 196.615 297.121 198.05 297.614 195.138C298.246 191.401 301.198 189.518 312.937 185.362C321.509 182.327 321.213 182.226 318.985 187.425C317.589 190.683 317.021 194.107 316.855 200.28L316.627 208.694L317.469 201.215C319.532 182.861 322.971 179.852 343.279 178.625L353.488 178.008L352.956 181.432C352.321 185.52 353.643 186.08 354.415 182.05C355.04 178.789 356.314 178.59 365.409 180.342C371.545 181.522 371.846 181.871 369.689 185.309C368.91 186.551 368.425 188.324 368.611 189.249C368.862 190.493 369.386 189.994 370.617 187.339C372.744 182.752 373.695 182.429 379.766 184.234C386.075 186.109 385.929 185.866 383.245 189.997C380.584 194.093 379.141 198.976 379.242 203.552C379.308 206.611 379.384 206.52 380.412 202.15C381.646 196.906 382.885 194.166 385.981 189.831L388.102 186.86L393.7 189.246C403.498 193.425 411.344 192.057 423.985 183.964C429.004 180.75 429.837 180.476 430.62 181.781C431.112 182.602 432.675 184.694 434.095 186.432C435.514 188.17 436.521 189.696 436.332 189.825C436.143 189.953 435.299 190.609 434.456 191.282C433.137 192.334 432.607 192.148 430.653 189.946C429.404 188.538 428.382 187.94 428.382 188.617C428.382 189.295 429.032 190.599 429.827 191.516C431.164 193.06 431.115 193.39 429.156 195.979C426.691 199.236 421.595 199.846 416.272 197.523C414.565 196.778 413.168 196.557 413.168 197.031C413.168 198.236 417.532 200.465 421.359 201.216C424.129 201.758 424.71 202.345 425.62 205.518C426.746 209.448 432.049 216.859 439.432 224.821L443.983 229.729H441.158C439.604 229.729 438.084 230.15 437.779 230.664C437.439 231.238 438.902 231.599 441.568 231.599C446.471 231.599 451.4 235.837 455.144 243.272C465.096 263.03 436.16 285.755 421.093 270.015C415.168 263.825 415.781 254.157 422.627 245.8C426.401 241.195 425.512 240.503 421.498 244.922C417.817 248.973 416.072 252.793 415.368 258.341L414.785 262.937L410.397 258.353C402.655 250.266 405.285 243.824 422.188 229.465C426.451 225.843 422.36 227.908 415.748 232.717C410.149 236.787 405.382 243.051 404.541 247.445C403.769 251.474 403.006 251.658 398.88 248.805C393.873 245.344 394.159 243.336 400.778 235.441C402.671 233.183 404.219 230.887 404.219 230.338C404.219 228.531 396.14 237.582 394.569 241.148C392.808 245.149 392.579 245.21 386.927 243.198C384.188 242.223 382.744 241.172 382.753 240.159C382.777 237.098 383.867 234.404 385.082 234.404C385.762 234.404 386.32 233.983 386.32 233.469C386.32 232.955 385.917 232.534 385.425 232.534C383.08 232.534 387.515 221.743 391.158 218.584C391.942 217.904 392.584 216.895 392.584 216.343C392.584 214.105 386.45 221.75 384.068 226.956L381.516 232.534H375.031C369.02 232.534 368.517 232.381 368.15 230.431L367.753 228.327L367.095 230.4C366.383 232.645 366.238 232.708 357.821 234.454C350.539 235.964 350.319 235.633 350.786 223.84C351.019 217.943 350.84 214.999 350.284 215.581C349.808 216.078 349.207 221.042 348.949 226.613L348.48 236.741L341.422 239.651C335.117 242.251 334.274 242.4 333.521 241.053C332.814 239.79 332.673 239.886 332.65 241.649C332.635 242.807 332.302 243.753 331.91 243.753C331.518 243.753 328.425 245.655 325.037 247.979C320.442 251.132 318.693 251.903 318.148 251.017C315.83 247.251 311.731 232.766 309.479 220.38C308.554 215.295 308.548 215.32 308.918 222.718C309.323 230.78 311.654 241.233 314.826 249.199L316.808 254.176L311.694 259.483C306.813 264.546 306.521 264.706 305.291 262.987C303.559 260.564 302.766 261.622 304.071 264.614C305.001 266.746 304.765 267.585 301.995 271.98C298.379 277.72 296.581 281.149 297.186 281.149C297.419 281.149 299.331 278.414 301.435 275.072C303.538 271.73 305.497 268.995 305.789 268.995C306.08 268.995 307.659 270.441 309.298 272.207L312.277 275.418L309.862 279.724L307.446 284.029L304.491 282.122C300.026 279.239 299.522 279.895 303.482 283.435L307.006 286.585L304.826 290.879C303.627 293.24 302.307 295.173 301.895 295.173C301.482 295.173 298.128 292.994 294.441 290.331C286.855 284.853 279.781 277.111 273.83 267.776C268.866 259.989 267.85 260.229 271.904 268.229C276.818 277.925 287.585 288.736 301.072 297.515C301.513 297.801 295.779 308.26 295.192 308.241C294.86 308.231 291.064 305.752 286.757 302.731C282.45 299.711 278.926 297.584 278.926 298.003C278.926 299.218 287.07 306.172 291.138 308.431L294.848 310.492L292.052 316.415C288.975 322.932 288.429 323.103 280.94 319.888C279.339 319.202 278.031 319.031 278.031 319.509C278.031 320.563 284.575 324.154 286.497 324.154C288.312 324.154 288.255 324.498 285.745 328.653C281.619 335.481 276.217 339.116 268.634 340.169C264.163 340.791 257.782 336.604 254.909 331.166C253.935 329.323 253.921 329.323 253.894 331.269C253.88 332.354 254.863 334.775 256.079 336.647L258.291 340.052L254.065 337.81C246.251 333.663 236.717 323.258 226.84 308.092C218.558 295.377 218.235 295.153 208.549 295.394C201.393 295.572 197.486 294.811 197.486 293.24C197.486 292.76 198.311 292.368 199.32 292.368C201.643 292.368 206.435 289.816 206.435 288.581C206.435 288.066 205.127 288.357 203.527 289.227C201.926 290.095 198.64 290.805 196.224 290.801C191.392 290.795 189.496 289.195 183.49 280.053C178.268 272.108 165.269 268.06 144.969 268.06C133.521 268.06 131.714 267.449 125.023 261.315C122.823 259.298 119.983 257.431 118.712 257.165L116.401 256.682L116.773 245.77C117.066 237.171 116.839 234.091 115.701 231.244C113.861 226.644 113.883 225.753 115.822 226.327C116.683 226.582 120.36 227.079 123.992 227.432C133.463 228.352 131.411 226.532 121.36 225.098C112.352 223.812 111.801 223.293 110.331 214.705L109.759 211.365L117.153 211.73C124.179 212.076 143.257 210.028 144.43 208.803C145.537 207.648 144.149 207.472 140.209 208.267C135.637 209.191 113.049 209.424 110.034 208.58C108.943 208.275 107.815 207.253 107.529 206.309C107.242 205.365 104.617 202.15 101.695 199.165C96.7395 194.101 94.0162 189.48 95.236 188.206C95.5241 187.905 97.0366 187.659 98.5974 187.659C100.158 187.659 105.427 187.019 110.306 186.239C115.185 185.458 123.608 184.851 129.022 184.89C140.654 184.973 141.354 184.901 138.419 183.919C134.336 182.553 121.08 182.96 108.412 184.839C101.536 185.86 95.4534 186.702 94.8968 186.709C94.0045 186.722 91.8817 180.157 91.8817 177.385C91.8817 176.818 93.9965 175.326 96.5802 174.069C102.118 171.376 105.758 171.236 128.279 172.851C143.211 173.922 158.684 173.097 162.183 171.043C162.82 170.669 148.974 170.372 131.414 170.382C103.11 170.399 99.0959 170.585 96.0235 172.018C91.2007 174.269 90.9143 174.166 87.5197 168.937C85.8587 166.379 84.1467 164.286 83.7162 164.286C80.9365 164.286 83.7001 162.581 87.1832 162.147C90.9903 161.673 96.4827 159.5 110.079 153.083C112.457 151.96 114.234 150.863 114.025 150.646C113.817 150.428 109.454 152.173 104.33 154.522C86.8083 162.558 81.7384 162.901 78.0378 156.305C75.3475 151.509 75.3064 151.205 77.3388 151.174C79.186 151.145 86.5568 147.644 85.004 147.534C84.4205 147.492 83.011 147.817 81.8717 148.257C75.2151 150.82 75.2043 150.816 70.7242 143.502C68.4358 139.765 63.7687 132.766 60.3536 127.951C56.9376 123.135 54.4791 118.894 54.8899 118.528C55.3007 118.161 57.5488 116.266 59.8873 114.316C64.6261 110.365 65.8002 107.732 61.2297 111.307C56.9528 114.652 52.3921 116.877 51.6421 115.985C51.2815 115.556 47.3616 110.992 42.9307 105.846C34.9442 96.5679 34.8905 96.4735 36.7529 94.9029C38.5893 93.3556 38.5678 93.3378 35.8016 94.1232C33.7485 94.7056 32.458 94.5513 31.1031 93.5594C28.4961 91.6522 28.7431 90.9884 32.5914 89.5552C40.5689 86.5832 49.1023 78.7655 52.9058 70.9432C55.3607 65.8948 53.8214 66.4697 49.6581 72.1549C42.8162 81.4973 29.4653 89.286 24.8912 86.6038C11.3659 78.6739 18.8271 45.2129 35.9474 37.0232C45.4044 32.5001 53.3658 37.1896 54.9973 48.2439L55.6345 52.5659L56.0829 47.5333L56.5312 42.4998L61.2136 46.5984C66.509 51.2327 67.0048 53.3952 64.5213 61.0361C63.7481 63.4164 63.3382 65.5975 63.6103 65.8826C64.235 66.5343 67.6716 58.725 67.6984 56.5944C67.7324 53.871 69.1411 53.9337 71.7454 56.773L74.2566 59.5113L70.1309 68.4265C65.0198 79.4705 66.1188 80.2857 71.442 69.3988C73.5773 65.03 75.5265 61.4774 75.7726 61.5036C76.0188 61.5297 77.1813 62.8208 78.3555 64.3718C80.6564 67.4103 80.2429 71.6285 77.2216 75.944C75.9418 77.7727 75.9221 77.7727 73.8396 75.9328L71.7454 74.0817L73.836 76.5582C76.2863 79.4611 76.0268 80.2483 70.1005 87.8696C65.0395 94.3793 64.1222 96.1883 67.5982 92.8068C69.1617 91.2867 71.919 87.7995 73.7259 85.0584L77.0122 80.0744L79.7229 82.9053L82.4328 85.7371L80.753 88.7839L79.0723 91.8317L81.2829 89.7291L83.4934 87.6265L85.993 90.3508L88.4917 93.0761L85.7468 97.2448C84.2362 99.5372 80.0657 104.468 76.4779 108.201C72.4175 112.428 71.1377 114.153 73.0878 112.774C77.167 109.889 83.2213 103.372 86.6266 98.2021L89.3338 94.0914L91.9292 97.6365C93.3575 99.5858 95.0794 101.812 95.7568 102.583C100.036 107.456 100.309 108.9 97.664 112.636C96.2992 114.563 94.1665 117.292 92.9261 118.701C91.6848 120.109 90.9053 121.507 91.1926 121.807C91.4799 122.108 93.6654 119.827 96.0495 116.74C98.4336 113.652 100.618 111.097 100.905 111.062C101.191 111.026 102.49 112.995 103.792 115.438C106.696 120.888 106.926 118.683 104.051 112.943C102.098 109.04 102.063 108.665 103.42 106.17C105.52 102.315 104.591 101.304 113.011 116.607C115.134 120.463 117.83 124.848 119.002 126.35L121.135 129.083L119.261 131.441C115.895 135.677 112.159 138.983 108.927 140.586C105.52 142.275 106.299 143.422 109.869 141.972C113.484 140.504 119.592 135.407 121.346 132.394C122.35 130.668 123.247 129.946 123.614 130.566C124.861 132.674 132.537 136.048 148.627 141.559C149.729 141.937 150.121 141.785 149.736 141.133C149.406 140.576 147.028 139.399 144.449 138.515C130.487 133.729 121.327 126.482 115.277 115.436C111.79 109.068 111.408 105.919 114.479 108.859C118.521 112.727 136.626 121.281 140.771 121.281C142.584 121.281 140.287 119.451 137.3 118.518C131.549 116.719 122.374 111.624 117.615 107.589C113.94 104.472 113.367 103.52 113.364 100.535C113.36 97.0559 114.539 95.1833 115.601 96.9793C116.485 98.4732 126.785 103.668 126.785 102.62C126.785 102.112 125.552 101.03 124.046 100.217C122.54 99.4035 119.755 97.2719 117.856 95.4797L114.404 92.2225L116.563 83.7981C120.249 69.4081 125.833 58.266 132.134 52.7276C144.935 41.4752 185.679 53.2073 189.022 69.109C191.913 82.8576 176.145 87.9855 153.728 80.5886C145.324 77.8148 142.942 78.0457 150.298 80.9205C161.85 85.4361 175.86 86.9067 182.719 84.3254C184.688 83.585 186.375 82.9717 186.468 82.9642C187.587 82.8716 183.297 91.8439 181.701 92.9368C179.526 94.4261 165.697 94.3195 159.898 92.7685C158.269 92.3338 158.026 92.417 159.003 93.077C161.207 94.5654 174.19 96.2557 178.378 95.5994C182.771 94.9113 182.756 94.8888 180.951 99.3988C179.733 102.448 179.375 102.677 176.253 102.407C173.11 102.136 172.887 101.92 173.054 99.3109C173.225 96.6605 173.164 96.6062 171.936 98.3209C171.222 99.3193 170.637 100.476 170.637 100.892C170.637 103.28 158.399 100.812 146.699 96.0668C138.715 92.8283 137.186 93.0106 143.646 96.4314C148.506 99.0033 158.636 102.099 165.491 103.106C167.83 103.449 169.74 103.998 169.737 104.326C169.734 104.653 169.313 106.498 168.8 108.426C167.652 112.748 166.057 112.907 156.094 109.696C152.28 108.466 149.158 107.802 149.158 108.219C149.158 109.117 155.762 111.47 162.359 112.922C164.943 113.491 167.057 114.31 167.057 114.743C167.057 115.175 166.578 117.701 165.991 120.356C164.947 125.078 164.865 125.17 162.187 124.609C160.682 124.294 157.839 123.846 155.871 123.613L152.291 123.188L155.871 124.5C157.839 125.222 160.369 125.844 161.492 125.884C163.999 125.972 164.594 127.433 163.614 131.098C162.98 133.468 162.461 133.869 160.262 133.694L157.66 133.485L159.898 134.579C161.128 135.18 162.213 135.706 162.309 135.748C162.511 135.836 160.964 143.37 160.216 145.939C159.932 146.915 160.078 147.453 160.546 147.151C161.007 146.852 161.894 144.227 162.518 141.317L163.652 136.024L166.808 136.559C170.709 137.221 170.362 136.193 169.927 145.822L169.559 154.003H164.288C161.39 154.003 154.153 152.911 148.207 151.577C132.816 148.124 132.713 149.915 148.065 154.053C151.646 155.019 158.191 156.094 162.608 156.443L170.637 157.076L170.667 159.979C170.683 161.577 171.452 165.176 172.378 167.976L174.06 173.066L168.411 179.441C156.908 192.419 144.434 214.516 138.862 231.783C135.992 240.675 136.394 240.335 127.444 241.456C119.288 242.477 120.104 244.001 128.402 243.244L135.58 242.591L135.082 250.183C134.431 260.093 136.018 260.233 137.351 250.384C138.705 240.38 143.009 227.3 149.132 214.58L154.217 204.02L162.651 203.73C174.431 203.324 189.454 206.732 199.511 212.092C201.424 213.112 203.462 213.758 204.041 213.529C205.72 212.862 190.567 205.757 182.719 203.53C178.728 202.398 171.501 201.279 166.386 201.001C161.341 200.727 157.213 200.189 157.213 199.807C157.213 199.425 159.438 195.93 162.156 192.041L167.099 184.97L172.182 186.797C178.896 189.21 180.116 188.623 174.341 185.759C168.777 182.999 168.793 183.194 173.705 177.761L177.669 173.378L181.536 174.975C183.663 175.853 187.559 177.831 190.193 179.372C192.827 180.912 195.18 181.965 195.422 181.712C196.076 181.029 188.653 175.537 184.285 173.475C179.646 171.283 179.631 171.684 184.512 167.506L188.542 164.056L196.06 167.825C200.196 169.898 205.84 173.104 208.604 174.952C213.942 178.519 214.49 178.759 214.49 177.532C214.49 176.473 206.592 171.182 198.023 166.5L190.952 162.637L198.357 157.458C206.549 151.729 206.482 151.733 213.836 156.681C215.692 157.929 217.441 158.71 217.723 158.415C218.18 157.939 214.011 154.471 209.442 151.528C207.918 150.545 208.194 150.06 212.7 145.783C217.593 141.138 217.64 141.119 220.64 142.414C225.286 144.422 225.994 143.967 222.303 141.346L218.961 138.974L220.939 136.179C222.027 134.642 223.412 133.582 224.017 133.826C224.622 134.068 227.66 134.72 230.767 135.274C233.873 135.828 237.322 136.491 238.43 136.746C239.537 137.001 240.443 136.835 240.443 136.377C240.443 135.919 238.731 135.263 236.64 134.918C225.566 133.099 223.714 131.849 226.002 127.737C226.977 125.985 228.442 122.389 229.258 119.744L230.743 114.935L234.474 115.312L238.206 115.689L235.073 114.425L231.941 113.16L232.212 101.56C232.361 95.1815 232.131 87.1226 231.7 83.6513C231.043 78.3411 231.129 77.3408 232.24 77.3408C233.346 77.3408 233.32 77.0631 232.08 75.6308C227.708 70.5842 236.128 61.4475 245.15 61.4475C253.304 61.4475 252.264 71.2817 243.671 75.4149C241.13 76.6377 240.559 77.2071 241.821 77.2622C242.824 77.3052 245.224 76.4994 247.155 75.471C251.566 73.1216 251.347 73.0608 251.015 76.547C250.663 80.2418 247.399 82.9062 242.357 83.6121C240.296 83.901 238.418 84.4619 238.183 84.8592C237.948 85.2556 238.461 85.4361 239.324 85.2594C246.199 83.8514 246.708 83.8916 246.708 85.8399C246.708 88.6437 245.075 91.3512 243.32 91.4578C242.385 91.5139 242.653 91.8027 244.004 92.1963C245.757 92.7058 246.358 93.6669 246.865 96.7717C247.733 102.078 249.327 105.039 249.366 101.414C249.404 97.7029 252.486 97.9086 253.753 101.708C254.787 104.806 254.638 104.932 246.26 107.997C244.134 108.775 243.971 108.996 245.476 109.054C246.523 109.094 249.079 108.5 251.157 107.734C254.79 106.396 255.001 106.423 256.578 108.436C258.194 110.497 258.175 110.579 255.372 113.754L252.525 116.98L255.704 114.55C258.364 112.516 259.549 112.199 262.97 112.601C267.777 113.167 272.479 109.535 276.715 101.986C278.172 99.3876 279.541 97.9544 280.282 98.2517C283.185 99.4156 287.715 99.8709 288.203 99.0473C288.5 98.5434 286.951 97.9375 284.681 97.6702C279.236 97.0288 279.151 96.8203 281.846 90.6519C297.275 55.351 298.217 48.0924 288.289 40.9872L285.218 38.7883L287.389 37.0054C288.582 36.0238 289.812 34.3914 290.12 33.3761C290.429 32.3608 291.056 31.5307 291.515 31.5307C292.99 31.5307 292.407 34.943 290.499 37.4766C289.068 39.3773 288.974 39.8045 290.084 39.3595C290.874 39.0426 292.122 37.5701 292.856 36.0874C294.145 33.4837 294.265 33.4435 296.386 34.8944C298.261 36.178 298.433 36.6885 297.572 38.404C296.598 40.3468 296.622 40.3589 298.331 38.7761C302.325 35.0777 304.808 37.2382 301.606 41.6238C300.281 43.4385 299.789 44.6828 300.492 44.4454C301.182 44.2116 302.553 42.7233 303.537 41.1396C305.595 37.8272 309.863 36.5866 312.11 38.648C314.066 40.444 315.176 40.2841 313.428 38.4573C312.127 37.098 312.199 36.81 314.277 35.1029C315.527 34.0755 317.156 32.0103 317.897 30.5135C318.867 28.5549 319.928 27.7733 321.683 27.7275C324.082 27.6658 324.09 27.6489 322.107 26.6505C320.462 25.8212 320.086 24.8489 320.054 21.3374C320.033 18.974 319.435 15.3569 318.725 13.3001C318.016 11.2433 317.429 9.45579 317.422 9.32678C317.415 9.19776 318.114 9.07529 318.975 9.05379C319.836 9.03228 321.951 8.23107 323.673 7.2728C326.675 5.60401 328.833 6.24534 327.544 8.42273ZM35.0525 39.7989C23.1076 47.4389 16.1082 68.0591 21.656 79.2667C27.5492 91.1707 46.259 76.1422 49.6598 56.773C52.1612 42.5307 44.5712 33.7118 35.0525 39.7989ZM324.937 47.696C325.651 48.8796 325.504 49.6518 324.329 50.8793C322.049 53.2605 319.38 50.5634 320.962 47.4763C322.113 45.2307 323.494 45.3064 324.937 47.696ZM140.319 51.1654C127.686 54.2814 131.022 66.0051 146.84 74.0817C159.542 80.5671 177.795 82.363 183.774 77.7157C197.193 67.2859 162.04 45.8084 140.319 51.1654ZM320.846 55.7549C320.12 56.9852 319.028 57.6218 318.08 57.3685C316.402 56.9179 315.926 58.1529 317.409 59.1102C319.939 60.7435 317.452 64.7009 314.399 63.9006C311.737 63.2023 312.01 61.7522 316.2 54.2814C318.537 50.1155 318.573 50.095 320.302 51.9003C321.824 53.4905 321.893 53.9804 320.846 55.7549ZM237.338 65.4498C229.549 70.0588 229.852 76.0534 237.833 75.2522C247.864 74.2453 253.66 63.2873 244.138 63.3322C242.351 63.3406 239.291 64.2942 237.338 65.4498ZM314.424 65.7555C317.586 66.6418 315.48 71.7314 311.951 71.7314C308.961 71.7314 309.061 71.9539 310.337 68.1311C311.388 64.9786 311.474 64.929 314.424 65.7555ZM85.1777 73.0617L87.5135 76.261L85.6833 80.0099C83.2464 85.0004 82.7192 85.1977 79.9386 82.1667L77.567 79.5808L79.5323 74.7212C81.8556 68.9771 82.1357 68.8949 85.1777 73.0617ZM313.829 74.9427C313.829 77.9241 312.027 81.0804 310.324 81.0804C308.04 81.0804 307.683 80.3268 308.22 76.6396C308.602 74.02 309.019 73.6012 311.245 73.6012C312.893 73.6012 313.829 74.0873 313.829 74.9427ZM124.547 77.8222C128.319 81.2103 133.049 83.5167 133.049 81.9666C133.049 81.4796 132.691 81.0804 132.255 81.0804C131.818 81.0804 129.411 79.6079 126.906 77.8082C121.114 73.646 119.907 73.6535 124.547 77.8222ZM90.9617 81.0439L92.8491 83.8121L90.9537 87.6939L89.0573 91.5746L86.4968 89.0121L83.9364 86.4495L85.8954 82.3883C88.2312 77.5464 88.5248 77.4688 90.9617 81.0439ZM251.183 85.2547C251.183 87.5368 250.654 88.7896 249.393 89.4945C247.743 90.4163 247.603 90.205 247.603 86.801C247.603 83.4887 248.318 82.3303 250.511 82.0891C250.881 82.0489 251.183 83.4728 251.183 85.2547ZM312.039 85.1313C312.039 88.8512 311.599 89.444 309.302 88.8167C306.407 88.0257 306.848 82.0153 309.802 82.0153C311.741 82.0153 312.039 82.4304 312.039 85.1313ZM96.795 89.673C98.7003 92.5768 98.7334 92.9097 97.417 95.7938C95.6915 99.5746 95.2485 99.5802 92.4625 95.8621L90.2288 92.8797L92.0124 89.2271C92.9932 87.218 94.018 85.8054 94.2891 86.0877C94.5594 86.371 95.6879 87.9846 96.795 89.673ZM252.078 93.7305C252.078 97.2897 249.838 99.2146 248.421 96.8764C247.259 94.9599 247.433 91.5914 248.721 91.0483C251.358 89.9376 252.078 90.5126 252.078 93.7305ZM102.559 98.477C104.434 101.796 104.438 101.894 102.793 104.607L101.122 107.365L98.7433 104.107C96.4039 100.902 96.3905 100.803 97.9271 97.9824C99.9094 94.3438 100.246 94.3803 102.559 98.477ZM178.255 108.512C177.215 112.209 176.974 112.414 173.341 112.693C169.655 112.975 169.54 112.902 170.086 110.631C171.587 104.382 172.023 103.896 175.793 104.271L179.349 104.626L178.255 108.512ZM176.007 115.607C176.007 115.974 175.365 118.242 174.58 120.647C173.242 124.749 172.958 125.021 169.991 125.021H166.828L167.419 121.164C168.348 115.094 169.154 114.106 172.814 114.552C174.57 114.766 176.007 115.241 176.007 115.607ZM285.191 114.417C285.191 114.948 286.039 116.183 287.076 117.163C288.114 118.143 289.907 120.837 291.061 123.151C293.336 127.708 294.018 126.848 292.013 121.952C290.737 118.838 285.191 112.712 285.191 114.417ZM76.7472 122.582C76.1789 123.299 74.5188 124.402 73.0583 125.034C71.5977 125.666 70.403 126.56 70.403 127.023C70.403 128.12 76.8895 124.657 78.4029 122.752C79.0455 121.943 79.169 121.281 78.6767 121.281C78.1845 121.281 77.3164 121.867 76.7472 122.582ZM104.822 125.413C103.325 126.646 99.5103 129.03 96.3457 130.71C93.1812 132.39 91.0763 133.933 91.6696 134.14C93.3109 134.712 105.465 128.299 107.923 125.565C110.744 122.427 108.575 122.322 104.822 125.413ZM298.615 126.189C298.615 127.447 302.406 135.395 302.806 134.977C303.531 134.22 301.351 128.098 299.912 126.851C299.198 126.232 298.615 125.935 298.615 126.189ZM171.903 130.396C171.076 135.184 170.964 135.305 167.353 135.305H164.173L164.801 131.806C165.653 127.066 165.817 126.89 169.388 126.89C172.505 126.89 172.508 126.894 171.903 130.396ZM249.746 144.008C250.68 144.62 253.894 147.142 256.89 149.613C260.3 152.424 262.475 153.673 262.705 152.951C263.133 151.61 259.565 148.4 253.978 145.099C250.091 142.801 246.497 141.874 249.746 144.008ZM128.798 158.431C123.453 158.822 122.348 160.553 127.456 160.534C131.615 160.518 134.839 159.66 134.839 158.568C134.839 158.114 134.538 157.82 134.168 157.915C133.798 158.01 131.382 158.242 128.798 158.431ZM84.3982 169.798C86.1406 172.176 88.1775 176.704 89.2335 180.549C92.6773 193.083 93.7369 195.211 99.5881 201.353C104.324 206.326 105.485 208.195 106.621 212.676C107.369 215.628 108.837 220.567 109.883 223.653C113.926 235.574 114.402 238.335 113.912 247.027C113.37 256.642 111.835 261.968 108.256 266.654C105.07 270.826 105.073 270.827 103.132 265.189C101.245 259.704 101.624 254.323 104.355 247.875C105.315 245.608 105.77 243.753 105.366 243.753C104.475 243.753 100.998 251.997 100.258 255.859C99.9658 257.388 100.44 261.682 101.314 265.403L102.9 272.168L98.6064 276.23C91.5649 282.89 91.4146 282.897 89.1396 276.705C86.4565 269.406 86.4422 259.275 89.102 252.039C90.9125 247.115 92.5556 244.276 101.004 231.467C102.821 228.712 104.56 225.195 104.868 223.653C105.355 221.211 105.202 221.331 103.682 224.588C102.721 226.644 99.7018 231.223 96.9722 234.763C90.5634 243.074 86.8548 251.041 85.5482 259.307C84.5145 265.843 84.8143 268.689 88.0057 282.618C88.3556 284.145 87.3944 285.314 83.4531 288.15C80.7056 290.127 78.2123 291.488 77.9134 291.176C76.6237 289.829 72.0935 273.886 71.6004 268.96C70.8916 261.877 71.5037 260.293 81.1656 244.182C85.6717 236.668 89.1727 230.328 88.9463 230.091C88.2411 229.355 71.0375 256.996 69.7264 260.972C68.0868 265.944 68.9129 273.072 72.294 283.122C73.7447 287.436 75.1256 291.597 75.3627 292.368C75.8836 294.067 67.1122 300.578 66.0356 299.291C65.6463 298.825 63.2192 293.507 60.6426 287.474C52.0243 267.295 52.8396 263.087 68.6596 246.078C83.4764 230.148 88.6975 220.706 91.3993 204.955C92.3838 199.219 91.402 201.336 89.2506 209.587C85.8005 222.822 82.1402 228.792 69.1115 242.432C49.8898 262.559 49.0853 266.373 58.8993 290.861C61.3496 296.974 63.0268 302.314 62.6276 302.728C62.2276 303.142 59.3951 305.17 56.3326 307.236L50.7642 310.991L49.8129 307.055C48.1545 300.194 46.1114 294.922 42.0921 287.131C34.4547 272.326 37.7875 260.873 56.0247 239.249C72.0389 220.26 78.6087 207.879 80.6725 192.801C80.9535 190.744 80.0478 192.848 78.6589 197.475C73.8252 213.585 69.2109 221.793 57.377 235.339C44.3922 250.201 38.2269 260.453 36.5497 269.974C35.363 276.706 36.2437 280.983 40.7202 290.232C42.7642 294.455 45.2925 301.166 46.3369 305.144L48.2369 312.377L45.7471 314.451C40.6468 318.7 39.4932 318.98 36.4397 316.708C30.4533 312.255 22.7899 290.456 22.6243 277.409C22.4337 262.388 26.9442 254.214 46.6107 233.937C63.4913 216.532 69.8678 206.977 74.7497 191.772C76.8994 185.076 78.4924 176.307 77.4355 176.99C77.013 177.262 76.6676 178.345 76.6676 179.396C76.6676 182.738 71.3095 198.187 67.9651 204.487C63.0599 213.729 58.3892 219.54 43.3227 235.145C28.7869 250.201 24.0885 256.87 21.4868 266.139C17.6842 279.682 25.2206 310.543 34.2506 318.41L37.0885 320.882L32.6782 324.966C27.3962 329.857 27.2235 329.768 20.1552 318.545C13.2721 307.614 11.859 301.483 12.5311 285.454C13.7912 255.371 17.337 248.189 40.0579 229.698C55.0546 217.492 60.2516 210.627 67.6322 193.268C72.3665 182.134 71.8546 182.582 66.0284 194.671C58.3453 210.61 53.1609 217.349 40.8696 227.368C17.3298 246.558 14.2288 251.89 10.8951 278.903C8.43493 298.84 10.9005 309.534 21.3848 324.402C25.7298 330.563 25.8068 330.786 24.3865 333.05C20.0075 340.032 9.8731 331.936 5.71696 318.134C3.016 309.165 2.81464 279.61 5.38941 269.984C9.20189 255.726 15.7207 244.795 27.1241 233.536C43.9143 216.959 46.66 213.906 51.1499 206.824C58.4796 195.263 66.5448 179.46 72.762 164.477L74.0409 161.397L77.7147 163.542C79.7355 164.723 82.7425 167.538 84.3982 169.798ZM303.163 168.026C305.656 168.026 305.774 168.214 305.774 172.178C305.774 177.001 305.7 177.075 300.441 177.512L296.451 177.843L296.718 173.176C297.033 167.695 297.438 166.778 299.226 167.495C299.955 167.787 301.727 168.026 303.163 168.026ZM295.025 169.662C294.986 176.249 293.969 178.287 290.22 179.297C288.192 179.844 285.808 180.512 284.922 180.781C283.473 181.221 283.338 180.679 283.58 175.388C283.878 168.861 284.481 168.319 291.679 168.12C294.316 168.046 295.033 168.377 295.025 169.662ZM281.611 176.757C281.611 183.039 281.874 182.623 276.017 185.603C275.648 185.791 275.344 185.174 275.343 184.231C275.341 183.288 274.526 181.124 273.533 179.423C271.377 175.728 271.74 174.917 276.575 172.624C281.688 170.199 281.611 170.136 281.611 176.757ZM161.688 176.966C160.949 177.136 157.424 177.756 153.854 178.345C145.49 179.724 146.156 181.027 154.708 180.015C163.141 179.017 165.267 178.482 165.267 177.357C165.267 176.456 164.346 176.355 161.688 176.966ZM271.791 181.348C272.74 183.533 273.515 185.953 273.512 186.724C273.508 187.994 267.381 195.711 266.958 194.979C266.86 194.809 265.442 192.361 263.807 189.538L260.834 184.405L264.626 180.89C269.379 176.483 269.685 176.503 271.791 181.348ZM312.487 182.05C312.182 182.564 311.425 182.984 310.804 182.984C307.12 182.984 280.476 196.739 270.632 203.722C265.756 207.182 265.375 207.31 265.972 205.287C268.95 195.217 278.991 185.616 289.687 182.613C295.331 181.029 313.354 180.584 312.487 182.05ZM262.838 191.906C265.605 196.957 265.83 199.283 263.86 202.436C263.28 203.363 262.361 202.907 260.048 200.548C258.372 198.838 256.01 196.776 254.8 195.966L252.601 194.495L255.546 190.61C259.29 185.672 259.439 185.698 262.838 191.906ZM225.184 190.279C226.39 191.152 228.945 193.233 230.862 194.904C234.814 198.35 235.073 198.454 235.073 196.613C235.073 195.88 232.771 193.777 229.955 191.938C224.846 188.599 221.032 187.273 225.184 190.279ZM330.925 196.546C329.926 200.693 330.37 207.387 331.825 210.097C332.257 210.9 332.353 209.102 332.049 205.89C331.758 202.804 331.936 198.706 332.445 196.782C332.953 194.858 333.047 193.075 332.652 192.82C332.258 192.565 331.48 194.242 330.925 196.546ZM137.972 196.126C136.003 196.552 131.448 196.925 127.851 196.954C123.729 196.988 121.514 197.354 121.862 197.943C122.625 199.231 130.146 199.059 139.761 197.533C144.191 196.83 148.09 196.432 148.425 196.647C148.76 196.862 149.287 196.611 149.597 196.088C150.266 194.957 143.278 194.98 137.972 196.126ZM257.271 200.831C259.829 203.449 261.922 206.417 261.922 207.428C261.922 209.174 256.659 215.118 255.675 214.483C255.419 214.318 252.687 212.951 249.604 211.446C246.146 209.757 244.163 208.259 244.429 207.535C245.331 205.08 251.193 196.073 251.89 196.073C252.291 196.073 254.712 198.214 257.271 200.831ZM360.282 208.38C358.829 211.204 358.157 223.898 359.3 226.925C359.972 228.699 360.072 227.896 359.717 223.585C359.402 219.742 359.738 216.162 360.756 212.5C362.36 206.738 362.135 204.782 360.282 208.38ZM415.947 212.981C414.768 213.473 413.962 214.041 414.157 214.241C414.802 214.906 419.433 213.634 419.433 212.792C419.433 211.782 418.723 211.821 415.947 212.981ZM159.003 217.632C164.678 218.657 177.402 221.766 180.034 222.768C181.635 223.379 181.683 223.297 180.482 222.003C178.122 219.457 170.428 217.383 162.135 217.058C154.688 216.766 154.452 216.809 159.003 217.632ZM261.473 233.002C262.037 238.641 265.273 245.839 270.123 252.25C275.2 258.959 275.454 257.243 270.466 249.94C268.14 246.535 265.135 240.423 263.654 236.087C261.09 228.579 261.019 228.479 261.473 233.002ZM256.552 234.927C256.552 236.756 256.888 238.037 257.298 237.772C258.003 237.317 257.633 231.599 256.899 231.599C256.708 231.599 256.552 233.097 256.552 234.927ZM365.93 238.39C365.592 241.423 365.317 241.636 359.378 243.463L353.18 245.37L352.672 242.926C352.391 241.581 352.012 239.969 351.829 239.342C351.359 237.738 352.407 237.25 359.256 235.886C366.478 234.448 366.375 234.41 365.93 238.39ZM380.938 236.04C380.901 241.046 380.334 241.445 373.97 240.948L367.973 240.481L367.693 237.442L367.412 234.404H374.182C380.035 234.404 380.948 234.625 380.938 236.04ZM435.839 239.874C426.741 243.158 420.4 250.869 419.69 259.512C418.063 279.314 449.177 275.553 454.862 255.26C458.476 242.364 449.362 234.992 435.839 239.874ZM350.343 242.537C350.901 244.439 351.271 246.072 351.164 246.166C350.359 246.871 339.667 252.167 339.049 252.167C337.784 252.167 334.908 244.723 335.829 243.836C336.932 242.775 346.133 239.189 347.91 239.127C348.782 239.097 349.717 240.408 350.343 242.537ZM336.936 253.525C336.688 253.732 327.948 259.687 324.8 261.792C324.039 262.3 323.055 261.171 321.675 258.205L319.661 253.875L322.275 251.852C323.712 250.74 326.729 248.689 328.979 247.295L333.07 244.761L335.146 249.023C336.287 251.367 337.092 253.393 336.936 253.525ZM361.709 249.362L363.097 252.167H358.205C355.514 252.167 353.064 252.588 352.759 253.102C352.42 253.675 353.872 254.042 356.51 254.05C363.378 254.07 364.416 254.684 367.038 260.278C369.835 266.245 369.774 266.465 365.682 265.24C361.688 264.043 351.681 264.053 350.969 265.256C350.624 265.84 352.533 266.202 356.062 266.22C359.775 266.238 363.385 266.959 366.601 268.323C371.391 270.355 371.553 270.548 374.395 277.643C375.99 281.628 377.092 284.889 376.841 284.889C376.591 284.889 375.098 284.189 373.522 283.335C371.947 282.48 368.902 281.311 366.755 280.736C363.219 279.789 362.727 279.297 361.523 275.512C359.031 267.676 357.812 269.277 360.005 277.507C360.337 278.755 359.284 279.095 353.724 279.534C343.48 280.343 342.612 281.783 352.421 281.692L360.718 281.616L361.42 284.889C362.529 290.068 363.253 310.474 362.375 311.788C361.736 312.742 360.929 312.695 358.316 311.555C352.416 308.979 352.264 310.696 358.129 313.672C362.667 315.975 362.604 315.717 360.799 324.622C359.227 332.369 359.279 331.634 360.303 331.634C360.76 331.634 361.584 329.215 362.135 326.258C363.974 316.368 363.655 316.439 371.454 324.178C375.272 327.966 379.437 332.922 380.709 335.189L383.022 339.313L381.511 345.991C379.379 355.412 378.819 356.063 376.65 351.641C374.746 347.763 370.211 342.746 370.211 344.517C370.211 345.099 371.218 347.126 372.451 349.023C376.127 354.682 377.097 359.283 375.1 361.589C372.188 364.95 370.173 363.591 367.418 356.408C362.793 344.346 358.58 338.757 351.097 334.759C345.834 331.946 345.961 333.095 351.391 337.397C358.746 343.227 362.577 350.132 366.338 364.341C368.803 373.651 368.987 402.108 366.66 413.905C362.315 435.921 345.005 481.616 334.361 499.166L332.489 502.253L333.095 486.891C333.811 468.724 334.713 464.586 341.056 450.366C347.975 434.854 349.24 428.595 348.19 415.073C347.322 403.896 346.506 405.62 346.418 418.819C346.328 432.471 345.686 435.106 338.85 449.905C332.302 464.079 331.898 465.874 330.861 485.425C329.769 506.015 329.149 508.708 321.862 524.517C318.501 531.811 312.27 546.614 308.017 557.412C300.632 576.163 289.384 601.367 286.837 604.872C285.807 606.29 285.624 605.234 285.538 597.393C285.483 592.372 285.031 585.529 284.533 582.187L283.628 576.11L283.514 581.359C283.452 584.245 283.781 588.702 284.246 591.263C286.127 601.621 281.892 613.512 272.736 623.581C250.606 647.916 225.354 653.901 195.696 641.838C168.412 630.741 142.367 610.838 106.925 574.003C87.1555 553.456 86.8243 552.932 82.074 534.66C78.7573 521.903 78.2973 520.919 69.5366 507.862C50.2747 479.153 46.8193 469.074 49.6795 449.943C50.8474 442.135 50.4062 440.797 48.9492 447.73C44.7824 467.558 48.244 479.775 65.9613 507.768C75.4102 522.697 76.0528 524.108 79.3292 537.123L81.7527 546.75L78.2257 543.2C58.229 523.07 33.7253 475.644 19.4088 429.36C7.25449 390.064 5.70175 371.202 13.3303 355.508L15.3636 351.324L15.0558 360.103C14.6879 370.593 16.2299 377.238 20.8828 385.224C22.6279 388.217 24.3802 391.793 24.7785 393.171C25.4202 395.392 25.5105 395.441 25.5786 393.601C25.6206 392.459 23.9542 388.049 21.8753 383.799C18.3474 376.589 18.0717 375.47 17.7486 367.064C16.8501 343.689 23.5667 333.596 53.8464 312.823C71.5207 300.699 86.9944 289.556 96.2714 282.272L103.793 276.366L103.233 285.068C102.602 294.888 99.9998 306.572 96.4889 315.35C94.503 320.314 91.9569 323.639 80.787 335.855C65.9944 352.031 63.962 353.478 53.9869 354.927C46.4067 356.028 42.3177 357.788 40.8965 360.564C39.2731 363.732 39.9667 364.913 41.8774 362.238C44.4709 358.605 46.5329 357.675 53.8965 356.812C62.9212 355.755 67.8022 353.026 76.281 344.297C80.2993 340.16 84.5216 335.934 85.6654 334.906L87.7453 333.036L85.601 336.308C81.7321 342.213 72.8301 351.33 61.3192 361.178C49.5131 371.28 43.4963 378.123 40.8553 384.455C37.8859 391.576 38.1857 393.776 41.2178 387.112C45.1421 378.484 49.658 373.458 62.3377 363.602C68.0036 359.197 75.5614 352.654 79.1323 349.061L85.6251 342.529L84.3829 346.664C83.7001 348.939 81.7026 354.627 79.9431 359.308C72.9303 377.962 73.785 389.66 84.0545 415.606L88.7458 427.461L88.7136 437.745C88.6957 443.401 88.8067 446.977 88.9597 445.691C89.4206 441.831 91.1801 435.407 91.7743 435.418C92.0795 435.423 93.8891 438.531 95.7953 442.324C97.7007 446.117 100.216 450.425 101.385 451.896L103.509 454.573L101.905 450.833C101.023 448.777 97.5476 441.414 94.1817 434.473C87.0311 419.725 78.4575 396.943 78.4575 392.69C78.4575 390.984 98.3074 413.578 98.7254 415.759C99.3062 418.793 100.831 420.581 100.831 418.228C100.831 414.757 98.3585 410.967 90.9241 403.043C75.9248 387.054 74.9645 380.891 83.7529 357.018C86.1478 350.513 88.4022 343.296 88.761 340.983C89.1208 338.669 90.1043 335.724 90.9465 334.438C94.7187 328.683 98.5858 320.541 101.25 312.746L104.138 304.295L104.655 309.53C105.4 317.064 108.896 323.018 119.4 334.635C128.878 345.117 131.472 349.365 135.426 360.879C138.835 370.805 140.417 373.659 146.215 380.342C149.096 383.664 152.423 388.02 153.609 390.025C154.795 392.028 155.914 393.201 156.096 392.631C156.653 390.885 153.742 385.967 148.859 380.404C141.95 372.532 140.751 370.424 137.079 359.681C132.443 346.12 131.177 343.787 124.34 336.216L118.357 329.591L122.348 330.155C146.086 333.508 145.88 333.459 153.399 337.427C161.442 341.671 163.796 341.829 158.156 337.746C154.056 334.778 143.873 330.699 140.562 330.699C139.233 330.699 138.549 330.301 138.889 329.726C139.257 329.105 142.746 328.924 148.562 329.225C156.675 329.645 157.127 329.59 152.738 328.718C150.031 328.18 143.008 327.949 137.133 328.204C123.984 328.776 116.475 327.671 114.123 324.816C109.569 319.29 105.792 306.857 105.968 297.977C106.343 279.117 107.278 273.262 110.677 268.528C112.522 265.957 114.499 262.907 115.07 261.75C116.711 258.424 118.88 259.215 125.958 265.723C129.594 269.065 132.863 271.8 133.224 271.8C134.59 271.8 138.419 278.891 138.419 281.421C138.419 282.945 138.798 283.819 139.314 283.486C140.885 282.472 140.279 278.713 137.972 275.161C136.741 273.267 135.734 271.525 135.734 271.291C135.734 270.26 155.026 270.999 162.192 272.304C174.119 274.477 176.747 276.026 182.651 284.366C190.578 295.563 198.428 299.562 210.001 298.299C216.377 297.602 216.341 297.519 211.863 302.586C207.18 307.885 204.536 314.021 203.985 320.869C203.728 324.054 202.597 328.476 201.373 331.072C200.187 333.591 199.367 336.116 199.552 336.681C199.737 337.248 200.922 335.607 202.184 333.036L204.48 328.361L205.129 331.022C206.063 334.852 204.976 343.792 202.876 349.565C200.452 356.228 200.655 357.399 203.312 352.071C206.011 346.657 207.55 336.945 206.9 329.425C206.474 324.497 206.557 324.017 207.486 326.024C208.081 327.31 210.414 331.727 212.671 335.841C218.501 346.466 219.074 348.107 219.633 355.805C220.006 360.952 220.351 362.27 221.005 361.049C221.854 359.464 221.375 351.228 220.17 346.668C219.584 344.451 219.614 344.437 221.705 345.967C222.877 346.825 224.654 347.514 225.652 347.497C227.463 347.467 227.463 347.465 225.677 346.134C218.071 340.469 217.303 339.563 213.548 331.808C210.351 325.207 209.551 322.532 209.274 317.518L208.933 311.348L213.2 306.299C218.624 299.879 218.233 299.925 221.074 305.377C227.596 317.895 244.281 336.718 252.754 341.116C259.55 344.644 270.542 344.308 277.889 340.349C280.92 338.715 283.401 337.62 283.401 337.914C283.401 338.208 282.023 341.438 280.339 345.091C277.857 350.477 275.386 353.679 267.284 362.018C261.787 367.674 255.728 374.675 253.821 377.576C249.513 384.127 244.777 387.266 228.475 394.373C221.237 397.529 212.598 402.171 207.759 405.504C197.286 412.718 189.721 415.503 177.618 416.6C168.198 417.455 162.584 419.404 159.934 422.741C157.728 425.517 159.624 425.19 164.142 422.014C168.37 419.041 169.21 418.821 178.362 418.301C183.711 417.996 189.096 417.483 190.326 417.16L192.563 416.574L190.092 418.79C188.731 420.008 182.914 423.93 177.164 427.505C164.656 435.281 155.88 443.53 151.978 451.178C148.088 458.802 148.434 459.55 152.514 452.339C156.944 444.511 165.027 436.805 173.986 431.87L181.257 427.864L179.812 431.87C179.018 434.072 177.885 436.506 177.296 437.277C174.341 441.139 171.35 451.301 173.167 451.301C173.619 451.301 174.231 449.715 174.528 447.777C174.824 445.839 176.215 442.579 177.619 440.532C179.022 438.485 180.871 434.829 181.728 432.406C183.596 427.13 184.317 426.405 197.486 416.578C210.85 406.603 218.873 401.674 228.553 397.489C232.877 395.619 238.773 392.869 241.654 391.377C244.535 389.884 247.042 388.663 247.224 388.663C247.408 388.663 246.129 391.923 244.384 395.908C242.638 399.893 236.594 414.197 230.954 427.695C216.933 461.246 214.342 465.358 199.723 477.257C188.221 486.62 181.951 496.808 176.482 515.019C172.969 526.717 172.783 526.946 165.604 528.42C162.679 529.021 159.713 531.804 158.636 534.959C158.264 536.052 159.221 535.373 160.964 533.307C163.291 530.552 164.884 529.62 168.399 528.958C170.86 528.496 172.952 528.2 173.05 528.302C173.148 528.404 172.128 530.788 170.785 533.6C168.769 537.822 167.121 539.593 161.34 543.749C154.542 548.636 151.077 553.372 152.137 556.33C152.351 556.925 153.004 556.151 153.588 554.609C155.104 550.617 156.867 548.798 163.635 544.24C171.088 539.222 173.236 535.546 176.859 521.601C182.943 498.186 187.411 490.731 203.51 477.135C208.81 472.658 214.355 467.347 215.832 465.334C219.304 460.598 219.364 460.617 221.084 467.022C224.472 479.635 222.372 493.643 213.338 518.716C201.189 552.43 199.666 580.18 208.84 600.651C212.47 608.749 212.678 606.205 209.224 595.977C206.023 586.498 205.988 586.232 205.988 571.436C205.988 560.225 206.414 554.435 207.687 548.328C209.25 540.837 210.882 538.261 210.93 543.21C210.958 546.21 214.125 553.011 217.516 557.359C221.327 562.242 222.468 564.551 223.457 569.376C224.219 573.091 224.25 572.994 224.025 567.576C223.812 562.42 223.425 561.391 220.157 557.292C215.407 551.332 213.969 548.26 212.779 541.535C211.551 534.598 212.004 532.021 216.825 518.494C224.118 498.028 225.457 492.181 225.573 480.283C225.66 471.153 225.357 468.608 223.561 463.409L221.445 457.286L224.553 450.788C226.263 447.213 229.392 440.082 231.507 434.94C233.622 429.798 235.628 425.258 235.966 424.851C236.584 424.106 249.542 455.679 251.776 463.369C253.715 470.048 253.293 476.774 250.522 483.349C246.408 493.111 247.747 509.168 254.104 526.327C256.924 533.938 257.652 533.004 255.197 524.924C249.437 505.976 248.817 493.611 253.068 482.519C255.36 476.539 255.783 474.312 255.473 469.841C255.138 465.006 255.249 464.548 256.496 465.627C257.266 466.293 260.078 468.7 262.748 470.978C265.417 473.255 268.74 476.994 270.131 479.286C272.97 483.963 273.324 483.757 271.278 478.617C270.501 476.664 266.124 471.249 261.288 466.259L252.682 457.378L245.249 438.519L237.816 419.66L243.169 407.265C250.291 390.775 255.752 380.18 259.769 375.061C263.523 370.274 263.568 370.28 264.721 375.645C265.189 377.821 267.726 384.269 270.357 389.975C275.846 401.881 276.541 404.008 278.441 414.731C279.204 419.042 281.273 425.91 283.037 429.993L286.246 437.416L284.863 443.657C282.682 453.5 282.5 455.296 283.332 458.78L284.112 462.052L284.204 457.57C284.297 453.044 286.725 441.144 287.82 439.848C288.693 438.815 296.754 452.03 303.002 464.739C307.489 473.866 308.473 476.692 308.536 480.632C308.606 485.009 308.685 485.182 309.436 482.62C311.24 476.469 304.077 459.486 290.705 438.212C284.569 428.448 282.193 422.403 280.31 411.765C279.509 407.246 278.478 402.513 278.018 401.247C276.91 398.202 277.294 398.311 282.768 402.585C288.033 406.695 296.661 411.583 297.361 410.852C297.615 410.586 293.673 407.408 288.599 403.791C283.525 400.173 278.414 396.489 277.241 395.605C274.487 393.529 267.458 378.036 266.721 372.419L266.151 368.082L271.988 362.495C279.311 355.485 282.595 350.129 285.75 340.048C287.534 334.345 302.724 300.158 304.303 298.292C304.374 298.209 304.48 301.785 304.539 306.239C304.742 321.41 308.737 335.546 314.39 341.094C317.477 344.123 318.054 342.51 315.256 338.678C310.495 332.158 310.089 329.873 312.929 325.589C316.017 320.929 318.489 318.589 323.673 315.417C326.898 313.444 327.293 312.952 325.651 312.944C322.392 312.93 317.188 316.169 313.19 320.701C309.007 325.442 309.026 325.46 307.963 315.701C307.372 310.271 309.311 306.875 315.565 302.391C316.765 301.53 317.508 300.573 317.215 300.267C316.522 299.543 312.143 301.949 309.616 304.442C306.951 307.07 306.914 307.029 307.3 301.951C307.655 297.302 309.488 294.853 317.417 288.438C322.073 284.672 318.549 285.149 313.023 289.032C308.08 292.508 307.617 292.058 310.147 286.239C312.093 281.765 317.475 276.709 324.203 273.037C326.863 271.585 329.04 270.093 329.041 269.72C329.043 268.921 326.042 270.041 321.055 272.699C316.176 275.299 315.73 275.101 318.808 271.703C325.24 264.6 338.822 255.386 351.139 249.769C359.675 245.876 359.977 245.864 361.709 249.362ZM319.898 259.921L321.937 263.937L317.88 268.551L313.824 273.167L310.63 269.828L307.434 266.491L312.063 261.198C314.61 258.288 316.956 255.907 317.276 255.907C317.597 255.907 318.777 257.713 319.898 259.921ZM335.256 274.556C332.118 275.551 328.801 277.467 329.305 277.995C329.534 278.233 331.481 278.01 333.632 277.498C335.785 276.986 339.527 276.3 341.947 275.972C345.039 275.555 345.972 275.128 345.08 274.538C343.564 273.535 338.446 273.545 335.256 274.556ZM244.918 281.897C244.918 284.334 261.227 297.144 262.559 295.753C262.865 295.434 262.948 295.03 262.743 294.857C262.326 294.505 249.17 284.206 246.578 282.204C245.612 281.457 244.918 281.328 244.918 281.897ZM368.532 283.526C374.319 285.658 378.96 290.848 380.612 297.038C381.367 299.869 382.178 302.908 382.414 303.791C382.81 305.272 382.54 305.259 378.988 303.619C374.142 301.382 365.736 300.099 365.736 301.596C365.736 302.177 366.813 302.652 368.13 302.652C369.447 302.652 373.429 304.151 376.979 305.984C382.461 308.813 383.517 309.747 383.982 312.177C384.632 315.571 384.724 333.503 384.091 333.503C383.851 333.503 380.618 330.184 376.908 326.127C373.197 322.07 368.864 317.821 367.277 316.685L364.394 314.62V301.391C364.394 294.114 364.102 286.794 363.745 285.122C363.001 281.642 363.219 281.57 368.532 283.526ZM333.07 295.694L329.491 297.008L333.07 296.568C335.039 296.326 338.564 296.123 340.901 296.118C343.239 296.112 345.152 295.687 345.152 295.173C345.152 293.818 337.256 294.159 333.07 295.694ZM351.864 299.783C350.467 300.36 350.925 300.61 353.945 300.917C358.119 301.343 359.825 300.414 356.553 299.498C354.18 298.835 354.158 298.835 351.864 299.783ZM353.207 356.199C353.207 356.426 354.646 359.866 356.404 363.843C360.465 373.022 362.472 382.713 361.845 390.097C361.325 396.21 362.341 399.608 363.933 397.077C366.823 392.475 363.545 372.136 358.303 362.156C355.866 357.517 353.207 354.409 353.207 356.199ZM126.962 492.203C123.414 500.276 122.337 505.329 122.424 513.472L122.494 520.016L123.667 511.134C124.853 502.149 126.558 495.784 129.488 489.398C130.373 487.47 130.791 485.892 130.416 485.892C130.041 485.892 128.487 488.732 126.962 492.203ZM292.812 501.979C294.199 505.09 295.031 508.663 295.054 511.602C295.082 515.306 295.283 515.929 296.023 514.6C297.601 511.768 294.304 499.417 291.485 497.598C291.002 497.286 291.599 499.257 292.812 501.979ZM137.524 581.685C137.524 582.039 139.285 584.72 141.438 587.642C149.57 598.682 164.331 611.216 174.635 615.83C181.215 618.776 180.37 617.567 172.209 612.357C160.82 605.087 154.462 599.736 145.633 589.991C141.173 585.068 137.524 581.331 137.524 581.685Z" fill="#FF1940"/>
</svg>
