<svg width="654" height="658" viewBox="0 0 654 658" fill="none" xmlns="http://www.w3.org/2000/svg">
<path fill-rule="evenodd" clip-rule="evenodd" d="M315.917 20.5985C255.254 142.177 162.362 329.668 162.362 330.529C162.362 334.249 166.359 327.301 179.976 299.908C188.404 282.953 206.591 246.37 220.393 218.612C234.195 190.855 254.248 150.51 264.957 128.957C275.665 107.404 290.008 78.548 296.829 64.8325C303.651 51.117 313.114 32.0233 317.859 22.4011C322.603 12.7788 326.715 4.90697 326.996 4.90697C327.278 4.90697 353.844 57.9332 386.034 122.744C418.222 187.555 454.647 260.87 466.977 285.669C487.055 326.047 491.631 334.361 491.631 330.46C491.631 329.821 477.447 300.787 460.11 265.94C442.773 231.093 412.791 170.786 393.484 131.926C374.177 93.0651 352.652 49.781 345.651 35.739C338.651 21.6969 331.799 7.93744 330.427 5.16109C329.056 2.38474 327.529 0.114258 327.035 0.114258C326.541 0.114258 321.538 9.33274 315.917 20.5985ZM310.11 79.9231C301.245 97.7485 269.954 160.693 240.574 219.8C211.196 278.907 183.925 333.68 179.974 341.518C175.716 349.963 173.158 356.219 173.694 356.876C174.87 358.317 169.996 367.734 216.053 275.018C238.438 229.953 265.794 174.913 276.842 152.707C287.89 130.501 303.579 98.8636 311.707 82.4014C319.835 65.9404 326.715 52.4636 326.996 52.4529C327.278 52.4434 339.211 76.0649 353.516 104.946C378.362 155.113 455.176 309.744 470.715 340.878C477.323 354.118 480.382 358.73 480.382 355.453C480.382 354.845 471.368 336.231 460.351 314.089C435.078 263.294 410.381 213.631 364.463 121.268C344.503 81.1165 327.734 48.0972 327.2 47.8906C326.665 47.6839 318.975 62.0989 310.11 79.9231ZM362.396 251.43C361.813 254.35 360.948 255.345 358.385 256.041L355.117 256.928L358.148 257.665C360.475 258.231 361.405 259.32 362.156 262.363L363.135 266.326L364.238 262.37C365.076 259.369 366.084 258.234 368.411 257.671L371.478 256.928L368.272 256.055C365.853 255.396 364.832 254.267 364.103 251.444L363.14 247.706L362.396 251.43ZM284.048 257.304C284.048 258.339 284.594 258.974 285.263 258.715C287.159 257.981 287.473 255.425 285.667 255.425C284.776 255.425 284.048 256.27 284.048 257.304ZM392.675 266.335C393.307 268.537 395.509 268.901 395.509 266.804C395.509 265.77 394.781 264.925 393.89 264.925C392.999 264.925 392.452 265.559 392.675 266.335ZM332.565 274.528C331.512 276.509 333.881 278.779 335.292 277.14C336.473 275.77 335.734 273.237 334.154 273.237C333.658 273.237 332.944 273.818 332.565 274.528ZM282.304 276.246C261.447 282.771 246.09 301.109 240.611 326.033C238.85 334.039 238.534 345.674 240.078 345.674C240.64 345.674 241.108 343.938 241.117 341.815C241.286 305.24 270.697 273.695 301.176 277.399C307.222 278.134 309.86 276.887 305.95 275.145C303.016 273.838 287.726 274.55 282.304 276.246ZM359.473 276.275C352.533 278.228 345.098 282.391 345.89 283.88C346.199 284.46 349.268 283.604 352.711 281.979C388.144 265.259 425.454 293.26 428.087 338.549C428.448 344.77 429.202 349.83 429.765 349.83C431.461 349.83 431.495 338.309 429.827 328.942C423.047 290.88 391.497 267.26 359.473 276.275ZM241.693 280.065C241.291 281.535 240.304 282.737 239.498 282.737C238.692 282.737 238.032 283.271 238.032 283.924C238.032 284.578 238.692 285.112 239.498 285.112C240.304 285.112 241.288 286.305 241.687 287.765L242.412 290.416L243.257 287.765C243.722 286.305 244.807 285.112 245.669 285.112C246.53 285.112 247.236 284.578 247.236 283.924C247.236 283.271 246.616 282.737 245.858 282.737C245.1 282.737 244.017 281.535 243.453 280.065L242.424 277.393L241.693 280.065ZM428.835 282.292C428.456 283.438 428.77 285.06 429.546 285.96C431.501 288.231 434.548 286.593 434.165 283.477C433.772 280.284 429.791 279.398 428.835 282.292ZM286.909 294.53C267.453 301.753 255.464 321.475 255.428 346.315C255.378 381.071 281.922 418.768 325.974 446.499C335.512 452.504 334.585 452.561 345.774 445.283C399.259 410.489 423.868 365.747 411.421 325.928C400.711 291.662 364.107 281.478 339.515 305.923L335.235 310.176L329.837 305.496C315.731 293.265 300.674 289.419 286.909 294.53ZM313.62 298.35C319.898 300.853 327.481 306.186 331.068 310.62C334.206 314.499 333.999 314.552 341.514 307.947C380.586 273.61 425.955 316.034 407.923 370.047C398.962 396.887 378.168 420.923 345.857 441.789L334.856 448.893L328.114 444.614C272.037 409.03 246.432 361.13 262.678 322.207C271.946 300.002 293.018 290.134 313.62 298.35ZM531.511 312.341C520.263 314.952 515.327 325.124 518.524 339.101C519.425 343.042 520.407 350.008 520.706 354.58L521.249 362.893L519.764 355.174C515.591 333.486 513.012 328.505 506.63 329.809C498.77 331.416 494.363 342.121 496.681 353.973C499.492 368.349 499.835 372.831 499.087 385.455C498.662 392.639 498.415 399.453 498.539 400.595C498.991 404.765 497.058 402.535 495.963 397.627C494.802 392.41 491.629 380.906 488.922 372.096C487.133 366.273 487.186 366.291 480.934 369.404C473.194 373.257 471.603 380.163 475.428 393.316C478.28 403.123 479.039 430.767 476.711 440.079C475.895 443.345 474.756 449.442 474.18 453.627C473.477 458.742 472.292 462.398 470.566 464.78C466.99 469.716 463.248 478.63 461.521 486.331C459.971 493.243 451.07 507.253 431.685 533.297C416.059 554.29 412.387 564.953 412.67 588.516C412.913 608.829 411.227 621.306 405.569 641.066L401.399 655.628L342.091 655.321L282.782 655.015L278.135 645.515C270.718 630.351 267.935 617.526 265.112 585.491C262.991 561.415 254.432 545.931 224.09 511.274C212.805 498.385 204.287 487.73 204.287 486.503C204.287 482.926 197.918 470.145 193.397 464.652C190.642 461.305 188.746 457.619 187.993 454.145C187.355 451.203 185.884 446.032 184.725 442.655C180.138 429.296 178.429 406.716 180.856 391.559C183.03 377.991 179.062 369.767 170.031 369.122L165.941 368.83L164.644 375.955C163.931 379.874 162.619 387.088 161.727 391.986C159.666 403.315 158.44 407.071 158.341 402.356C158.302 400.548 157.299 393.868 156.111 387.513C153.958 375.999 153.932 373.198 155.803 354.979C157.048 342.87 151.331 333.799 142.457 333.799C137.916 333.799 135.136 338.411 134.274 347.377C132.448 366.378 131.783 368.82 132.314 354.58C133.055 334.675 133.042 334.466 130.693 329.12C128.157 323.347 123.156 320.099 115.548 319.283C108.825 318.561 108.829 318.553 108.023 333.205C107.664 339.736 106.744 353.096 105.978 362.893C105.213 372.689 104.624 388.625 104.671 398.306L104.756 415.908L99.1617 409.41C96.0838 405.837 90.2888 397.916 86.2824 391.809C73.2282 371.907 61.2119 366.716 51.386 376.735C48.4932 379.685 48.079 380.705 48.8357 383.016C50.7479 388.858 74.4696 429.445 83.3363 442.046C86.72 446.855 91.3503 455.089 93.6245 460.342C98.7537 472.187 108.218 488.345 116.846 499.989C120.452 504.856 124.643 511.535 126.159 514.833C127.674 518.131 132.452 526.44 136.774 533.297C141.097 540.155 147.778 551.11 151.62 557.641C155.462 564.172 164.245 578.169 171.139 588.745C178.032 599.322 185.353 611.469 187.411 615.74C190.966 623.123 203.265 653.534 203.265 654.943C203.265 655.31 158.35 655.609 103.454 655.609C16.5756 655.609 3.71771 655.386 4.21468 653.883C4.52861 652.933 16.1696 629.288 30.0838 601.337C98.7854 463.329 93.1132 475.11 90.8656 475.11C90.3492 475.11 87.2119 480.587 83.8926 487.282C80.5744 493.977 60.2395 534.886 38.703 578.192C17.1666 621.497 -0.248862 657.167 0.00269123 657.459C0.602942 658.156 653.398 658.147 653.998 657.449C654.435 656.942 575.209 496.491 569.535 486.392C564.548 477.515 565.945 485.067 571.212 495.456C582.705 518.13 649.301 652.442 649.804 653.961C650.266 655.358 637.298 655.609 564.343 655.609C517.04 655.609 478.337 655.319 478.337 654.965C478.337 654.61 480.443 646.996 483.016 638.044C488.961 617.354 493.139 607.088 504.624 584.953C509.706 575.156 516.756 560.728 520.289 552.891C523.823 545.054 528.934 534.311 531.646 529.02C534.359 523.729 538.388 514.828 540.601 509.241C542.813 503.654 547.371 494.336 550.73 488.535C557.766 476.383 564.88 460.389 568.609 448.335C570.034 443.732 573.934 434.915 577.277 428.741C587.64 409.606 605.136 369.92 605.136 365.548C605.136 360.659 599.303 357.127 592.338 357.798C583.189 358.679 578.16 363.193 570.741 377.184C564.153 389.61 554.022 405.46 553.246 404.559C552.995 404.268 552.385 398.18 551.89 391.03C551.395 383.88 549.875 372.219 548.511 365.118C545.769 350.832 544.286 341.781 542.215 326.674C539.913 309.866 540.245 310.313 531.511 312.341ZM538.4 329.346C540.728 337.347 542.927 346.493 543.288 349.672C543.648 352.851 545.053 361.134 546.409 368.078C547.787 375.141 549.169 387.044 549.544 395.09L550.214 409.475L546.366 416.714C544.25 420.696 540.042 427.276 537.015 431.335C529.308 441.671 530.112 444.342 537.949 434.439C544.928 425.621 547.856 424.51 554.154 428.292C555.865 429.32 557.568 429.809 557.938 429.378C559.131 427.986 554.12 424.279 549.935 423.458L545.868 422.66L549.844 415.933C557.351 403.229 565.263 393.019 567.108 393.654C573.007 395.684 574.713 395.839 574.273 394.306C574.024 393.438 572.468 392.221 570.817 391.601C569.164 390.98 567.656 390.321 567.466 390.134C566.845 389.528 575.543 372.987 578.628 368.907C583.851 362.001 592.593 358.521 598.086 361.164C601.125 362.625 601.25 362.947 600.751 368.084C600.123 374.549 585.813 407.674 575.465 426.614C571.662 433.577 567.736 442.127 566.743 445.614C563.372 457.444 556.361 473.469 548.921 486.345C544.844 493.401 540.251 502.718 538.713 507.048C537.176 511.376 533.831 518.92 531.281 523.812C528.731 528.702 523.756 539.116 520.227 546.954C516.697 554.791 508.772 571.013 502.615 583.002C489.447 608.647 487.94 612.37 480.927 636.609L475.603 655.015L439.733 655.327L403.864 655.639L407.444 644.046C413.431 624.662 414.891 614.727 414.915 593.185C414.948 564.847 417.436 557.207 433.838 535.079C439.163 527.894 446.138 518.008 449.339 513.11C461.428 494.604 461.194 494.831 468.388 494.697C475.331 494.569 479.178 492.746 484.967 486.844C489.335 482.39 488.665 479.737 484.26 484.043C478.955 489.226 473.674 491.735 468.071 491.735H462.836L463.534 487.876C465.053 479.492 470.156 469.364 475.809 463.512C481.195 457.938 482.363 454.796 478.054 457.474C476.094 458.692 476.028 458.503 476.703 453.573C477.094 450.723 478.114 445.586 478.97 442.157C480.458 436.2 480.683 435.923 484.034 435.923C485.963 435.923 487.54 435.446 487.54 434.863C487.54 433.577 485.016 432.361 482.344 432.361C480.602 432.361 480.384 431.461 480.397 424.345C480.415 413.392 481.049 411.196 484.321 410.757C488.005 410.262 487.753 408.101 483.961 407.662C481.077 407.327 480.778 406.796 478.954 398.756C475.696 384.393 475.635 378.392 478.71 374.821C480.141 373.158 481.754 371.799 482.294 371.799C483.988 371.799 493.218 395.671 495.642 406.324L497.96 416.505L495.875 424.73C494.729 429.253 493.056 436.689 492.158 441.253C491.062 446.818 489.634 450.63 487.819 452.831C485.893 455.165 485.559 456.111 486.66 456.111C490.226 456.111 492.765 450.444 496.299 434.597C498.247 425.856 500.096 417.769 500.406 416.626C500.798 415.187 502.033 414.548 504.421 414.548C506.319 414.548 508.126 414.07 508.437 413.486C509.126 412.19 506.655 410.986 503.307 410.986C500.495 410.986 500.194 407.061 501.503 387.533L502.159 377.736H505.587C508.025 377.736 509.014 377.196 509.014 375.866C509.014 374.467 508.175 374.092 505.691 374.381C502.552 374.746 502.353 374.537 502.103 370.611C501.957 368.325 500.88 361.913 499.71 356.361C497.231 344.608 498.144 338.872 503.182 334.531C511.441 327.411 517.629 346.726 521.399 391.392L522.601 405.642L518.399 415.333C516.087 420.664 513.41 428.662 512.447 433.106C511.191 438.919 509.861 442.078 507.715 444.354C503.888 448.413 505.782 449.991 509.786 446.08C511.966 443.949 513.276 440.974 514.62 435.088C519.232 414.914 523.806 407.423 531.511 407.423C535.554 407.423 536.624 407.018 536.624 405.489C536.624 403.836 535.768 403.666 530.744 404.326L524.864 405.099L524.775 401.808C524.726 399.998 524.318 392.856 523.868 385.938C522.639 367.05 523.456 362.67 528.503 361.092C534.189 359.315 533.763 357.066 527.932 358.081L523.331 358.882L523.313 353.762C523.303 350.946 522.425 344.749 521.36 339.991C518.098 325.405 522.516 315.963 533.095 314.906C533.685 314.848 536.073 321.345 538.4 329.346ZM111.287 326.14C110.791 328.067 110.347 328.751 110.299 327.662C110.2 325.45 111.291 321.596 111.837 322.229C112.03 322.454 111.782 324.214 111.287 326.14ZM124.527 325.357C129.586 329.441 131.124 335.345 129.787 345.548C129.136 350.515 128.607 356.999 128.61 359.955L128.617 365.33L124.527 364.877C121.987 364.597 120.436 364.922 120.436 365.737C120.436 366.459 121.729 367.049 123.309 367.049C129.588 367.049 131.304 373.386 131.908 398.815L132.196 410.988L126.231 410.987C121.913 410.986 120.384 411.396 120.693 412.47C120.949 413.361 122.419 413.799 124.37 413.566C133.065 412.528 138.12 418.388 144.938 437.409C148.077 446.164 151.761 451.361 154.831 451.361C157.103 451.361 156.421 449.716 153.29 447.648C151.159 446.24 149.632 443.483 147.653 437.47C146.16 432.934 142.647 425.008 139.846 419.856L134.752 410.49L134.687 399.753C134.529 373.892 134.927 365.659 136.943 353.03C139.413 337.555 141.299 334.554 146.661 337.563C152.815 341.015 153.811 345.71 152.591 365.501L151.845 377.611L148.667 377.97C144.576 378.433 144.939 380.529 149.243 381.299C152.516 381.883 152.594 382.048 154.35 391.986C155.331 397.538 156.154 404.851 156.179 408.239C156.226 414.332 156.191 414.402 152.903 414.77C151.076 414.975 149.81 415.676 150.091 416.33C150.372 416.983 152.042 417.348 153.803 417.144C156.907 416.781 157.103 417.048 160.333 426.05C162.166 431.153 164.481 438.083 165.48 441.447C168.411 451.324 171.886 457.169 174.888 457.272C176.515 457.328 175.543 454.568 173.173 452.403C171.807 451.156 170.135 448.14 169.456 445.701C168.778 443.262 166.47 436.121 164.326 429.831L160.431 418.396L161.914 406.929C162.73 400.624 164.534 392.216 165.922 388.247C167.312 384.278 168.741 379.221 169.098 377.008C169.657 373.549 170.158 372.986 172.676 372.986C178.372 372.986 179.705 379.819 177.486 397.644C176.307 407.118 176.116 407.613 173.395 408.245C169.641 409.117 169.73 410.986 173.525 410.986C176.281 410.986 176.593 411.443 177.616 416.982C179.684 428.184 179.183 432.313 175.655 433.133C171.437 434.112 171.804 435.703 176.353 436.149C180.034 436.509 180.179 436.713 182.946 445.423C186.529 456.703 186.557 457.54 183.325 456.599C179.343 455.437 180.249 458.129 184.734 460.787C192.321 465.281 204.235 485.146 201.352 488.495C198.196 492.159 183.738 488.415 179.808 482.916C178.151 480.598 176.678 480.505 176.678 482.717C176.678 487.973 190.765 493.944 199.555 492.413L204.026 491.635L213.615 503.405C218.89 509.878 226.6 518.584 230.751 522.751C238.454 530.488 251.714 549.811 255.916 559.422C259.039 566.568 262.574 580.632 262.574 585.914C262.574 588.26 262.994 592.744 263.509 595.879C264.023 599.013 265.008 606.387 265.698 612.265C267.239 625.401 269.425 632.965 275.38 645.753L279.982 655.639L243.135 655.326L206.288 655.015L199.741 638.39C190.188 614.131 188.012 609.95 172.505 586.055C164.766 574.13 155.24 558.851 151.335 552.101C147.431 545.352 141.178 535.124 137.439 529.373C133.699 523.622 129.481 516.263 128.065 513.017C126.65 509.772 121.846 502.113 117.392 495.996C108.069 483.192 102.02 472.694 95.3608 457.755C92.7737 451.952 89.3777 445.601 87.8142 443.642C83.6758 438.457 76.9637 427.872 66.9629 410.761C52.7031 386.361 50.391 379.47 55.551 376.74C63.9545 372.293 73.5575 377.316 82.598 390.888C89.6947 401.542 89.7377 401.714 85.6688 403.498C82.053 405.083 81.3505 408.158 84.9019 406.857C92.0507 404.237 91.8411 404.113 102.966 417.643L113.488 430.441L108.403 433.047C103.561 435.528 101.253 437.791 102.31 439.019C102.577 439.329 104.348 438.534 106.247 437.254C111.762 433.536 114.431 433.714 119.224 438.122C124.476 442.953 124.48 442.869 118.815 447.039C110.459 453.189 110.258 454.481 115.847 466.047C118.501 471.537 123.439 480.23 126.82 485.365C143.127 510.135 161.076 545.149 167.097 563.939C169.545 571.579 171.797 578.586 172.102 579.511C172.444 580.556 173.017 580.773 173.611 580.083C174.205 579.393 172.711 573.125 169.673 563.557C163.392 543.775 145.208 507.874 130.503 486.223C124.659 477.618 124.69 477.75 128.631 478.422C134.998 479.508 143.956 471.436 143.956 464.614C143.956 461.087 139.532 452.21 135.929 448.505C132.84 445.328 133.193 444.223 136.903 445.458C143.941 447.803 161.745 467.356 170.183 482.01C179.468 498.136 192.593 512.712 203.816 519.362C208.899 522.374 213.918 525.94 214.967 527.286C217.163 530.104 218.603 530.441 218.603 528.138C218.603 525.726 215.847 523.305 206.844 517.805C191.509 508.438 182.882 498.686 168.759 474.749C163.389 465.648 147.55 448.296 140.638 443.939C138.78 442.768 135.166 441.861 132.359 441.861C126.402 441.861 120.764 437.263 112.666 425.799L107.654 418.705L107.129 405.642C106.839 398.458 106.941 388.305 107.356 383.08C107.77 377.855 108.408 367.969 108.775 361.111C109.352 350.31 113.275 325.998 114.95 322.853C115.737 321.374 121.439 322.866 124.527 325.357ZM223.093 324.805C222.162 327.62 223.478 330.463 225.503 330.011C226.635 329.758 227.295 328.528 227.295 326.674C227.295 323.289 224.068 321.854 223.093 324.805ZM443.14 343.002C442.738 344.472 441.751 345.674 440.945 345.674C440.139 345.674 439.479 346.208 439.479 346.861C439.479 347.515 440.139 348.049 440.945 348.049C441.751 348.049 442.735 349.242 443.134 350.702L443.859 353.353L444.704 350.702C445.169 349.242 446.254 348.049 447.116 348.049C447.977 348.049 448.683 347.515 448.683 346.861C448.683 346.208 448.063 345.674 447.305 345.674C446.547 345.674 445.465 344.472 444.9 343.002L443.871 340.33L443.14 343.002ZM320.817 350.534C309.741 355.265 314.44 376.466 329.49 389.66L335.129 394.604L339.182 390.877C350.001 380.927 356.652 368.039 355.128 359.982C353.113 349.327 344.566 346.562 337.478 354.273L335.177 356.776L332.876 354.273C328.832 349.873 325.085 348.711 320.817 350.534ZM241.1 362.991C241.1 364.025 241.646 364.661 242.315 364.402C244.211 363.668 244.525 361.111 242.719 361.111C241.828 361.111 241.1 361.957 241.1 362.991ZM231.421 389.908C230.939 391.958 229.955 393.174 228.779 393.174C227.748 393.174 226.62 393.708 226.273 394.361C225.914 395.034 226.774 395.549 228.258 395.549C230.166 395.549 230.874 396.172 230.874 397.853C230.874 401.197 232.714 402.006 233.103 398.832C233.314 397.097 234.248 396.008 235.732 395.762C238.685 395.275 238.712 393.453 235.773 392.96C234.369 392.723 233.264 391.456 232.853 389.611L232.19 386.642L231.421 389.908ZM420.273 402.856C420.804 404.706 423.092 405.029 423.172 403.267C423.202 402.614 422.459 401.896 421.521 401.669C420.454 401.414 419.987 401.858 420.273 402.856ZM260.529 406.774C260.529 409.331 278.22 429.648 287.627 437.896C302.024 450.517 330.836 470.36 334.767 470.36C338.317 470.36 366.877 451.675 366.877 449.351C366.877 447.17 366.645 447.264 359.481 452.338C355.956 454.835 349.075 459.402 344.189 462.487L335.307 468.096L329.026 464.413C306.561 451.244 285.291 433.679 270.966 416.467C260.942 404.423 260.529 404.039 260.529 406.774ZM393.479 441.446C393.466 444.779 393.045 445.306 389.629 446.273L385.794 447.359L389.629 448.226C393.046 448.999 393.464 449.482 393.464 452.672C393.464 454.756 393.891 455.944 394.486 455.517C395.049 455.113 395.509 453.556 395.509 452.056C395.509 450.008 396.336 449.041 398.832 448.176L402.155 447.021L398.832 446.127C396.727 445.562 395.503 444.508 395.493 443.251C395.484 442.16 395.031 440.465 394.486 439.486C393.731 438.127 393.491 438.594 393.479 441.446ZM536.624 441.744C535.78 442.256 532.789 443.959 529.977 445.529C523.349 449.227 512.535 461.979 507.992 471.454C506.023 475.56 503.043 480.809 501.369 483.119C495.909 490.651 472.39 513.768 465.327 518.543C456.994 524.177 451.75 529.32 451.75 531.862C451.75 533.294 452.421 533.015 454.562 530.691C456.11 529.014 461.207 524.907 465.891 521.564C470.576 518.221 477.938 511.918 482.253 507.559C502.11 487.49 503.973 485.256 508.073 476.58C512.752 466.679 523.205 453.215 529.298 449.237L533.45 446.529L529.924 453.327C527.985 457.068 526.398 461.396 526.398 462.947C526.398 469.141 530.876 474.639 536.899 475.839L540.753 476.609L538.329 480.313C535.608 484.472 524.084 508.262 513.526 531.516C504.778 550.786 494.819 586.08 499.842 580.01C500.295 579.463 502.275 572.818 504.242 565.243C509.473 545.105 529.995 498.992 543.826 476.298C553.602 460.258 556.606 452.999 554.955 449.414C552.433 443.943 540.93 439.129 536.624 441.744ZM547.801 446.498C553.507 449.818 553.924 451.661 550.587 458.832C544.181 472.6 539.426 475.919 533.054 471.071C526.921 466.404 527.901 459.26 536.226 447.965C540.206 442.566 540.893 442.479 547.801 446.498ZM134.564 451.064C144.345 463.174 142.927 472.576 130.854 475.655C127.123 476.607 123.666 473.27 117.365 462.636C113.621 456.317 113.616 456.109 117.113 452.318C124.718 444.069 128.684 443.784 134.564 451.064ZM287.372 454.604C284.805 455.643 285.87 460.86 288.65 460.86C290.664 460.86 291.206 460.258 291.206 458.019C291.206 455.098 289.625 453.69 287.372 454.604ZM332.565 484.714C331.512 486.694 333.881 488.965 335.292 487.326C336.473 485.956 335.734 483.423 334.154 483.423C333.658 483.423 332.944 484.003 332.565 484.714ZM69.2218 564.344C50.9903 601.014 35.9257 631.74 35.7437 632.625C35.4676 633.968 47.989 634.234 111.363 634.234C161.655 634.234 186.969 633.835 186.297 633.055C185.648 632.301 158.829 631.765 112.073 631.571L38.8646 631.265L55.4395 598.016C105.34 497.913 105.455 497.673 103.222 497.673C102.754 497.673 87.4532 527.675 69.2218 564.344ZM509.628 498.668C508.73 500.355 517.342 505.985 520.822 505.985C523.801 505.985 522.184 504.016 516.939 501.255C513.986 499.702 511.268 498.232 510.898 497.989C510.528 497.746 509.956 498.051 509.628 498.668ZM152.647 501.92C150.398 503.48 148.097 504.959 147.535 505.208C146.972 505.457 146.884 506.12 147.339 506.685C148.257 507.82 159.294 501.558 159.294 499.902C159.294 498.205 157.003 498.901 152.647 501.92ZM551.963 503.235C551.963 503.789 566.167 532.824 583.529 567.755L615.096 631.265L552.852 631.572C512.536 631.77 490.608 632.292 490.608 633.056C490.608 633.823 512.924 634.234 554.519 634.234C592.713 634.234 618.43 633.795 618.43 633.143C618.43 631.201 554.334 503.142 553.128 502.676C552.487 502.427 551.963 502.679 551.963 503.235ZM278.935 633.047C278.935 633.826 300.069 634.234 340.29 634.234C380.511 634.234 401.644 633.826 401.644 633.047C401.644 632.268 380.511 631.859 340.29 631.859C300.069 631.859 278.935 632.268 278.935 633.047Z" fill="#FF1940"/>
</svg>
