<svg width="498" height="843" viewBox="0 0 498 843" fill="none" xmlns="http://www.w3.org/2000/svg">
<g filter="url(#filter0_d_979_223)">
<path fill-rule="evenodd" clip-rule="evenodd" d="M226.03 2.15495C226.374 3.34156 227.615 17.3923 228.786 33.3788C230.783 60.6252 230.631 68.5421 228.165 65.8189C227.197 64.7506 223.023 14.5102 223.079 4.61935C223.108 -0.143097 224.925 -1.66116 226.03 2.15495ZM246.512 20.3139C248.56 22.7807 247.196 25.8748 244.06 25.8748C242.661 25.8748 241.196 25.0356 240.803 24.0104C240.094 22.1658 242.264 18.4816 244.06 18.4816C244.572 18.4816 245.676 19.3059 246.512 20.3139ZM395.221 28.9553C396.328 31.8374 394.767 34.5001 391.97 34.5001C388.834 34.5001 387.47 31.4061 389.518 28.9392C391.474 26.582 394.314 26.5894 395.221 28.9553ZM110.768 29.978C112.862 32.5015 111.144 35.9369 108.012 35.4896C106.146 35.2234 105.395 34.2365 105.395 32.053C105.395 28.5375 108.558 27.3164 110.768 29.978ZM301.441 45.2819C297.825 61.6911 290.916 78.3048 290.891 70.6442C290.875 65.411 298.653 41.8933 300.4 41.8933C301.709 41.8933 301.988 42.8002 301.441 45.2819ZM163.238 66.3598C170.495 80.8259 171.058 82.5559 168.52 82.5559C165.999 82.5559 153.259 55.7777 154.967 54.0699C156.015 53.0225 158.108 56.1338 163.238 66.3598ZM367.318 76.5427C367.318 78.8753 349.742 101.141 348.318 100.611C346.117 99.7931 347.307 97.5431 355.97 86.1526C363.55 76.1854 367.318 72.9952 367.318 76.5427ZM264.297 89.7864C271.139 91.2675 269.822 94.12 262.686 93.276C255.603 92.4369 253.538 91.5669 254.59 89.864C255.367 88.6084 258.728 88.5813 264.297 89.7864ZM247.758 90.5651C247.758 91.9846 246.183 92.4134 240.979 92.4134C235.775 92.4134 234.2 91.9846 234.2 90.5651C234.2 89.1457 235.775 88.7169 240.979 88.7169C246.183 88.7169 247.758 89.1457 247.758 90.5651ZM226.804 91.1085C226.804 92.8114 225.594 93.3105 219.101 94.2815C212.784 95.2266 210.228 92.2767 216.019 90.7253C220.288 89.5819 226.804 89.8135 226.804 91.1085ZM284.427 93.95C286.631 94.656 288.433 96.0299 288.433 97.0021C288.433 98.8209 284.091 98.4106 277.648 95.9831C270.458 93.276 276.589 91.4363 284.427 93.95ZM206.367 94.7164C207.354 96.3134 204.08 98.1013 198.125 99.2189C195.006 99.8029 193.525 99.6304 193.525 98.6816C193.525 96.2345 205.097 92.6623 206.367 94.7164ZM109.028 107.88C117.212 115.612 119.697 118.656 118.665 119.687C117.122 121.23 94.9182 101.797 94.9182 98.9047C94.9182 95.6172 98.3719 97.8142 109.028 107.88ZM303.532 101.123C308.291 103.634 309.603 105.968 306.256 105.968C303.174 105.968 294.444 101.047 295.242 99.7598C296.304 98.0397 298.317 98.3711 303.532 101.123ZM186.595 100.684C188.191 102.278 187.213 103.529 182.481 105.943C177.19 108.64 173.803 109.139 173.803 107.221C173.803 105.674 185.572 99.66 186.595 100.684ZM321.405 110.454C326.541 113.549 327.639 115.064 325.645 116.297C324.076 117.266 314.317 110.96 314.317 108.978C314.317 106.568 315.297 106.772 321.405 110.454ZM453.409 110.347C453.172 111.567 448.592 115.102 443.122 118.287C407.67 138.931 391.859 147.862 390.762 147.862C385.882 147.862 393.481 142.494 420.414 126.915C455.358 106.702 453.981 107.395 453.409 110.347ZM168.1 110.535C169.584 112.019 168.837 113.056 163.969 116.277C158.656 119.793 156.547 120.315 156.547 118.117C156.547 115.664 166.619 109.054 168.1 110.535ZM377.655 114.013C380.151 116.507 378.863 119.522 375.3 119.522C372.018 119.522 370.861 117.39 372.458 114.285C373.823 111.633 375.202 111.561 377.655 114.013ZM338.672 122.944C342.752 126.352 343.924 129.409 341.126 129.344C339.196 129.298 331.573 122.458 331.573 120.771C331.573 118.58 334.532 119.485 338.672 122.944ZM151.047 123.294C152.021 124.87 144.542 133.076 142.131 133.076C139.019 133.076 140.578 129.544 145.363 125.755C148.533 123.245 150.493 122.397 151.047 123.294ZM42.7037 129.995C43.6812 132.539 42.3561 135.54 40.2583 135.54C37.7352 135.54 35.5881 132.477 36.4817 130.152C37.448 127.635 41.7559 127.526 42.7037 129.995ZM353.728 137.54C356.525 140.724 357.268 142.384 356.322 143.329C354.824 144.827 346.364 137.482 346.364 134.683C346.364 131.716 349.775 133.039 353.728 137.54ZM136.779 138.313C136.754 139.161 134.844 142.06 132.535 144.757C128.923 148.979 128.22 149.353 127.489 147.448C126.89 145.89 127.85 143.986 130.742 141.004C135.056 136.554 136.857 135.751 136.779 138.313ZM366.385 154.207C369.465 158.956 369.815 161.417 367.409 161.417C366.206 161.417 359.923 152.131 359.923 150.353C359.923 147.44 363.304 149.456 366.385 154.207ZM123.843 153.957C124.596 155.175 119.454 164.278 117.24 165.645C114.535 167.318 114.75 163.655 117.626 159.101C121.114 153.579 122.765 152.213 123.843 153.957ZM290.499 158.261C311.206 164.735 324.766 187.676 322.314 212.088C319.617 238.929 300.032 267.766 268.803 290.876L256.422 300.039L256.405 386.003L256.386 471.967L220.333 471.641L184.28 471.314V465.153V458.992L191.368 458.623C197.352 458.311 198.455 457.893 198.455 455.936C198.455 454.471 197.434 453.474 195.682 453.226C193.679 452.941 192.797 451.869 192.511 449.369C191.904 444.074 194.151 442.358 201.687 442.358H208.316V436.241V430.124L196.298 429.772L184.28 429.42L183.908 422.951L183.535 416.481H209.484H235.432V358.155V299.829L224.031 291.328C187.432 264.04 169.1 233.993 170.33 203.311C171.864 165.042 209.453 144.02 240.808 163.898L246.27 167.362L250.544 164.459C261.053 157.319 278.72 154.58 290.499 158.261ZM71.1911 164.896C79.0747 168.067 85.0576 171.178 85.0576 172.106C85.0576 174.424 84.5103 174.299 70.1964 168.732C56.4876 163.402 54.253 162.07 56.1536 160.368C56.8217 159.769 63.2779 161.713 71.1911 164.896ZM263.648 162.693C259.55 164.073 253.979 166.671 251.266 168.466C246.463 171.643 246.247 171.672 243.04 169.58C228.14 159.863 210.069 157.727 197.608 164.214C171.344 177.882 166.181 212.847 185.621 245.378C193.442 258.466 210.954 276.786 226.783 288.44L239.13 297.53V358.854V420.178H213.253H187.378L187.797 422.951C188.191 425.562 188.928 425.759 200.422 426.339L212.63 426.955L213.007 434.297C213.646 446.743 213.269 447.286 203.978 447.286C196.403 447.286 192.824 449.13 198.763 449.973C201.13 450.309 201.592 451.226 201.912 456.22L202.288 462.073H194.825C187.686 462.073 187.362 462.207 187.362 465.153V468.234H220.025H252.688V382.881V297.528L264.035 289.542C289.466 271.644 307.389 249.749 315.063 227.204C328.914 186.515 300.134 150.406 263.648 162.693ZM375.922 171.225C378.619 176.51 379.119 179.899 377.204 179.899C375.765 179.899 371.016 170.952 371.016 168.243C371.016 164.815 373.385 166.257 375.922 171.225ZM113.706 171.985C114.309 172.588 110.343 183.145 108.913 184.746C108.65 185.04 107.87 184.715 107.18 184.025C106.328 183.173 106.717 180.923 108.389 177.022C110.713 171.604 112.055 170.333 113.706 171.985ZM282.887 173.633C307.868 179.891 312.989 209.871 294.417 241.151C287.096 253.481 252.224 285.868 246.267 285.868C244.553 285.868 231.728 276.564 222.024 268.281C197.06 246.974 182.72 218.021 187.205 197.984C193.16 171.386 219.374 165.051 241.006 184.985L246.358 189.917L251.483 184.944C260.381 176.311 274.001 171.406 282.887 173.633ZM264.324 180.476C260.968 182.148 255.5 186.277 252.176 189.652L246.13 195.787L239.749 189.306C215.106 164.273 184.349 180.906 191.54 215.377C195.604 234.863 212.598 257.677 235.098 273.855C246.466 282.028 246.452 282.024 252.463 277.592C284.806 253.745 302.117 228.646 301.937 205.859C301.759 183.148 283.584 170.881 264.324 180.476ZM383.476 189.449C385.278 194.128 385.453 198.635 383.856 199.207C382.542 199.675 379.644 192.014 379.644 188.074C379.644 184.875 382.045 185.736 383.476 189.449ZM106.011 193.003C106.011 197.302 103.085 204.543 101.349 204.543C99.4085 204.543 99.713 200.886 102.193 194.378C103.608 190.668 106.011 189.801 106.011 193.003ZM493.028 200.215C495.076 202.682 493.712 205.776 490.576 205.776C489.177 205.776 487.712 204.937 487.318 203.911C486.61 202.067 488.78 198.382 490.576 198.382C491.088 198.382 492.192 199.207 493.028 200.215ZM441.888 199.612C443.275 201.856 441.902 202.411 429.234 204.717C414.575 207.387 411.691 207.49 411.691 205.339C411.691 204.176 415.68 203.018 424.887 201.507C432.145 200.317 438.745 199.089 439.554 198.778C440.362 198.469 441.412 198.843 441.888 199.612ZM388.734 209.626C390.019 216.046 389.654 219.33 387.656 219.33C386.639 219.33 385.801 218.36 385.793 217.173C385.786 215.987 385.436 212.938 385.016 210.396C384.03 204.434 387.55 203.706 388.734 209.626ZM101.329 212.064C102.411 215.308 100.416 224.875 98.6567 224.875C96.9237 224.875 96.5452 214.289 98.1833 211.638C99.035 210.262 100.809 210.502 101.329 212.064ZM390.737 233.5C390.737 238.702 390.308 240.277 388.888 240.277C387.468 240.277 387.04 238.702 387.04 233.5C387.04 228.298 387.468 226.723 388.888 226.723C390.308 226.723 390.737 228.298 390.737 233.5ZM99.6057 238.319C99.3999 242.122 98.6776 245.228 97.9997 245.221C96.1015 245.199 96.4552 232.577 98.3731 231.938C99.5934 231.531 99.8892 233.064 99.6057 238.319ZM72.7318 233.48C72.7318 235.106 68.2243 235.348 38.1173 235.348C10.9734 235.348 3.61246 235.016 4.0155 233.808C4.85861 231.275 72.7318 230.952 72.7318 233.48ZM389.892 248.595C391.149 250.773 388.833 260.608 387.064 260.608C385.321 260.608 384.97 251.254 386.612 248.597C387.349 247.405 389.205 247.404 389.892 248.595ZM101.543 256.45C102.656 262.013 102.49 266.153 101.154 266.153C99.4505 266.153 98.9513 264.943 97.98 258.452C96.9397 251.505 100.189 249.679 101.543 256.45ZM441.889 272.801C460.145 276.652 466.541 278.461 466.541 279.778C466.541 282.055 465.801 281.955 435.825 275.64C421.304 272.58 411.064 269.836 410.762 268.926C409.964 266.512 415.079 267.149 441.889 272.801ZM386.491 268.965C387.311 271.103 384.115 280.066 382.318 280.665C380.336 281.325 380.508 276.812 382.663 271.659C384.568 267.1 385.519 266.431 386.491 268.965ZM106.032 276.681C108.244 282.497 108.682 285.596 107.405 286.385C105.913 287.306 104.307 284.589 102.547 278.167C101.027 272.624 104.006 271.353 106.032 276.681ZM380.119 288.104C381.037 289.59 376.492 300.655 374.963 300.655C372.7 300.655 372.525 299.06 374.311 294.701C376.564 289.2 379.05 286.376 380.119 288.104ZM111.826 293.518C113.71 295.874 117.105 302.803 117.105 304.29C117.105 307.593 113.624 305.018 111.118 299.863C108.456 294.385 108.954 289.925 111.826 293.518ZM83.825 296.194C83.825 297.232 78.5151 299.877 70.2235 302.971C55.1885 308.583 54.2431 308.785 54.2431 306.387C54.2431 305.396 59.8378 302.658 68.1096 299.6C83.6192 293.867 83.825 293.822 83.825 296.194ZM371.016 308.378C371.016 309.237 369.573 312.064 367.809 314.659C363.395 321.152 361.081 318.83 365.048 311.888C367.83 307.018 371.016 305.145 371.016 308.378ZM124.392 315.488C128.647 321.359 129.043 322.834 126.366 322.834C123.656 322.834 117.601 313.22 119.265 311.556C120.205 310.617 121.685 311.751 124.392 315.488ZM359.171 323.847C360.852 326.567 352.207 336.561 350.044 334.399C349.336 333.691 350.691 331.169 353.58 327.815C356.711 324.182 358.565 322.866 359.171 323.847ZM397.516 330.357C413.054 340.557 415.73 342.701 414.483 343.948C413.073 345.358 387.656 329.78 387.656 327.507C387.656 324.818 390.199 325.553 397.516 330.357ZM39.8626 326.121C41.4243 327.681 40.6774 331.199 38.6165 331.99C35.9985 332.994 32.7087 329.82 33.6985 327.243C34.4479 325.291 38.3268 324.584 39.8626 326.121ZM137.853 332.619C142.185 338.01 142.496 338.853 140.149 338.853C138.155 338.853 130.663 331.265 130.663 329.244C130.663 326.288 134.035 327.87 137.853 332.619ZM345.666 339.951C346.862 341.888 336.443 350.375 334.839 348.771C333.79 347.722 334.678 346.305 338.359 343.157C343.621 338.657 344.599 338.227 345.666 339.951ZM152.541 346.265C159.383 352.487 157.091 354.827 149.685 349.18C145.471 345.966 144.064 342.518 146.995 342.585C147.841 342.605 150.337 344.261 152.541 346.265ZM116.848 350.133C116.241 352.001 74.1049 389.373 72.6073 389.373C68.7136 389.373 72.95 384.709 91.8294 368.206C112.086 350.5 118.157 346.114 116.848 350.133ZM329.684 353.573C330.459 354.828 322.115 361.033 319.651 361.033C316.233 361.033 317.136 358.662 321.707 355.638C326.962 352.161 328.556 351.748 329.684 353.573ZM169.08 357.983C174.315 361.408 175.572 363.02 173.84 364.09C172.186 365.112 161.252 358.629 161.809 356.956C162.571 354.674 164.422 354.936 169.08 357.983ZM311.852 364.745C311.852 366.962 300.939 371.563 299.38 370.004C298.363 368.988 299.322 367.951 303.028 366.061C308.487 363.278 311.852 362.775 311.852 364.745ZM186.745 367.332C189.457 368.574 192.23 369.813 192.908 370.085C193.689 370.4 193.623 371.134 192.731 372.084C191.144 373.775 179.966 369.617 179.966 367.335C179.966 365.062 181.788 365.061 186.745 367.332ZM432.652 367.818C434.017 369.462 433.963 370.1 432.327 371.737C429.683 374.379 426.199 372.911 426.704 369.368C427.186 365.993 430.435 365.147 432.652 367.818ZM292.609 371.899C294.04 374.213 282.349 379.24 279.552 377.511C277.816 376.439 280.752 373.721 284.454 372.974C286.305 372.6 288.731 371.941 289.849 371.509C290.967 371.076 292.209 371.251 292.609 371.899ZM367.201 398.799C386.572 424.425 390.164 430.036 387.196 430.036C385.35 430.036 343.781 374.544 344.615 373.193C345.971 371 347.477 372.706 367.201 398.799ZM209.24 374.733C213.153 375.862 214.319 377.475 212.18 378.797C210.55 379.804 200.559 376.584 199.987 374.868C199.395 373.093 203.361 373.037 209.24 374.733ZM272.138 378.504C271.844 379.398 269.784 380.31 267.561 380.527C264.641 380.813 263.666 380.47 264.053 379.295C264.347 378.4 266.407 377.489 268.631 377.272C271.551 376.986 272.526 377.328 272.138 378.504ZM226.575 378.351C229.936 379.699 229.059 381.989 225.191 381.961C221.588 381.936 218.891 380.118 219.94 378.421C220.938 376.806 222.675 376.787 226.575 378.351ZM166.876 387.902C167.557 389.002 154.686 414.73 152.906 415.831C149.603 417.871 151.039 412.67 157.135 400.518C163.514 387.806 165.348 385.43 166.876 387.902ZM290.811 401.816C295.774 413.449 299.422 434.162 295.869 430.549C293.646 428.288 286.945 401.457 288.274 400.129C289.151 399.253 289.942 399.778 290.811 401.816ZM239.13 444.104C239.13 459.398 238.85 462.073 237.248 462.073C234.736 462.073 235.07 427.483 237.589 426.646C238.775 426.252 239.13 430.276 239.13 444.104ZM51.3318 430.652C52.3092 433.195 50.9842 436.197 48.8863 436.197C46.3632 436.197 44.2161 433.133 45.1097 430.808C46.0761 428.291 50.3839 428.182 51.3318 430.652ZM106.681 476.69C112.855 480.455 116.878 486.198 117.808 492.576C118.834 499.612 123.204 514.299 124.027 513.478C124.349 513.155 123.478 508.561 122.092 503.269C117.523 485.831 119.279 479.789 129.311 478.444C139.73 477.046 147.94 484.909 150.318 498.563C152.264 509.734 155.646 518.193 163.431 531.363C167.102 537.573 170.106 543.192 170.106 543.848C170.106 544.504 170.357 544.79 170.664 544.483C170.971 544.177 170.14 536.459 168.818 527.335C165.179 502.219 165.031 502.735 175.877 502.735C180.533 502.735 182.112 503.402 185.513 506.802C189.674 510.961 190.533 513.304 194.193 530.46C195.371 535.984 198.004 543.297 200.182 547.094C202.318 550.822 205.133 556.367 206.436 559.416C207.74 562.466 211.183 567.562 214.088 570.74C216.993 573.919 221.004 579.097 223.002 582.247C225.819 586.687 228.317 588.767 234.129 591.516C239.034 593.834 244.497 597.966 249.93 603.465C258.499 612.138 275.144 621.478 300.77 631.997C319.949 639.868 341.751 654.956 351.525 667.12C354.742 671.125 361.632 682.769 366.836 692.996C384.137 726.998 386.657 729.903 426.328 761.544C446.266 777.446 451.323 782.444 447.48 782.444C446.063 782.444 413.263 756.476 397.346 742.751C391.151 737.41 383.802 729.789 381.012 725.814C375.647 718.168 360.762 690.992 359.276 686.129C354.598 670.822 325.571 646.169 300.143 635.909C294.719 633.72 282.392 628.036 272.749 623.278L255.216 614.626L251.141 617.142C242.675 622.374 224.636 622.758 220.514 617.793C218.317 615.145 219.883 614.539 225.148 616.001C234.706 618.654 248.134 616.776 250.835 612.408C253.44 608.193 232.703 593.149 222.221 591.649C216.158 590.783 213.74 588.042 218.047 586.915C221.539 586.002 221.584 586.117 213.809 576.496C206.266 567.162 206.353 567.211 202.323 570.033C200.144 571.56 199.145 571.685 198.043 570.571C196.947 569.465 197.046 568.866 198.455 568.049C204.953 564.285 204.942 564.372 200.204 555.104C194.599 544.138 194.318 543.872 190.289 545.708C185.149 548.049 183.542 545.281 188.443 542.527C191.375 540.879 192.211 539.69 191.727 537.853C191.37 536.497 190.457 532.062 189.697 527.995C186.695 511.915 182.368 505.254 175.969 506.858C173.277 507.533 173.192 507.997 173.358 521.248C173.61 541.323 176.77 556.263 182.083 562.497C184.394 565.208 189.928 571.752 194.381 577.038C200.009 583.72 203.557 586.867 206.013 587.358C210.328 588.221 210.761 591.454 206.562 591.454C202.578 591.454 198.705 587.959 185.513 572.459C174.051 558.993 174.099 559.021 166.716 561.309C162.391 562.648 163.211 558.787 167.64 556.952C172.041 555.13 171.966 555.652 168.762 549.201C161.068 533.71 154.632 523.699 152.849 524.452C145.72 527.462 142.534 525.255 149.105 521.859L152.756 519.971L150.493 514.694C149.248 511.791 147.532 505.279 146.678 500.223C144.22 485.651 133.092 476.802 126.453 484.139C122.897 488.066 126.555 509.401 135.11 534.644C143.929 560.665 143.786 560.411 153.727 567.783C158.33 571.196 165.3 577.618 169.217 582.056C174.596 588.146 177.389 590.32 180.618 590.925C184.892 591.727 186.017 593.08 183.634 594.553C180.117 596.726 174.367 593.18 162.938 581.788C146.822 565.725 145.574 565.087 136.348 568.201C132.386 569.538 128.863 570.351 128.52 570.006C126.88 568.368 129.767 565.75 134.875 564.243C137.982 563.325 140.524 562.121 140.524 561.565C140.524 559.33 131.599 537.647 127.355 529.575L122.826 520.96L116.884 521.747C113.221 522.234 110.942 522.064 110.942 521.305C110.942 519.663 115.083 517.522 118.256 517.522C119.656 517.522 120.802 517.382 120.801 517.214C120.801 517.045 119.736 514.106 118.436 510.684C117.134 507.262 115.426 500.908 114.637 496.562C112.418 484.33 106.482 478.091 97.0642 478.091C89.2768 478.091 88.8145 479.327 90.6843 495.157C91.594 502.85 93.2185 511.796 94.2958 515.039C95.373 518.282 98.0934 528.36 100.339 537.435C102.586 546.51 107.02 560.02 110.192 567.458L115.962 580.98L123.826 585.566C132.378 590.554 143.523 595.149 147.071 595.149C148.3 595.15 152.08 594.242 155.472 593.133C161.517 591.157 161.842 591.184 171.728 594.437C186.251 599.215 202.702 607.393 212.512 614.711C232.61 629.701 249.368 637.183 268.045 639.503C279.265 640.897 287.201 643.396 287.201 645.535C287.201 647.876 284.785 648.223 281.242 646.392C279.283 645.378 272.786 643.941 266.808 643.198C247.87 640.846 233.736 634.64 212.334 619.275C193.332 605.636 169.758 595.575 158.396 596.258C156.641 596.363 157.707 597.457 162.094 600.056C170.438 604.997 173.527 607.817 175.088 611.92C177.695 618.776 170.178 630.992 162.009 633.176C158.532 634.105 158.611 634.201 167.573 639.997C180.066 648.077 201.345 664.263 217.488 677.965C230.345 688.878 252.688 713.542 252.688 716.822C252.688 720.296 249.747 717.722 238.934 704.78C224.038 686.951 196.183 663.655 165.543 643.401C148.698 632.265 133.127 618.902 133.133 615.586C133.138 612.773 136.913 605.918 140.769 601.724C143.585 598.661 143.006 598.104 134.006 595.202C128.648 593.474 125.166 595.034 119.47 601.715C117.355 604.198 115.994 604.969 115.407 604.021C114.15 601.988 116.389 598.385 121.547 594.134L126.006 590.459L109.762 582.33C91.4991 573.192 89.8746 572.868 85.5827 577.498C83.2544 580.009 82.187 580.451 81.0899 579.355C79.993 578.258 80.4773 577.053 83.1286 574.287L86.607 570.658L76.2792 563.987C60.2704 553.645 53.1412 552.199 43.103 557.26C35.4117 561.138 35.1837 564.627 42.1675 571.595C48.9714 578.382 78.4904 600.139 94.3427 610.049C101.1 614.273 110.181 621.029 114.526 625.062C127.889 637.469 139.741 646.285 153.955 654.389C161.448 658.661 171.06 665.197 175.313 668.914C179.567 672.631 187.498 678.548 192.939 682.063C198.38 685.579 207.793 692.195 213.858 696.768C219.923 701.342 237.104 713.131 252.038 722.965C278.646 740.49 279.634 741.294 301.45 763.186C324.956 786.772 363.621 830.58 363.621 833.627C363.621 837.332 361.068 834.82 339.497 809.885C327.343 795.837 308.524 775.406 297.678 764.484C278.847 745.521 276.787 743.855 252.072 727.632C237.836 718.287 220.087 706.121 212.63 700.594C205.172 695.068 194.184 687.37 188.21 683.489C182.235 679.606 174.747 674.016 171.57 671.065C168.392 668.115 160.245 662.525 153.466 658.645C138.279 649.952 125.337 640.41 114.023 629.562C109.278 625.012 100.126 618.128 93.6857 614.264C87.2454 610.401 78.0935 604.358 73.3481 600.837C68.6027 597.316 59.1734 590.341 52.3943 585.337C37.5096 574.349 30.8241 568.216 30.8241 565.549C30.8241 561.982 39.2821 553.419 44.1348 552.071C55.8134 548.828 62.6087 550.635 79.1536 561.38C89.723 568.245 109.709 578.61 109.709 577.228C109.709 576.947 107.486 571.138 104.769 564.319C100.477 553.551 96.7449 540.48 89.1189 509.512C88.1181 505.446 86.1977 499.347 84.853 495.958C83.5082 492.57 82.1093 487.025 81.7444 483.636L81.0801 477.475L87.7274 475.935C96.9372 473.801 102.29 474.014 106.681 476.69ZM301.549 504.592C301.978 505.71 301.519 507.432 300.53 508.421C298.063 510.886 294.364 509.292 294.839 505.967C295.306 502.692 300.418 501.645 301.549 504.592ZM145.754 601.864C143.78 603.525 140.859 607.343 139.264 610.351L136.362 615.818L139.984 619.008C141.976 620.763 146.961 623.963 151.065 626.12C159.968 630.8 163.54 630.398 168.281 624.184C174.829 615.603 171.964 609.208 158.581 602.522C149.721 598.096 150.203 598.121 145.754 601.864ZM205.85 642.568C205.85 645.777 194.943 656.207 193.303 654.567C192.219 653.484 193.191 651.67 197.321 647.065C202.88 640.868 205.85 639.302 205.85 642.568Z" fill="#FF1940"/>
</g>
<defs>
<filter id="filter0_d_979_223" x="0" y="0" width="498" height="843" filterUnits="userSpaceOnUse" color-interpolation-filters="sRGB">
<feFlood flood-opacity="0" result="BackgroundImageFix"/>
<feColorMatrix in="SourceAlpha" type="matrix" values="0 0 0 0 0 0 0 0 0 0 0 0 0 0 0 0 0 0 127 0" result="hardAlpha"/>
<feOffset dy="4"/>
<feGaussianBlur stdDeviation="2"/>
<feComposite in2="hardAlpha" operator="out"/>
<feColorMatrix type="matrix" values="0 0 0 0 0 0 0 0 0 0 0 0 0 0 0 0 0 0 0.25 0"/>
<feBlend mode="normal" in2="BackgroundImageFix" result="effect1_dropShadow_979_223"/>
<feBlend mode="normal" in="SourceGraphic" in2="effect1_dropShadow_979_223" result="shape"/>
</filter>
</defs>
</svg>
