<svg width="520" height="628" viewBox="0 0 520 628" fill="none" xmlns="http://www.w3.org/2000/svg">
<path fill-rule="evenodd" clip-rule="evenodd" d="M318.574 11.2679C318.574 17.465 318.275 24.3616 317.911 26.5923C317.266 30.5298 317.328 30.4902 320.014 25.2402C323.413 18.5984 328.315 17.6321 338.92 21.5155C354.3 27.1488 361.315 31.9421 366.737 40.5249C371.968 48.8073 377.813 61.8144 379.257 68.3913L380.087 72.1629L368.656 64.9634C339.61 46.6679 297.51 27.9854 277.842 24.6633C273.103 23.8628 272.892 23.9602 272.892 26.9373V30.0478H136.446H0V329.024V628H245.242H490.484V532.609V437.218L494.541 431.648C499.039 425.474 498.228 429.158 508.464 368.387C525.014 270.121 525.533 278.812 498.28 198.172L490.484 175.103V102.575V30.0478H442.341H394.198L385.539 25.3147C367.192 15.2859 328.057 0 320.726 0C318.811 0 318.574 1.24278 318.574 11.2679ZM337.417 7.63817C353.793 13.2295 364.529 17.9398 384.092 28.114C409.927 41.5514 447.331 65.4959 449.069 69.711C449.478 70.7026 456.764 90.9849 465.26 114.783C473.757 138.581 483.1 164.542 486.025 172.475C501.349 214.045 513.56 253.387 516.439 270.461C518.469 282.501 518.472 283.858 516.499 298.706C514.399 314.501 503.654 380.526 498.492 409.35L495.675 425.075L485.909 437.723C457.653 474.317 418.302 514.035 386.497 538.062C372.215 548.85 354.594 560.206 353.337 559.43C352.731 559.055 352.235 559.302 352.235 559.979C352.235 560.656 351.104 561.814 349.722 562.553C348.34 563.294 351.068 559.13 355.782 553.302C383.965 518.471 408.701 459.505 431.586 372.593C434.981 359.703 440.925 337.527 444.793 323.315C458.036 274.667 457.244 278.619 456.454 265.171C454.846 237.757 443.868 194.714 414.571 100.961C404.26 67.9646 402.579 64.7014 388.919 51.1378C382.959 45.2196 378.622 40.6824 379.284 41.0538C403.702 54.7676 420.199 65.7916 426.944 72.9033C432.191 78.4345 435.123 86.0282 456.116 148.436C464.344 172.895 471.115 192.424 471.163 191.834C471.456 188.206 436.001 80.0018 432.828 74.8432C427.411 66.0356 401.816 49.3987 364.858 30.662C340.641 18.3857 331.278 15.0684 324.606 16.4025C320.579 17.2066 320.355 16.5552 321.75 8.11292C322.658 2.62498 322.725 2.62258 337.417 7.63817ZM16.5154 36.3579C19.6975 39.6608 20.0485 40.5766 18.7826 42.2869C17.429 44.1138 16.7402 43.817 11.6478 39.2076C5.09117 33.275 4.81586 32.4517 9.38169 32.4517C11.6105 32.4517 14.0269 33.7738 16.5154 36.3579ZM27.6126 33.3531C27.5909 33.8483 26.3082 35.174 24.7598 36.2978C22.0562 38.2617 21.8374 38.2269 19.1782 35.3964L16.4108 32.4517H22.0309C25.1217 32.4517 27.633 32.8579 27.6126 33.3531ZM272.987 41.1655C273.07 48.8073 273.237 49.4359 274.345 46.2737C277.489 37.3074 282.729 36.3735 298.203 42.0201C317.542 49.0753 333.144 59.4527 337.707 68.2928C347.707 87.6676 361.583 125.766 367.837 151.023L371.751 166.83L365.402 178.967C361.911 185.643 358.736 191.081 358.349 191.053C356.851 190.944 346.906 181.495 348.286 181.493C349.09 181.49 351.625 183.138 353.92 185.152L358.094 188.816L358.471 184.251C359.521 171.517 356.653 167.205 342.154 159.731C328.721 152.805 321.813 147.551 317.414 140.91C313.124 134.435 309.8 124.161 310.422 119.304C310.748 116.768 311.219 117.687 312.422 123.196C315.809 138.724 321.911 146.697 336.506 154.666C340.859 157.043 346.855 160.341 349.831 161.994L355.24 165L351.634 161.101C349.65 158.957 345.251 155.412 341.858 153.225C335.392 149.058 328.852 141.649 329.615 139.36C329.861 138.622 331.399 140.071 333.034 142.581C335.683 146.649 344.159 153.701 346.525 153.805C349.048 153.917 346.724 150.393 341.97 146.896C339.019 144.726 336.607 142.363 336.607 141.643C336.607 140.923 339.041 142.328 342.016 144.766C346.438 148.388 347.426 148.797 347.426 147.002C347.426 145.796 346.291 144.1 344.905 143.233C343.518 142.368 342.693 141.349 343.072 140.97C343.452 140.591 344.587 140.965 345.594 141.802C349.125 144.732 347.637 138.468 343.306 132.174C341.04 128.881 337.752 121.727 336 116.278C332.285 104.73 327.361 96.4728 321.175 91.4188C318.753 89.4392 317.35 87.8022 318.057 87.7806C323.01 87.6243 337.809 108.504 337.809 115.649C337.809 118.017 346.116 134.614 347.301 134.614C350.816 134.614 339.961 105.24 334.891 101.034C332.834 99.3262 332.379 97.355 334.042 97.355C335.765 97.355 341.436 106.744 344.466 114.615C347.967 123.705 348.24 121.278 345.023 109.671C340.525 93.438 331.851 83.4513 317.556 78.0415C309.72 75.0775 295.929 75.3179 288.52 78.5499L284.312 80.3852L288.219 81.7758C290.369 82.5414 292.127 83.7133 292.127 84.3804C292.127 85.0594 291.201 85.2169 290.023 84.7385C284.405 82.4561 280.734 81.8227 279.612 82.9441C278.827 83.7289 279.525 84.134 281.668 84.134C283.453 84.134 284.914 84.7445 284.914 85.4897C284.914 86.3816 283.374 86.6003 280.405 86.1291C277.927 85.7349 275.166 85.8659 274.273 86.4212C273.192 87.0931 274.59 87.7217 278.453 88.301C284.683 89.2349 294.863 93.8106 292.5 94.6159C291.714 94.8839 289.727 94.2228 288.085 93.1471C284.059 90.5089 272.312 89.3322 269.909 91.3262C267.356 93.4452 267.632 94.6976 270.788 95.3046C273.147 95.7589 273.077 95.8466 270.243 95.9896C267.583 96.1231 266.535 97.1892 264.465 101.862C260.966 109.758 260.749 114.541 263.41 124.961C265.606 133.553 265.263 143.648 262.63 147.905C262.245 148.528 263.525 149.037 265.475 149.037C268.54 149.037 269.119 149.578 269.771 153.052C270.186 155.26 271.823 158.286 273.41 159.776C274.997 161.267 276.62 163.779 277.017 165.359C277.945 169.06 282.491 170.216 288.746 168.342C294.644 166.576 294.36 166.28 295.288 175.161C296.517 186.916 295.782 188.27 287.63 189.268C272.726 191.093 267.355 197.202 266.077 213.78C265.333 223.419 265.255 223.609 259.426 229.855C252.56 237.216 248.216 244.189 247.068 249.698C246.087 254.398 246.644 254.356 239.585 250.258C236.415 248.416 227.018 243.526 218.703 239.389C209.146 234.634 200.081 229.014 194.059 224.109C183.145 215.221 177.91 212.409 171.974 212.251C166.522 212.104 165.685 215.336 170.008 219.848L173.137 223.114L170.3 225.778C167.653 228.264 167.349 228.306 165.779 226.401C159.609 218.911 150.231 215.533 147.867 219.95C147.043 221.489 145.349 222.354 143.162 222.354C139.343 222.354 136.65 224.792 137.687 227.31C138.555 229.419 147 236.057 155.628 241.413L162.327 245.57L173.801 241.617L185.273 237.663L189.11 241.127C191.22 243.031 202.955 254.342 215.188 266.26C250.695 300.858 254.963 303.224 265.954 294.392C268.535 292.319 270.805 290.811 271 291.043C271.411 291.535 274.094 315.18 274.094 318.314C274.094 319.882 271.912 321.141 265.744 323.126C261.152 324.606 252.978 327.853 247.581 330.346L237.768 334.876L231.587 332.74C228.188 331.566 224.441 330.588 223.26 330.566C222.08 330.544 219.704 329.603 217.983 328.475C215.902 327.112 210.974 326.141 203.298 325.579C196.944 325.115 187.108 324.342 181.439 323.862C165.156 322.481 155.978 326.781 150.814 338.21C146.589 347.562 146.274 353.269 148.459 380.906C150.694 409.157 150.71 408.99 143.605 430.886C135.885 454.673 124.623 480.107 112.987 500.026C104.381 514.758 109.42 513.274 67.0208 513.565C46.6898 513.704 30.0554 514.197 30.0542 514.66C30.0542 515.122 46.5539 515.283 66.7203 515.016C86.8866 514.75 103.386 514.87 103.386 515.282C103.386 518.174 98.8542 520.447 92.6811 520.651L85.9549 520.873L92.3168 521.317L98.6799 521.759L93.8351 527.843C76.4722 549.645 60.0939 562.496 49.6723 562.496C43.4295 562.496 37.4752 565.456 36.5843 569.004C35.5841 572.991 39.2399 579.308 43.9392 581.714C45.8903 582.712 47.7729 583.911 48.1252 584.378C49.2131 585.821 62.7555 588.939 67.8743 588.923C74.8842 588.903 83.7586 586.262 91.4825 581.899C95.184 579.808 102.758 576.968 108.313 575.587C113.868 574.207 119.61 572.321 121.071 571.396C126.183 568.16 127.245 556.876 123.613 544.371C122.572 540.785 122.77 539.272 124.804 535.284C130.05 525.003 159.086 488.58 159.493 491.771C159.606 492.66 160.359 504.634 161.167 518.384C162.832 546.727 162.576 548.088 155.158 550.311C150.166 551.806 140.654 560.645 140.654 563.788C140.654 567.985 143.745 568.877 155.402 568.039C161.506 567.6 177.861 566.926 191.746 566.541C205.631 566.157 217.217 565.63 217.492 565.371C217.768 565.111 209.211 564.9 198.477 564.9H178.959L181.308 561.594C182.601 559.776 184.857 553.839 186.323 548.402C190.221 533.941 195.864 527.726 205.372 527.424L212.182 527.208L206.472 526.757C199.932 526.241 199.94 526.251 203.2 521.842C209.423 513.426 207.097 504.977 195.865 495.21L188.74 489.014V481.948C188.74 477.757 190.696 466.947 193.549 455.378C197.599 438.946 198.358 433.902 198.358 423.377V410.881L205.27 411.719C209.072 412.181 212.275 412.628 212.389 412.714C212.503 412.8 211.067 422.062 209.197 433.296C207.328 444.53 205.613 456.697 205.384 460.333C204.972 466.911 204.987 466.945 208.576 467.261C210.56 467.435 213.85 467.849 215.889 468.179L219.594 468.78L218.554 476.275C216.987 487.56 216.786 510.484 218.24 511.94C218.927 512.627 223.655 513.331 228.747 513.504C233.839 513.676 238.011 514.197 238.017 514.66C238.024 515.123 236.136 520.732 233.821 527.123C231.507 533.515 229.614 539.135 229.614 539.612C229.614 540.867 239.06 543.513 240.459 542.648C241.105 542.248 241.636 542.457 241.636 543.114C241.636 545.539 246.572 545.948 248.425 543.675C250.142 541.569 250.201 541.593 249.655 544.151C249.141 546.562 249.968 547.118 257.681 549.559L266.28 552.279L252.455 552.896L238.63 553.514L257.508 554.098C271.355 554.527 276.8 555.123 277.945 556.336C279.251 557.722 278.968 557.895 276.198 557.404C274.379 557.082 272.892 557.212 272.892 557.692C272.892 558.17 280.736 558.652 290.323 558.761L307.755 558.96L307.636 552.014C307.521 545.305 305.864 530.52 305.52 533.128C305.426 533.832 303.186 535.624 300.542 537.111C297.241 538.966 295.727 540.636 295.715 542.441C295.704 543.885 295.172 545.879 294.531 546.871C293.582 548.337 293.362 548.183 293.347 546.047C293.313 541.258 295.488 537.638 299.996 534.979C305.872 531.512 304.647 530.647 297.054 532.902C293.682 533.903 290.924 534.27 290.924 533.718C290.924 533.167 294.482 531.752 298.83 530.575L306.734 528.436L312.625 516.7L318.515 504.964L314.496 502.481C311.679 500.739 308.451 499.996 303.706 499.996C299.982 499.996 296.935 499.455 296.935 498.794C296.935 498.131 300.062 497.592 303.911 497.592C309.804 497.592 311.665 498.164 315.898 501.276L320.91 504.961L314.47 517.202L308.03 529.443L309.027 542.063C309.575 549.004 310.054 555.586 310.092 556.688C310.147 558.323 311.712 558.766 318.577 559.092C323.206 559.312 326.993 559.086 326.992 558.589C326.991 558.093 323.794 557.688 319.889 557.688C312.799 557.688 312.792 557.684 314.165 554.775C314.942 553.127 315.877 552.406 316.314 553.113C316.794 553.891 318.009 553.445 319.516 551.939C320.851 550.604 323.118 549.139 324.554 548.683C326.845 547.956 327.067 547.282 326.37 543.157C325.851 540.086 326.029 538.457 326.884 538.457C327.602 538.457 328.192 540.061 328.192 542.021C328.192 547.312 331.624 548.657 344.708 548.497L355.815 548.361L352.349 552.724C347.923 558.296 334.612 571.034 330.258 573.867C328.419 575.064 327.112 576.24 327.354 576.481C328.243 577.372 356.755 562.076 368.284 554.525C374.83 550.237 380.921 547.011 381.823 547.356C382.723 547.703 402.622 548.359 426.044 548.815L468.63 549.646L466.894 541.347C465.939 536.783 464.631 532.867 463.988 532.646C463.345 532.424 463.109 531.774 463.464 531.2C463.819 530.626 461.376 527.997 458.036 525.358L451.963 520.558L442.473 525.001C433.557 529.175 432.935 529.715 432.175 533.95C431.452 537.98 430.984 538.457 427.75 538.457C425.762 538.457 422.533 539.598 420.574 540.992C415.508 544.599 415.041 543.041 420.044 539.225C422.332 537.481 425.593 536.054 427.29 536.054C429.8 536.054 430.376 535.479 430.376 532.975V529.899L421.961 530.728C416.595 531.255 413.545 531.121 413.545 530.354C413.545 529.692 417.737 528.884 422.862 528.558C430.344 528.082 433.92 527.119 441.02 523.664L449.859 519.363L445.598 517.583C441.263 515.771 440.986 515.229 438.24 503.115L437.449 499.622L431.768 505.218C428.642 508.295 425.614 510.813 425.038 510.813C424.462 510.813 431.8 502.835 441.347 493.085C456.498 477.609 470.854 461.545 484.109 445.232L487.954 440.501L488.016 476.859L488.08 513.217L469.747 513.484L451.414 513.751L469.747 514.116C487.075 514.461 488.08 514.611 488.08 516.854C488.08 519.016 487.148 519.248 477.561 519.474L467.042 519.721L477.561 520.122L488.08 520.522V541.509V562.496L468.545 562.764L449.009 563.033L468.545 563.395C484.798 563.696 488.08 564.055 488.08 565.531C488.08 566.945 486.138 567.303 478.462 567.303C473.173 567.303 468.845 567.747 468.845 568.288C468.845 568.829 473.037 569.235 478.162 569.189L487.479 569.106L487.822 582.267L488.166 595.427L473.415 610.212L458.663 624.995H245.675H32.6869L17.5709 609.671L2.45603 594.346L23.768 592.958L45.0813 591.569L24.3439 592.175C4.78102 592.747 3.6005 592.655 3.50433 590.559C3.38772 588.021 3.41054 520.902 3.52836 517.772C3.59448 516.042 5.16571 515.655 13.5244 515.313L23.4423 514.908L13.2238 514.663L3.00542 514.419L3.14365 288.339L3.28193 62.2591L18.1527 47.3554L33.0235 32.4517H152.958H272.892L272.987 41.1655ZM472.828 47.7448L488.08 63.0392V115.253C488.08 143.97 487.834 167.221 487.535 166.922C486.614 166.002 455.511 79.5655 452.637 69.9442C451.493 66.1101 428.416 49.6619 406.032 36.7257C402.892 34.9108 400.322 33.2065 400.322 32.9384C400.322 32.6704 413.204 32.4517 428.949 32.4517H457.575L472.828 47.7448ZM473.654 32.8435C473.654 33.0586 472.399 34.4132 470.865 35.8543L468.074 38.4745L465.245 35.4637L462.415 32.4517H468.035C471.126 32.4517 473.654 32.6284 473.654 32.8435ZM484.473 33.3074C484.473 33.7786 482.206 36.4733 479.435 39.2954C474.679 44.1403 474.274 44.317 472.193 42.4336C470.072 40.5153 470.135 40.2881 473.86 36.4456C477.38 32.8146 484.473 30.7173 484.473 33.3074ZM484.339 46.4119C480.64 50.228 480.3 50.3398 478.203 48.4419C476.068 46.5105 476.204 46.2076 481.73 40.5826L487.479 34.7329L487.867 38.5526C488.17 41.5369 487.398 43.2569 484.339 46.4119ZM9.29276 41.1655C13.5965 45.5754 14.0689 46.5561 12.7454 48.3374C11.3424 50.2268 10.8772 50.0537 7.2166 46.2773C3.62693 42.5742 1.21778 36.0574 3.43818 36.0574C3.91664 36.0574 6.55182 38.3555 9.29276 41.1655ZM380.486 47.2785C398.236 61.8709 400.621 66.2194 413.603 107.669C441.355 196.275 453.335 245.004 453.469 269.83C453.523 279.86 452.7 283.662 442.149 322.113C435.889 344.919 429.218 369.528 427.323 376.8C423.772 390.424 422.462 390.775 421.777 378.286C421.676 376.459 421.329 375.227 421.007 375.549C420.246 376.311 416.184 368.757 416.509 367.185C416.646 366.524 416.535 366.375 416.263 366.853C415.508 368.185 410.037 364.194 410.415 362.587C410.598 361.811 410.52 361.58 410.243 362.077C409.192 363.955 401.224 363.089 401.959 361.175C402.339 360.184 402.126 359.372 401.486 359.372C400.846 359.372 400.322 360.164 400.322 361.133C400.322 362.807 395.817 366.086 394.847 365.117C394.594 364.864 396.472 359.276 399.021 352.7C408.822 327.404 425.567 277.403 425.567 273.431C425.567 267.434 420.586 244.765 412.958 216.039C409.314 202.319 406.332 190.737 406.332 190.298C406.332 189.86 406.058 189.776 405.723 190.112C405.386 190.447 408.06 202.842 411.663 217.656C424.364 269.88 424.456 271.563 415.982 296.272C406.465 324.028 395.215 354.668 394.723 354.176C394.48 353.932 394.709 347.97 395.23 340.924C395.752 333.878 395.894 325.276 395.545 321.808C395.025 316.62 395.94 311.987 400.707 295.671C408.227 269.944 407.843 266.494 392.837 224.995C388.082 211.845 387.399 212.974 391.845 226.636C402.603 259.693 404.488 270.023 401.704 280.647C394.596 307.764 393.855 309.279 392.409 299.64C391.906 296.289 390.41 292.75 388.729 290.938C387.171 289.257 385.833 286.525 385.756 284.866C385.663 282.852 385.435 282.544 385.07 283.939C384.368 286.619 377.995 283.756 377.11 280.363C376.639 278.557 376.537 278.599 376.415 280.647C376.309 282.433 375.33 283.117 372.602 283.308C369.285 283.541 369.024 283.309 369.899 280.904C370.432 279.44 370.755 273.375 370.618 267.426C370.481 261.476 370.207 247.144 370.01 235.575C369.623 212.885 368.762 208.558 362.886 199.746L359.432 194.566L362.886 189.53C381.636 162.198 390.857 118.664 385.337 83.533C384.194 76.2614 382.489 68.4598 381.546 66.1954L379.832 62.0788L382.49 64.3925L385.148 66.7062L382.639 63.0861C378.15 56.6126 369.167 38.2569 371.258 39.8314C372.366 40.6656 376.519 44.0177 380.486 47.2785ZM488.08 52.4924V58.1113L485.067 55.282L482.056 52.4527L484.676 49.6631C488.112 46.0069 488.08 45.9792 488.08 52.4924ZM6.32943 50.1799C8.05694 52.0994 8.03048 52.5188 6.02166 54.9876C3.10159 58.5777 2.94653 58.4791 2.72293 52.8842C2.51375 47.633 3.42379 46.9516 6.32943 50.1799ZM117.913 53.8974C117.11 55.3986 115.503 57.0008 114.342 57.4587C112.493 58.1895 112.727 58.7832 116.223 62.2327C118.835 64.8096 120.217 65.5476 120.217 64.3637C120.217 63.3685 121.629 61.6305 123.354 60.4995C126.447 58.4731 126.456 58.4298 123.928 57.4947C122.516 56.9731 120.915 55.3373 120.368 53.859L119.373 51.1703L117.913 53.8974ZM249.127 56.49C248.302 57.8121 248.042 58.8938 248.549 58.8938C249.057 58.8938 250.148 57.8121 250.974 56.49C251.8 55.1678 252.06 54.0861 251.552 54.0861C251.045 54.0861 249.953 55.1678 249.127 56.49ZM120.99 57.0909C122.592 58.6931 122.583 59.1041 120.903 60.782C118.21 63.4755 114.328 60.0067 116.845 57.157C118.817 54.9226 118.82 54.9227 120.99 57.0909ZM383.491 56.2327C383.491 56.8301 384.651 58.3493 386.071 59.6089C388.632 61.8829 388.64 61.8805 387.266 59.2616C385.733 56.3397 383.491 54.5404 383.491 56.2327ZM298.223 57.639C296.232 58.8697 297.391 62.4995 299.775 62.4995C300.716 62.4995 301.782 61.7279 302.145 60.7844C303.017 58.5116 300.316 56.3457 298.223 57.639ZM20.8324 59.5957C19.9716 61.8397 22.1078 64.2964 23.9387 63.1654C25.8478 61.9863 25.5352 59.2616 23.3966 58.4418C22.3254 58.0308 21.2471 58.5164 20.8324 59.5957ZM84.7287 66.1437C84.2623 66.8985 84.4462 68.0824 85.1375 68.7735C86.7532 70.3889 90.5196 68.9802 89.862 67.0055C89.1936 64.9971 85.7914 64.425 84.7287 66.1437ZM211.122 80.2049C209.991 81.7049 208.143 82.9405 207.017 82.9501C205.572 82.9621 205.847 83.4116 207.951 84.4753C209.591 85.3058 211.611 87.3263 212.442 88.9657C213.48 91.0173 213.956 91.3178 213.968 89.9308C213.977 88.8214 215.202 86.9284 216.691 85.7241L219.395 83.533L216.288 80.5054L213.18 77.4778L211.122 80.2049ZM470.276 78.4501C468.551 80.5282 470.472 83.4873 472.931 82.5438C475.29 81.6388 475.393 80.0655 473.213 78.2566C471.974 77.229 471.249 77.277 470.276 78.4501ZM301.423 83.5727C303.76 85.9092 305.344 88.146 304.945 88.5462C304.546 88.9452 302.633 87.575 300.696 85.5005C298.758 83.4272 296.578 81.7301 295.852 81.7301C295.125 81.7301 294.531 81.1893 294.531 80.5282C294.531 78.1881 297.23 79.3804 301.423 83.5727ZM215.044 84.9092C213.995 86.1712 213.27 86.2385 212.008 85.1917C210.746 84.1436 210.679 83.4188 211.726 82.1568C212.774 80.8948 213.499 80.8275 214.761 81.8744C216.023 82.9224 216.091 83.6472 215.044 84.9092ZM230.913 83.9525C228.95 87.6207 229.357 88.6424 231.54 85.5258C232.599 84.0138 233.184 82.4946 232.839 82.1508C232.494 81.8059 231.629 82.6172 230.913 83.9525ZM90.4414 86.5378C91.2673 87.8599 92.3589 88.9416 92.8662 88.9416C93.3735 88.9416 93.1138 87.8599 92.2879 86.5378C91.4621 85.2157 90.3705 84.134 89.8632 84.134C89.3559 84.134 89.6155 85.2157 90.4414 86.5378ZM399.119 88.3407C399.119 89.9933 399.586 91.3455 400.154 91.3455C400.724 91.3455 400.932 89.9933 400.616 88.3407C400.3 86.688 399.833 85.3359 399.58 85.3359C399.327 85.3359 399.119 86.688 399.119 88.3407ZM283.154 101.129C288.128 105.713 288.942 107.344 293.501 121.862C296.222 130.528 299.731 140.171 301.299 143.289C304.366 149.389 304.746 150.75 303.097 149.732C301.105 148.501 295.733 135.738 292.199 123.844C290.25 117.285 287.832 110.33 286.827 108.386C284.947 104.752 278.38 98.5569 276.406 98.5569C275.795 98.5569 275.296 98.0161 275.296 97.355C275.296 95.0053 277.828 96.2204 283.154 101.129ZM325.607 100.903C327.5 103.516 329.712 108.248 330.524 111.42C331.335 114.592 332.505 118.452 333.124 119.999C333.938 122.034 333.856 122.681 332.828 122.338C332.047 122.077 330.472 118.449 329.329 114.274C328.187 110.1 325.58 104.315 323.538 101.419C321.497 98.5233 320.352 96.1531 320.995 96.1531C321.64 96.1531 323.715 98.2901 325.607 100.903ZM279.118 109.468C281.669 112.623 283.513 117.481 286.046 127.719C288.222 136.521 291.307 145.124 294.397 151.024C299.941 161.6 300.054 161.224 290.362 164.469C282.549 167.083 278.903 166.386 278.903 162.276C278.903 161.01 277.955 159.437 276.799 158.781C274.827 157.665 274.847 157.474 277.099 155.756C279.444 153.966 279.426 153.921 276.328 153.883C273.101 153.844 270.644 149.297 272.354 146.53C272.816 145.785 271.907 145.632 269.939 146.126L266.785 146.918L267.57 139.262C268.132 133.768 267.807 129.763 266.416 125.08C263.998 116.944 263.951 110.553 266.268 105.011L268.059 100.725L271.851 102.946C273.937 104.167 277.206 107.103 279.118 109.468ZM383.515 110.004C385.838 112.803 384.181 113.33 381.695 110.583C380.494 109.258 380.071 108.172 380.754 108.172C381.436 108.172 382.679 108.997 383.515 110.004ZM211.787 113.096C209.508 116.747 210.879 117.236 213.25 113.618C214.346 111.945 214.82 110.576 214.303 110.576C213.785 110.576 212.654 111.711 211.787 113.096ZM244.444 112.459C243.441 115.07 245.985 117.526 247.806 115.705C249.345 114.166 248.392 110.576 246.444 110.576C245.741 110.576 244.842 111.423 244.444 112.459ZM108.272 112.379C108.272 113.04 109.065 114.631 110.037 115.914C111.007 117.197 111.802 117.706 111.802 117.045C111.802 116.384 111.007 114.794 110.037 113.51C109.065 112.227 108.272 111.718 108.272 112.379ZM381.73 117.869C382.779 119.897 383.411 122.196 383.135 122.977C382.74 124.095 378.683 116.494 378.683 114.636C378.683 113.189 380.072 114.663 381.73 117.869ZM379.24 128.009C382.085 138.518 380.836 139.333 377.614 129.071C374.832 120.213 374.565 118.532 376.087 119.473C376.642 119.816 378.062 123.658 379.24 128.009ZM406.332 121.994C406.332 123.647 406.799 124.999 407.367 124.999C407.937 124.999 408.145 123.647 407.829 121.994C407.513 120.342 407.046 118.989 406.793 118.989C406.54 118.989 406.332 120.342 406.332 121.994ZM225.414 123.79C224.213 125.116 223.789 126.201 224.472 126.201C225.985 126.201 228.983 122.766 228.175 121.958C227.856 121.64 226.613 122.463 225.414 123.79ZM269.662 123.372C270.088 123.798 271.961 124.268 273.824 124.415C275.685 124.562 278.536 125.017 280.159 125.429C282.492 126.021 282.354 125.813 279.504 124.44C275.931 122.72 268.166 121.876 269.662 123.372ZM376.158 137.043C379.91 149.561 378.665 150.799 374.599 138.593C371.21 128.418 371.007 127.399 372.371 127.409C372.868 127.412 374.571 131.748 376.158 137.043ZM162.571 133.412C162.571 135.726 162.819 136.673 163.121 135.516C163.424 134.358 163.424 132.467 163.121 131.309C162.819 130.152 162.571 131.099 162.571 133.412ZM217.592 131.61C216.742 132.634 216.318 133.741 216.648 134.071C216.979 134.402 217.944 133.836 218.794 132.811C219.644 131.787 220.069 130.68 219.738 130.35C219.407 130.019 218.442 130.586 217.592 131.61ZM306.887 139.423C312.371 150.862 322.658 161.935 330.982 165.357C336.813 167.756 338.619 169.745 333.902 168.573C329.075 167.375 318.759 159.808 313.674 153.736C309.307 148.52 300.555 133.171 300.545 130.708C300.533 127.852 302.893 131.095 306.887 139.423ZM273.649 132.247C274.47 133.067 275.871 133.093 277.797 132.323C280.53 131.231 280.456 131.156 276.558 131.084C273.712 131.033 272.799 131.397 273.649 132.247ZM372.148 144.43C374.974 155.439 375.782 160.962 374.357 159.536C373.536 158.715 367.906 136.096 367.88 133.512C367.843 129.762 369.411 133.778 372.148 144.43ZM140.875 136.422C141.628 138.078 142.407 139.271 142.605 139.075C143.336 138.343 141.537 133.412 140.539 133.412C139.969 133.412 140.12 134.767 140.875 136.422ZM183.33 135.816C182.88 137.238 182.78 138.672 183.11 139.003C183.441 139.333 184.082 138.44 184.533 137.018C184.983 135.596 185.083 134.162 184.753 133.832C184.422 133.501 183.781 134.394 183.33 135.816ZM100.982 136.417C101.805 137.409 103.02 138.22 103.681 138.22C104.352 138.22 104.221 137.423 103.386 136.417C102.563 135.426 101.349 134.614 100.687 134.614C100.017 134.614 100.148 135.411 100.982 136.417ZM296.263 143.929C298.172 148.392 301.25 154.34 303.102 157.15C306.773 162.715 305.771 164.334 301.987 158.953C298.963 154.653 296.355 149.5 293.372 141.934C289.782 132.832 292.243 134.529 296.263 143.929ZM193.192 141.343C192.004 142.93 191.468 144.23 192.002 144.23C193.05 144.23 196.368 139.424 195.736 138.822C195.525 138.62 194.38 139.755 193.192 141.343ZM118.299 152.468C120.843 155.333 121.419 155.595 121.419 153.887C121.419 153.25 120.202 152.089 118.714 151.309C116.024 149.897 116.021 149.903 118.299 152.468ZM245.755 153.219C244.481 154.182 243.98 154.98 244.641 154.99C246.427 155.019 249.481 152.874 248.726 152.12C248.366 151.76 247.03 152.255 245.755 153.219ZM413.63 154.675C413.584 156.124 414.086 157.643 414.748 158.052C416.17 158.93 416.17 157.754 414.748 154.446C413.751 152.129 413.711 152.137 413.63 154.675ZM125.025 158.358C125.025 159.019 125.837 160.233 126.829 161.056C127.835 161.891 128.632 162.022 128.632 161.351C128.632 160.69 127.82 159.476 126.829 158.653C125.822 157.818 125.025 157.687 125.025 158.358ZM322.782 169.815C324.765 170.767 330.04 172.746 334.503 174.211C338.965 175.678 342.618 177.311 342.618 177.841C342.618 178.371 337.671 177.167 331.625 175.167C320.747 171.566 311.33 164.864 311.379 160.756C311.389 159.93 313.148 161.24 315.286 163.668C317.425 166.097 320.798 168.863 322.782 169.815ZM110.069 164.023C111.352 164.994 112.944 165.787 113.605 165.787C114.266 165.787 113.756 164.994 112.474 164.023C111.19 163.053 109.599 162.258 108.938 162.258C108.277 162.258 108.785 163.053 110.069 164.023ZM306.018 168.184C311.538 174.292 320.825 180.219 326.261 181.1C328.618 181.483 330.31 182.181 330.018 182.654C329.579 183.364 318.848 186.074 308.356 188.126C305.035 188.775 300.955 191.919 302.034 192.997C302.522 193.485 304.956 193.054 307.442 192.038C312.352 190.032 323.546 187.491 331.197 186.646C342.414 185.406 350.424 196.394 350.219 212.739C350.059 225.438 346.689 237.065 329.144 285.455C309.333 340.088 310.761 337.846 291.251 344.91C268.634 353.098 248.44 356.515 215.789 357.681C190.189 358.596 187.76 359.187 181.787 365.973C179.196 368.915 174.689 372.347 171.772 373.597C168.854 374.848 165.737 376.749 164.845 377.824C160.337 383.254 159.731 372.692 164.077 364.441C165.718 361.323 168.71 356.878 170.723 354.565L174.384 350.358L191.48 349.65C211.943 348.801 218.633 347.014 242.669 335.971C251.901 331.729 265.048 326.534 271.883 324.425C297.162 316.629 296.698 317.197 307.536 280.647C318.078 245.094 318.275 244.182 319.115 227.162C319.49 219.56 320.126 212.123 320.528 210.635C321.066 208.645 320.747 207.931 319.316 207.931C318.246 207.931 317.341 208.608 317.301 209.433C315.851 240.332 312.08 262.892 307.342 269.016C299.882 278.659 279.647 276.237 273.212 264.932C268.975 257.488 269.973 250.644 276.747 240.683C279.131 237.177 279.695 235.575 278.546 235.575C274.151 235.575 268.082 247.579 268.088 256.26C268.1 273.129 287.48 283.836 303.248 275.683C306.716 273.89 306.855 273.908 305.963 276.018C305.447 277.242 302.95 285.274 300.415 293.868C295.334 311.103 294.135 312.748 283.407 317.204C276.575 320.043 277.184 321.096 275.469 303.483C274.241 290.868 271.928 279.55 269.169 272.661C268.026 269.804 267.422 269.546 263.214 270.11C251.91 271.627 246.004 256.63 252.722 243.467C254.057 240.847 262.289 231.374 271.013 222.417C298.14 194.561 301.513 187.711 297.483 168.681C296.829 165.597 297.097 164.78 298.912 164.314C300.139 163.998 301.28 163.677 301.447 163.6C301.614 163.523 303.671 165.585 306.018 168.184ZM214.887 166.692C213.731 166.995 212.784 167.762 212.784 168.399C212.784 169.064 213.93 168.958 215.488 168.148C219.997 165.803 219.831 165.401 214.887 166.692ZM70.3268 168.268C70.7355 168.929 72.255 169.431 73.7036 169.386C76.2426 169.304 76.251 169.264 73.9333 168.268C70.6249 166.846 69.448 166.846 70.3268 168.268ZM162.61 172.988C171.042 180.389 171.14 192.116 162.835 199.408C160.507 201.452 157.81 203.123 156.841 203.123C155.872 203.123 155.08 203.662 155.08 204.319C155.08 205.94 163.308 204.561 167.101 202.305C180.314 194.444 176.842 173.535 161.725 169.928L158.153 169.076L162.61 172.988ZM353.552 176.34C356.519 178.092 358.784 181.335 356.142 180.048C350.315 177.21 348.628 176.14 348.628 175.286C348.628 173.814 349.643 174.031 353.552 176.34ZM102.785 176.681C103.194 177.342 104.714 177.845 106.162 177.799C108.701 177.717 108.71 177.678 106.392 176.681C103.083 175.259 101.906 175.259 102.785 176.681ZM218.794 177.883L215.789 178.846L219.095 178.965C220.913 179.031 222.401 178.544 222.401 177.883C222.401 177.222 222.265 176.735 222.1 176.802C221.936 176.868 220.447 177.354 218.794 177.883ZM402.895 182.691C402.895 183.682 403.359 185.575 403.928 186.898C404.58 188.413 404.961 188.634 404.961 187.499C404.961 186.507 404.497 184.614 403.928 183.292C403.276 181.776 402.895 181.555 402.895 182.691ZM33.9612 190.73C35.1177 191.033 37.0123 191.033 38.1688 190.73C39.3253 190.429 38.3792 190.181 36.065 190.181C33.7508 190.181 32.8047 190.429 33.9612 190.73ZM67.3213 190.864C67.3213 191.393 68.6738 191.825 70.3268 191.825C71.9797 191.825 73.3322 191.393 73.3322 190.864C73.3322 190.335 71.9797 189.902 70.3268 189.902C68.6738 189.902 67.3213 190.335 67.3213 190.864ZM100.982 191.232C100.982 191.823 102.334 192.306 103.987 192.306C107.904 192.306 107.903 190.556 103.986 190.33C102.334 190.234 100.982 190.64 100.982 191.232ZM241.636 191.104C241.636 191.765 242.717 192.306 244.04 192.306C245.362 192.306 246.444 191.765 246.444 191.104C246.444 190.443 245.362 189.902 244.04 189.902C242.717 189.902 241.636 190.443 241.636 191.104ZM288.244 198.598C283.551 205.589 270.833 219.95 269.332 219.95C266.215 219.95 271.319 200.11 275.384 196.434C277.539 194.483 290.809 190.829 292.009 191.857C292.273 192.084 290.579 195.117 288.244 198.598ZM221.199 205.554C221.199 206.046 222.551 206.708 224.204 207.024C225.857 207.34 227.21 207.196 227.21 206.703C227.21 206.21 225.857 205.549 224.204 205.233C222.551 204.917 221.199 205.061 221.199 205.554ZM362.87 210.726C363.553 213.253 363.756 216.228 363.32 217.336C362.753 218.78 362.31 218.158 361.758 215.143C361.335 212.829 360.572 209.313 360.063 207.33C359.427 204.852 359.527 204.101 360.383 204.926C361.068 205.587 362.188 208.197 362.87 210.726ZM82.3484 210.335C81.4696 211.757 82.6466 211.757 85.9549 210.335C88.2727 209.339 88.2643 209.299 85.7253 209.217C84.2767 209.171 82.7572 209.674 82.3484 210.335ZM248.942 212.025C247.247 214.067 248.149 216.344 250.652 216.344C253.254 216.344 254.119 213.888 252.193 211.962C250.664 210.433 250.257 210.441 248.942 212.025ZM182.71 219.377C185.035 221.016 190.724 225.346 195.352 228.997C199.98 232.65 209.448 238.379 216.39 241.73C239.181 252.731 246.245 257.171 247.092 261.027C248.726 268.467 256.277 273.671 264.651 273.13C266.097 273.038 267.114 274.937 268.443 280.206L270.257 287.409L265.263 291.069C258.269 296.194 255.245 297.464 253.393 296.06C240.943 286.629 228.747 275.745 210.252 257.564C185.005 232.745 186.789 233.629 172.32 238.764C161.826 242.489 160.977 242.272 148.167 232.62C139.542 226.12 138.975 224.758 144.898 224.758C147.564 224.758 149.402 224.086 149.836 222.955C151.086 219.698 155.336 221.062 161.291 226.633L167.152 232.114L172.151 227.835C174.902 225.481 177.595 223.556 178.137 223.556C180.68 223.556 178.688 221.002 174.915 219.426C172.601 218.46 170.708 217.033 170.708 216.256C170.708 214.076 177.811 215.924 182.71 219.377ZM50.491 217.546C48.8885 218.582 48.8885 218.711 50.491 218.711C51.4828 218.711 53.1057 218.187 54.0975 217.546C55.7 216.51 55.7 216.382 54.0975 216.382C53.1057 216.382 51.4828 216.906 50.491 217.546ZM102.714 218.109C101.432 219.08 100.953 219.891 101.654 219.912C102.354 219.933 103.977 219.156 105.261 218.186C106.543 217.215 107.022 216.403 106.321 216.383C105.621 216.361 103.998 217.139 102.714 218.109ZM353.888 223.255C353.607 226.396 352.224 236.807 350.816 246.392C346.289 277.22 347.885 297.595 355.974 312.197C357.896 315.667 358.932 318.507 358.276 318.507C355.168 318.507 348.949 301.971 346.758 287.878L345.26 278.243L345.183 290.262C345.102 302.912 346.962 314.32 350.147 320.701L352.051 324.517L348.836 323.709C340.038 321.498 327.425 324.037 319.406 329.634C314.75 332.886 314.71 332.368 318.845 322.113C329.456 295.792 350.584 234.151 351.612 226.516C353.01 216.123 354.752 213.629 353.888 223.255ZM362.337 238.636C360.952 243.14 360.697 247.378 361.29 256.039C362.004 266.482 361.856 267.749 359.598 270.462C358.237 272.098 357.106 272.791 357.083 272.004C357.062 271.217 357.587 270.237 358.251 269.826C358.967 269.384 359.377 263.366 359.259 255.032C359.105 244.222 359.524 239.902 361.073 236.291C363.813 229.904 364.584 231.332 362.337 238.636ZM53.2836 235.096C52.4325 237.312 55.3405 239.621 56.9514 238.01C58.2642 236.698 57.0596 233.171 55.2997 233.171C54.5964 233.171 53.69 234.037 53.2836 235.096ZM87.7582 243.388C86.9239 244.394 86.7928 245.19 87.4637 245.19C88.1248 245.19 89.339 244.379 90.1625 243.388C90.9968 242.382 91.1278 241.585 90.457 241.585C89.7958 241.585 88.5817 242.396 87.7582 243.388ZM103.987 251.2C102.791 252.522 102.352 253.604 103.014 253.604C103.675 253.604 105.196 252.522 106.392 251.2C107.588 249.878 108.027 248.796 107.366 248.796C106.704 248.796 105.184 249.878 103.987 251.2ZM137.836 251.448C136.859 255.182 137.605 255.374 139.23 251.806C139.985 250.151 140.135 248.796 139.566 248.796C138.996 248.796 138.218 249.99 137.836 251.448ZM172.013 250.599C171.976 251.921 172.471 253.814 173.112 254.806C174.657 257.195 174.657 254.193 173.112 250.599L172.079 248.195L172.013 250.599ZM282.509 257.21C282.509 258.812 283.311 259.613 284.914 259.613C286.516 259.613 287.318 258.812 287.318 257.21C287.318 255.607 286.516 254.806 284.914 254.806C283.311 254.806 282.509 255.607 282.509 257.21ZM96.1733 259.012C95.339 260.018 95.208 260.815 95.8788 260.815C96.54 260.815 97.7542 260.004 98.5777 259.012C99.412 258.006 99.543 257.21 98.8722 257.21C98.211 257.21 96.9968 258.021 96.1733 259.012ZM366.661 263.03C366.661 265.571 365.579 270.795 364.257 274.637C361.411 282.905 361.171 296.565 363.759 302.882L365.482 307.089L364.87 301.981C364.532 299.172 363.915 294.709 363.497 292.065C362.988 288.842 363.185 287.257 364.098 287.257C364.878 287.257 365.51 289.436 365.579 292.366L365.7 297.474L366.815 292.716C368.111 287.184 369.417 286.099 374.818 286.074C383.025 286.035 388.198 292.696 390.723 306.553C392.411 315.814 392.445 344.682 390.787 360.521C389.447 373.325 389.63 374.019 393.414 370.474C402.435 362.026 412.996 365.418 417.965 378.359C423.14 391.838 420.516 407.559 406.689 445.91C400.629 462.72 400.614 462.75 399.104 460.308C398.238 458.909 397.713 458.855 396.525 460.042C395.704 460.863 394.463 461.517 393.77 461.495C393.075 461.472 393.719 460.445 395.199 459.209L397.892 456.964L391.755 443.023C388.379 435.356 385.208 429.083 384.708 429.083C382.954 429.083 368.411 441.233 363.054 447.174C357.803 452.999 357.345 453.227 347.426 454.95C335.508 457.019 335.405 457.027 335.405 455.759C335.405 455.226 340.288 454.066 346.256 453.183C357.025 451.587 357.145 451.531 361.834 445.93C364.434 442.827 370.087 437.631 374.396 434.385C378.704 431.139 382.242 428.195 382.259 427.843C382.327 426.384 358.889 419.546 357.744 420.69C355.846 422.588 354.198 422.048 355.841 420.069C357.961 417.515 353.715 417.605 350.021 420.191C348.508 421.25 346.997 421.843 346.663 421.509C346.329 421.175 348.393 419.294 351.249 417.327C377.61 399.187 383.379 366.002 365.131 337.482C360.803 330.717 360.662 327.092 364.909 331.785C366.542 333.589 367.317 333.814 368.014 332.685C368.551 331.817 368.081 330.229 366.9 328.925C365.777 327.684 365.128 326.371 365.459 326.007C365.789 325.644 365.049 325.198 363.813 325.017C361.96 324.745 362.159 325.305 364.939 328.208C369.17 332.622 367.381 332.869 362.82 328.499C358.947 324.79 358.562 323.398 361.528 323.833C363.927 324.185 368.386 319.124 367.269 317.317C366.085 315.401 368.037 315.9 370.746 318.207C372.104 319.363 371.393 318.174 369.164 315.564C360.127 304.978 356.989 288.581 361.725 276.696C363.117 273.201 364.257 267.658 364.257 264.377C364.257 261.095 364.798 258.411 365.459 258.411C366.12 258.411 366.661 260.491 366.661 263.03ZM133.496 261.914C132.758 263.294 132.656 264.421 133.27 264.421C134.506 264.421 136.21 260.78 135.37 259.939C135.077 259.647 134.234 260.535 133.496 261.914ZM115.505 263.038C113.542 266.706 113.949 267.727 116.132 264.611C117.191 263.099 117.776 261.58 117.431 261.236C117.086 260.891 116.221 261.702 115.505 263.038ZM162.571 268.027C162.571 270.34 162.819 271.286 163.121 270.13C163.424 268.974 163.424 267.08 163.121 265.923C162.819 264.767 162.571 265.713 162.571 268.027ZM192.003 271.652C192.351 272.983 193.205 274.425 193.899 274.854C194.691 275.343 194.86 274.854 194.354 273.534C193.911 272.38 193.549 270.939 193.549 270.332C193.549 269.725 193.058 269.229 192.46 269.229C191.86 269.229 191.654 270.319 192.003 271.652ZM212.86 274.637C212.86 275.298 213.654 276.89 214.625 278.172C215.595 279.456 216.39 279.964 216.39 279.303C216.39 278.642 215.595 277.052 214.625 275.768C213.654 274.486 212.86 273.976 212.86 274.637ZM16.9157 277.589C15.2098 278.643 15.9395 282.45 17.8474 282.45C18.4485 282.45 19.5545 281.711 20.3046 280.807C22.0682 278.682 19.3393 276.092 16.9157 277.589ZM125.025 282.45C124.257 283.885 123.899 285.33 124.23 285.66C124.56 285.991 125.459 285.087 126.228 283.652C126.996 282.217 127.354 280.772 127.023 280.441C126.693 280.111 125.794 281.015 125.025 282.45ZM393.552 283.179C393.105 284.43 392.518 285.86 392.251 286.356C391.983 286.852 392.274 287.257 392.897 287.257C394.097 287.257 395.786 282.322 394.893 281.429C394.604 281.14 394.001 281.928 393.552 283.179ZM143.86 283.251C143.418 283.691 143.093 285.179 143.134 286.557C143.204 288.858 143.303 288.828 144.362 286.182C145.539 283.239 145.295 281.815 143.86 283.251ZM178.09 283.652C178.09 284.643 178.554 286.536 179.123 287.858C179.774 289.374 180.156 289.595 180.156 288.459C180.156 287.468 179.691 285.575 179.123 284.253C178.471 282.737 178.09 282.516 178.09 283.652ZM408.887 291.614C408.094 293.355 407.72 295.055 408.057 295.392C408.394 295.729 409.24 294.503 409.939 292.666C411.588 288.33 410.761 287.503 408.887 291.614ZM140.672 297.173C140.687 299.359 140.913 299.533 141.856 298.075C143.362 295.744 143.362 294.469 141.856 294.469C141.194 294.469 140.662 295.685 140.672 297.173ZM57.1029 299.277C55.8984 300.607 55.1842 301.965 55.5148 302.296C55.8454 302.626 57.1005 301.809 58.3051 300.478C59.5097 299.148 60.2238 297.79 59.8932 297.459C59.5626 297.129 58.3075 297.946 57.1029 299.277ZM90.1625 301.079C89.3126 302.103 88.8882 303.21 89.2188 303.541C89.5494 303.871 90.5147 303.305 91.3647 302.281C92.2146 301.257 92.639 300.15 92.3084 299.82C91.9778 299.489 91.0124 300.055 90.1625 301.079ZM203.203 301.68C203.203 302.672 203.728 304.295 204.368 305.286C205.405 306.888 205.533 306.888 205.533 305.286C205.533 304.295 205.009 302.672 204.368 301.68C203.332 300.078 203.203 300.078 203.203 301.68ZM49.2888 307.089C48.4389 308.113 48.0145 309.22 48.3451 309.551C48.6757 309.881 49.6411 309.315 50.491 308.291C51.3409 307.267 51.7653 306.16 51.4347 305.829C51.1041 305.499 50.1388 306.065 49.2888 307.089ZM112.179 313.399C111.768 314.555 111.204 316.043 110.926 316.704C110.649 317.365 111.273 316.856 112.314 315.573C114.203 313.243 114.774 311.296 113.567 311.296C113.215 311.296 112.591 312.243 112.179 313.399ZM136.531 317.992C136.09 319.754 135.96 321.427 136.243 321.71C136.526 321.993 137.12 320.784 137.563 319.023C138.004 317.261 138.134 315.588 137.851 315.304C137.568 315.022 136.974 316.231 136.531 317.992ZM77.6744 320.273C76.578 321.946 76.1044 323.315 76.6213 323.315C77.7922 323.315 80.9034 318.465 80.1905 317.751C79.9032 317.465 78.772 318.6 77.6744 320.273ZM425.609 319.63C424.086 322.475 424.015 323.673 425.422 322.804C426.483 322.148 428.137 317.305 427.301 317.305C427.054 317.305 426.294 318.351 425.609 319.63ZM366.859 321.193C365.376 322.677 368.238 326.921 370.721 326.921C371.427 326.921 370.793 326.072 369.313 325.036C367.832 323.999 366.958 322.606 367.369 321.94C367.809 321.228 369.3 321.841 370.991 323.429C372.571 324.915 374.066 325.901 374.311 325.624C375.516 324.263 368.161 319.892 366.859 321.193ZM397.504 322.36C396.528 326.095 397.273 326.287 398.898 322.719C399.653 321.064 399.803 319.709 399.234 319.709C398.664 319.709 397.886 320.903 397.504 322.36ZM193.549 328.256C204.71 330.03 209.068 332.422 211.652 338.195C212.845 340.859 213.57 343.448 213.261 343.948C212.246 345.59 197.029 347.277 182.824 347.324L173.902 347.353L168.728 352.752C161.972 359.801 158.414 366.959 157.97 374.396C157.772 377.701 156.795 382.569 155.797 385.213C154.799 387.858 153.904 391.103 153.808 392.425C153.315 399.151 151.457 384.222 150.735 367.74C149.843 347.388 150.593 342.726 155.909 335.609C162.862 326.302 171.116 324.69 193.549 328.256ZM349.568 327.585C365.542 334.256 376.199 362.042 371.388 384.471C368.961 395.785 353.304 415.981 347.081 415.826C346.279 415.806 346.549 415.249 347.68 414.591C351.36 412.445 353.702 400.237 350.432 400.237C349.199 400.237 348.627 401.474 348.624 404.144C348.621 406.293 347.585 409.746 346.321 411.818C344.631 414.589 344.377 415.939 345.364 416.926C346.35 417.911 346.35 418.266 345.362 418.266C344.624 418.266 343.814 417.646 343.56 416.887C343.266 416.002 341.401 416.587 338.351 418.521C335.739 420.178 331.167 422.908 328.192 424.587C321.32 428.464 311.361 437.195 311.361 439.342C311.361 440.244 310.648 441.415 309.776 441.944C307.235 443.485 299.945 454.768 300.341 456.547C300.541 457.442 300.127 457.815 299.42 457.377C298.714 456.942 298.137 457.135 298.137 457.805C298.137 458.476 296.731 461.077 295.012 463.585L291.887 468.145L292.625 453.122C293.032 444.858 293.657 431.878 294.014 424.276C294.372 416.673 295.506 400.718 296.535 388.819C297.563 376.92 298.116 363.264 297.762 358.471L297.12 349.757H301.469C305.154 349.757 306.78 350.752 312.161 356.307C315.652 359.91 318.827 362.34 319.217 361.708C320.145 360.208 315.902 354.305 311.016 350.301L307.154 347.136L313.93 347.744C321.516 348.426 326.207 350.492 332.287 355.829C337.631 360.521 338.991 358.429 333.891 353.361C328.93 348.431 320.805 344.882 314.178 344.75C307.85 344.622 308.361 343.384 315.784 340.856C323.474 338.235 331.518 338.412 336.263 341.304C340.452 343.858 342.657 342.799 339.283 339.853C334.131 335.357 319.821 334.251 315.268 337.997C314.257 338.829 313.766 338.834 313.766 338.011C313.766 336.219 324.978 329.323 330.901 327.473C337.828 325.31 344.213 325.348 349.568 327.585ZM217.819 332.624C221.276 336.079 221.954 342.067 218.977 342.846C217.015 343.359 216.367 342.773 215.741 339.923C215.31 337.961 213.356 334.533 211.399 332.304L207.839 328.251L211.77 329.378C213.933 329.999 216.654 331.459 217.819 332.624ZM429.551 331.428C429.14 332.584 428.576 334.072 428.298 334.733C428.021 335.394 428.645 334.884 429.686 333.602C431.576 331.271 432.146 329.324 430.94 329.324C430.587 329.324 429.963 330.271 429.551 331.428ZM229.464 334.883C233.618 335.714 234.355 337.131 231.117 338.062C229.96 338.395 228.163 339.02 227.123 339.45C225.829 339.988 224.796 339.273 223.843 337.184C222.288 333.771 222.817 333.554 229.464 334.883ZM98.7989 345.545C98.0439 347.2 97.9201 348.555 98.5224 348.555C99.7053 348.555 101.535 343.9 100.686 343.05C100.403 342.768 99.5526 343.889 98.7989 345.545ZM294.033 381.608C293.008 392.846 291.628 413.128 290.968 426.679C290.308 440.231 289.496 456.888 289.164 463.697C288.775 471.657 288.982 475.815 289.741 475.345C291.442 474.294 291.198 476.043 289.334 478.267C288.46 479.311 287.049 484.49 286.2 489.777C284.279 501.741 281.121 510.166 276.512 515.621L272.957 519.828L272.934 513.818C272.893 502.65 276.512 455.311 281.985 395.43C284.865 363.911 287.182 351.529 290.71 348.795C294.895 345.554 296.173 358.173 294.033 381.608ZM129.973 349.358C129.897 350.131 129.484 351.753 129.056 352.964C128.453 354.672 128.613 354.858 129.77 353.791C130.59 353.035 131.004 351.412 130.688 350.185C130.371 348.958 130.05 348.586 129.973 349.358ZM404.529 350.959C404.078 352.381 403.979 353.815 404.309 354.145C404.64 354.476 405.28 353.583 405.731 352.161C406.182 350.739 406.282 349.305 405.951 348.974C405.621 348.644 404.98 349.537 404.529 350.959ZM413.132 352.408C412.156 356.143 412.901 356.335 414.526 352.767C415.281 351.111 415.432 349.757 414.862 349.757C414.292 349.757 413.514 350.95 413.132 352.408ZM64.9591 352.434C64.9362 353.575 63.5045 355.434 61.7794 356.565L58.6417 358.62L61.2913 359.601C62.7495 360.139 64.2222 361.656 64.566 362.97C65.1599 365.239 65.3089 365.209 67.5462 362.365C68.8409 360.718 70.8076 359.353 71.9172 359.33C73.3971 359.299 73.1699 358.864 71.0601 357.694C69.4804 356.819 67.4704 354.81 66.5952 353.23C65.3762 351.033 64.9927 350.846 64.9591 352.434ZM284.233 354.865C283.753 357.014 282.746 363.026 281.996 368.226C280.498 378.604 280.099 378.65 275.312 368.988C273.838 366.013 270.962 361.822 268.92 359.673C266.877 357.524 265.448 355.729 265.744 355.685C266.038 355.639 269.796 354.633 274.094 353.448C285.354 350.343 285.245 350.328 284.233 354.865ZM67.6147 360.05C64.6201 362.239 62.0859 360.022 64.0274 356.914C65.3258 354.836 65.6022 354.812 67.569 356.592C69.5934 358.423 69.5958 358.602 67.6147 360.05ZM419.934 356.668C419.523 357.824 418.959 359.312 418.681 359.973C418.403 360.634 419.027 360.125 420.068 358.842C421.958 356.512 422.529 354.565 421.322 354.565C420.97 354.565 420.346 355.512 419.934 356.668ZM263.734 359.288C265.795 360.563 269.318 364.754 271.562 368.603C273.805 372.45 276.68 377.109 277.948 378.955C280.33 382.423 280.212 387.177 277.008 416.764L276.325 423.074L271.303 423.045C265.347 423.011 252.82 420.216 231.417 414.143C221.129 411.224 212.054 409.472 204.858 409.015L193.925 408.32L193.222 416.598C191.322 438.944 178.078 465.66 158.085 487.475C145.273 501.454 133.128 516.621 125.92 527.64C120.511 535.911 120.078 537.102 120.688 542.063C123.833 567.692 123.137 569.633 109.913 572.127C105.543 572.951 97.0605 576.014 91.0629 578.932C77.1623 585.696 70.9134 587.075 61.7289 585.402C40.2029 581.481 31.3705 567.563 49.2251 565.696C59.8655 564.585 63.894 562.433 75.9228 551.443C110.61 519.746 139.13 466.34 153.393 406.377C158.698 384.069 159.436 382.209 162.972 382.209C164.507 382.209 166.47 381.215 167.333 379.999C168.198 378.784 170.426 377.413 172.286 376.953C174.146 376.492 179.07 372.95 183.231 369.08L190.795 362.045L209.903 361.21C220.414 360.751 234.963 359.682 242.237 358.837C260.436 356.721 259.555 356.703 263.734 359.288ZM127.065 362.248C126.574 363.5 126.455 364.807 126.8 365.153C127.897 366.25 128.861 364.453 128.402 362.17C127.981 360.079 127.917 360.083 127.065 362.248ZM423.951 366.831C422.975 370.566 423.72 370.758 425.346 367.189C426.101 365.534 426.251 364.18 425.681 364.18C425.111 364.18 424.334 365.373 423.951 366.831ZM122.76 383.011C122.684 383.784 122.271 385.407 121.843 386.617C121.24 388.325 121.4 388.511 122.557 387.444C123.377 386.688 123.791 385.066 123.475 383.838C123.158 382.611 122.837 382.24 122.76 383.011ZM19.7648 395.545C18.2958 397.92 22.1655 400.696 23.9496 398.547C24.7767 397.551 25.1037 396.172 24.6769 395.483C23.6611 393.838 20.7963 393.876 19.7648 395.545ZM72.8309 408.222C71.6864 411.206 72.9487 411.613 74.4791 408.754C75.2172 407.374 75.3194 406.247 74.705 406.247C74.0919 406.247 73.248 407.135 72.8309 408.222ZM224.74 415.404C225.036 415.695 223.882 424.152 222.177 434.197C220.473 444.242 219.358 453.191 219.701 454.085C220.77 456.868 226.119 458.105 240.133 458.809C253.838 459.498 255.83 460.257 250.952 462.935C246.719 465.26 209.411 465.947 208.556 463.718C207.896 462 209.872 446.916 213.614 425.086L215.639 413.276L219.921 414.075C222.277 414.515 224.446 415.113 224.74 415.404ZM115.113 417.665C114.797 419.318 115.005 420.67 115.575 420.67C116.144 420.67 116.61 419.318 116.61 417.665C116.61 416.012 116.402 414.66 116.15 414.66C115.896 414.66 115.43 416.012 115.113 417.665ZM258.663 431.887C257.734 447.552 256.159 448.739 237.546 447.805C230.338 447.444 224.197 446.905 223.9 446.608C223.443 446.15 226.201 426.642 227.836 418.77C228.347 416.311 228.614 416.343 243.712 420.676L259.067 425.082L258.663 431.887ZM337.827 423.018C336.184 424.28 334.562 425.035 334.223 424.696C333.456 423.929 337.804 420.66 339.541 420.696C340.242 420.711 339.47 421.756 337.827 423.018ZM330.466 427.812C328.884 429.128 326.823 430.223 325.887 430.246C323.847 430.294 324.648 429.393 329.084 426.652C333.349 424.017 334.183 424.717 330.466 427.812ZM342.618 425.548C342.618 426.248 342.122 426.516 341.518 426.142C340.913 425.768 340.176 426.142 339.879 426.973C339.583 427.803 338.876 428.047 338.309 427.516C337.742 426.984 338.073 426.046 339.046 425.431C341.388 423.95 342.618 423.991 342.618 425.548ZM351.033 425.188C351.033 425.69 349.951 426.777 348.628 427.602C345.904 429.303 345.494 428.608 347.727 426.074C349.376 424.201 351.033 423.758 351.033 425.188ZM194.746 436.063C193.947 440.487 191.66 450.327 189.665 457.929C187.277 467.02 185.984 474.969 185.885 481.151L185.735 490.55L193.885 497.978C206.55 509.518 206.601 514.202 194.208 527.893C187.657 535.129 185.747 538.933 182.23 551.734C179.331 562.295 176.959 563.777 161.067 564.952C147.037 565.991 144.26 565.678 144.26 563.062C144.26 560.67 153.508 553.254 157.483 552.46C165.195 550.918 165.513 548.991 164.104 512.45L163.124 487.046L167.978 481.201C178.222 468.865 193.549 438.73 193.549 430.922C193.549 430.018 193.919 428.316 194.371 427.139C195.988 422.926 196.202 428.008 194.746 436.063ZM276.027 427.096C276.099 427.197 275.452 435.393 274.592 445.309C273.73 455.225 272.371 472.636 271.573 484.001C269.927 507.408 271.239 505.038 257.865 508.782C254.559 509.708 251.99 510.813 252.154 511.24C252.79 512.881 252.409 514.419 251.366 514.419C250.766 514.419 250.524 513.472 250.827 512.316C251.331 510.394 250.054 510.212 235.988 510.212H220.598L220.227 501.799C219.916 494.745 221.808 470.058 222.721 469.266C222.876 469.131 227.871 468.675 233.821 468.255C245.766 467.411 253.325 465.953 255.135 464.144C256.515 462.764 261.959 435.193 262.027 429.246L262.072 425.201L268.985 426.056C272.787 426.527 275.956 426.994 276.027 427.096ZM330.672 433.915C328.398 435.857 326.282 437.19 325.969 436.876C325.219 436.128 332.048 430.274 333.601 430.336C334.262 430.362 332.944 431.973 330.672 433.915ZM341.415 432.56C341.415 433.151 340.559 433.962 339.514 434.363C336.573 435.492 336.185 435.247 337.809 433.29C339.468 431.292 341.415 430.898 341.415 432.56ZM60.142 439.211C58.3556 443.909 58.709 444.648 60.8513 440.696C61.8683 438.819 62.4033 436.987 62.039 436.623C61.676 436.259 60.8212 437.423 60.142 439.211ZM420.758 437.398C420.758 438.005 420.397 439.446 419.953 440.6C419.447 441.92 419.616 442.409 420.409 441.92C422.071 440.892 423.247 436.295 421.848 436.295C421.249 436.295 420.758 436.791 420.758 437.398ZM323.383 439.3C322.559 440.291 321.345 441.102 320.684 441.102C320.013 441.102 320.144 440.306 320.979 439.3C321.802 438.308 323.016 437.497 323.677 437.497C324.348 437.497 324.217 438.294 323.383 439.3ZM238.1 451.326C241.775 451.716 247.17 451.499 250.088 450.843C256.334 449.44 256.009 449.285 255.238 453.297C254.649 456.359 254.374 456.46 247.83 456.016C244.093 455.762 237.343 455.345 232.831 455.09C228.318 454.834 224.065 454.064 223.378 453.378C221.252 451.251 223.577 449.409 227.604 450.029C229.702 450.352 234.424 450.935 238.1 451.326ZM305.951 453.122C304.755 454.444 303.235 455.525 302.573 455.525C301.912 455.525 302.351 454.444 303.547 453.122C304.743 451.799 306.264 450.718 306.925 450.718C307.586 450.718 307.148 451.799 305.951 453.122ZM390.291 458.37C389.072 459.119 386.367 461.21 384.28 463.018C379.725 466.963 376.823 467.511 381.099 463.618C386.758 458.466 391.072 455.493 391.79 456.25C392.184 456.667 391.51 457.621 390.291 458.37ZM308.957 462.447C308.957 462.95 307.875 464.036 306.553 464.862C303.92 466.505 303.292 465.275 305.591 462.977C307.219 461.35 308.957 461.076 308.957 462.447ZM389.502 464.851C389.502 465.353 388.42 466.44 387.098 467.266C384.465 468.909 383.837 467.679 386.136 465.381C387.764 463.754 389.502 463.48 389.502 464.851ZM396.478 468.446C394.097 470.925 390.213 474.978 387.847 477.454C385.249 480.173 380.459 483.191 375.754 485.074C369.32 487.65 366.354 489.892 358.734 497.943L349.505 507.694L354.175 509.717C356.744 510.83 359.527 512.884 360.359 514.282C361.431 516.081 363.077 516.823 365.998 516.823C368.268 516.823 370.46 517.364 370.868 518.025C371.709 519.383 368.701 519.574 363.342 518.503C361.25 518.085 359.215 516.665 358.52 515.14C357.847 513.664 355.404 511.916 352.973 511.169L348.628 509.836V516.335C348.628 519.908 348.087 522.833 347.426 522.833C346.758 522.833 346.224 519.609 346.224 515.567V508.301L356.943 497.238C365.663 488.235 368.997 485.648 374.828 483.347C380.174 481.239 384.087 478.412 390.225 472.23C394.751 467.669 398.984 463.939 399.632 463.939C400.279 463.939 398.861 465.968 396.478 468.446ZM72.7071 467.583C72.2406 468.338 72.4245 469.522 73.1158 470.213C74.7315 471.828 78.4979 470.419 77.8403 468.445C77.1719 466.436 73.7698 465.864 72.7071 467.583ZM408.136 469.948C407.685 471.37 407.585 472.804 407.916 473.135C408.246 473.465 408.887 472.572 409.338 471.15C409.789 469.728 409.888 468.294 409.558 467.964C409.227 467.633 408.586 468.526 408.136 469.948ZM46.8845 471.15C46.1163 472.585 45.7581 474.03 46.0887 474.361C46.4193 474.691 47.3185 473.787 48.0867 472.352C48.8549 470.917 49.2131 469.472 48.8825 469.142C48.5519 468.811 47.6527 469.715 46.8845 471.15ZM339.312 471.383C337.861 472.834 336.292 473.641 335.827 473.174C335.36 472.708 336.021 471.538 337.296 470.575C340.871 467.87 342.265 468.43 339.312 471.383ZM348.652 471.722C347.816 472.73 346.573 473.554 345.891 473.554C345.208 473.554 345.631 472.469 346.832 471.143C349.318 468.397 350.975 468.923 348.652 471.722ZM331.035 477.597C329.14 479.227 327.32 480.288 326.989 479.954C326.659 479.621 327.99 478.068 329.948 476.505C334.585 472.799 335.519 473.738 331.035 477.597ZM339.046 478.921C338.215 479.921 337.024 480.423 336.399 480.036C335.772 479.649 336.239 478.618 337.435 477.744C340.124 475.776 341.078 476.473 339.046 478.921ZM101.732 482.615C101.32 483.689 101.029 485.47 101.085 486.573C101.142 487.675 101.665 486.983 102.248 485.032C103.382 481.239 102.98 479.362 101.732 482.615ZM423.163 495.789C422.313 496.813 421.888 497.92 422.219 498.251C422.55 498.582 423.515 498.015 424.365 496.991C425.215 495.967 425.639 494.86 425.309 494.53C424.978 494.199 424.013 494.765 423.163 495.789ZM406.933 499.996C405.737 501.318 405.363 502.4 406.104 502.4C406.844 502.4 408.029 501.318 408.737 499.996C409.445 498.674 409.817 497.592 409.566 497.592C409.315 497.592 408.13 498.674 406.933 499.996ZM435.314 520.498C433.733 521.816 432.15 522.603 431.796 522.25C431.03 521.483 435.265 518.101 436.988 518.103C437.649 518.104 436.896 519.182 435.314 520.498ZM48.4425 521.323C53.5962 521.549 61.7108 521.548 66.475 521.321C71.238 521.092 67.0208 520.908 57.1029 520.909C47.185 520.911 43.2876 521.097 48.4425 521.323ZM241.636 522.603C241.636 523.138 240.78 524.625 239.734 525.908C237.994 528.043 237.892 528.054 238.532 526.039C238.916 524.829 239.231 523.341 239.231 522.734C239.231 522.127 239.772 521.631 240.433 521.631C241.095 521.631 241.636 522.068 241.636 522.603ZM320.894 529.744C320.82 532.629 320.686 532.743 319.842 530.645C319.31 529.323 319.11 527.836 319.397 527.34C320.415 525.58 320.977 526.483 320.894 529.744ZM375.076 529.443C374.226 530.467 373.802 531.574 374.132 531.905C374.463 532.235 375.428 531.669 376.278 530.645C377.128 529.621 377.552 528.514 377.222 528.183C376.891 527.853 375.926 528.419 375.076 529.443ZM245.004 534.294C243.09 538.491 241.508 537.979 243.017 533.651C243.708 531.669 244.742 530.336 245.314 530.689C245.885 531.043 245.746 532.664 245.004 534.294ZM253.085 534.761C252.65 536.133 251.757 537.255 251.101 537.255C250.445 537.255 250.128 536.85 250.396 536.354C250.663 535.858 251.249 534.429 251.696 533.177C252.793 530.117 254.089 531.598 253.085 534.761ZM235.738 537.623C234.168 539.193 233.949 537.454 235.288 534.049C236.124 531.925 236.17 531.926 236.603 534.078C236.851 535.305 236.46 536.901 235.738 537.623ZM458.026 533.65C458.026 534.311 457.259 534.852 456.321 534.852C455.383 534.852 453.76 535.18 452.714 535.581C451.668 535.983 450.813 535.752 450.813 535.068C450.813 533.901 453.106 532.905 456.523 532.587C457.35 532.51 458.026 532.989 458.026 533.65ZM382.289 535.453C381.455 536.459 381.324 537.255 381.995 537.255C382.656 537.255 383.87 536.444 384.693 535.453C385.528 534.447 385.659 533.65 384.988 533.65C384.327 533.65 383.113 534.461 382.289 535.453ZM322.181 541.062C322.181 545.438 321.655 545.279 320.524 540.561C320.053 538.598 320.228 537.255 320.956 537.255C321.629 537.255 322.181 538.968 322.181 541.062ZM316.17 543.265C316.17 545.248 315.629 546.871 314.968 546.871C314.307 546.871 313.766 545.248 313.766 543.265C313.766 541.282 314.307 539.659 314.968 539.659C315.629 539.659 316.17 541.282 316.17 543.265ZM373.874 542.664C373.04 543.67 372.909 544.467 373.579 544.467C374.241 544.467 375.455 543.656 376.278 542.664C377.113 541.658 377.244 540.861 376.573 540.861C375.912 540.861 374.697 541.673 373.874 542.664ZM427.07 562.169C429.55 562.428 433.607 562.428 436.086 562.169C438.566 561.91 436.537 561.698 431.578 561.698C426.619 561.698 424.591 561.91 427.07 562.169ZM283.711 575.478C283.711 577.408 283.368 581.499 282.946 584.569C282.253 589.619 282.019 589.95 280.48 588.041C278.923 586.112 278.838 586.188 279.485 588.938C281.105 595.838 284.276 604.563 285.162 604.563C286.491 604.563 286.363 603.73 284.465 599.995C283.556 598.211 282.419 595.398 281.936 593.745C281.08 590.814 281.106 590.8 283.004 593.144C284.892 595.476 284.928 595.449 284.197 592.227C283.782 590.402 283.859 586.345 284.369 583.213L285.296 577.52L286.819 586.182C287.657 590.945 288.949 595.813 289.691 596.999C290.887 598.91 290.957 598.854 290.314 596.495C289.916 595.033 290.296 592.599 291.159 591.087C292.621 588.526 292.768 588.79 293.329 594.947C293.659 598.583 294.206 600.747 294.544 599.755C294.882 598.763 294.861 594.707 294.498 590.741C293.885 584.028 293.743 583.749 292.456 586.718C289.984 592.415 288.866 591.443 287.394 582.318C285.923 573.202 283.711 569.094 283.711 575.478ZM158.916 574.334C157.389 574.764 162.425 575.116 170.107 575.116C177.788 575.116 182.824 574.764 181.298 574.334C179.771 573.904 174.735 573.552 170.107 573.552C165.478 573.552 160.442 573.904 158.916 574.334ZM133.291 589.497C132.217 593.181 131.812 596.487 132.39 596.844C132.968 597.201 133.441 596.154 133.441 594.517C133.441 592.881 134.025 591.348 134.739 591.11C135.453 590.872 135.859 588.904 135.64 586.738C135.269 583.044 135.122 583.215 133.291 589.497ZM24.0433 585.425C20.7398 586.047 21.5801 586.251 27.9504 586.375C32.4982 586.464 36.065 586.022 36.065 585.368C36.065 584.117 30.8512 584.142 24.0433 585.425ZM37.2672 585.282C37.2672 586.548 45.1486 586.266 46.4637 584.951C46.9158 584.5 45.0308 584.13 42.2766 584.13C39.5212 584.13 37.2672 584.648 37.2672 585.282ZM201.972 585.032C201.976 585.528 210.402 585.989 220.695 586.059C231.198 586.13 238.712 585.742 237.817 585.176C235.843 583.925 201.962 583.789 201.972 585.032ZM362.17 588.599C363.997 588.874 366.702 588.867 368.18 588.582C369.659 588.297 368.164 588.071 364.858 588.08C361.552 588.089 360.342 588.322 362.17 588.599ZM297.527 592.243C297.048 594.062 296.53 597.324 296.377 599.492L296.099 603.436L298.921 600.785C300.473 599.327 301.744 598.525 301.744 599.004C301.744 600.653 298.292 606.543 296.413 608.102C292.265 611.546 294.182 612.976 302.946 612.976C307.574 612.976 311.361 612.471 311.361 611.855C311.361 611.218 307.988 610.978 303.547 611.303C294.877 611.934 294.393 611.501 298.717 606.989C300.358 605.277 302.064 602.001 302.507 599.712L303.313 595.548L300.608 597.944L297.902 600.34L298.758 594.638C299.688 588.431 298.924 586.943 297.527 592.243ZM128.155 593.461C128.955 597.467 127.801 598.444 125.266 595.909C122.839 593.482 123.656 595.456 126.886 599.822L129.948 603.962L126.586 604.721C123.543 605.408 123.658 605.494 127.799 605.623C132.207 605.76 132.31 605.672 130.618 603.256C129.323 601.409 129.145 599.754 129.94 596.981C130.76 594.123 130.582 592.776 129.198 591.393C127.57 589.765 127.459 589.985 128.155 593.461ZM219.095 591.015C221.575 591.274 225.632 591.274 228.111 591.015C230.591 590.756 228.562 590.544 223.603 590.544C218.644 590.544 216.616 590.756 219.095 591.015ZM139.151 596.795C137.333 598.36 135.845 600.019 135.845 600.485C135.845 600.95 137.018 600.3 138.454 599.04C141.026 596.782 141.049 596.783 140.12 599.154C137.533 605.76 137.515 605.736 144.431 604.954C152.888 603.998 153.83 602.994 145.762 603.537C142.291 603.771 139.45 603.892 139.45 603.808C139.451 603.724 140.294 601.637 141.326 599.171C143.659 593.587 143.315 593.212 139.151 596.795ZM273.618 598.173C275.533 599.947 277.099 601.208 277.099 600.975C277.099 600.742 278.317 601.202 279.804 601.998C284.074 604.283 282.97 602.704 277.464 598.658C271.256 594.093 268.892 593.795 273.618 598.173ZM397.685 595.845C405.823 596.054 418.806 596.053 426.537 595.844C434.268 595.635 427.611 595.465 411.742 595.465C395.874 595.467 389.548 595.637 397.685 595.845ZM488.08 605.373V610.992L485.067 608.162L482.056 605.333L484.676 602.543C488.112 598.887 488.08 598.86 488.08 605.373ZM6.42437 603.153C8.28533 605.209 8.23004 605.519 5.55041 608.036L2.68925 610.724L2.62193 605.84C2.54859 600.463 3.42737 599.842 6.42437 603.153ZM376.579 601.857C389.637 602.051 411.006 602.051 424.064 601.857C437.122 601.662 426.439 601.504 400.322 601.504C374.204 601.504 363.521 601.662 376.579 601.857ZM278.85 605.436C279.57 606.909 281.365 608.802 282.837 609.643C285.22 611.005 284.456 611.248 275.897 611.855L266.28 612.535L277.066 612.756L287.852 612.976L284.88 610.272C283.245 608.785 280.925 606.486 279.724 605.164C277.555 602.778 277.549 602.78 278.85 605.436ZM12.9846 609.683C14.0317 610.944 5.10321 622.591 3.08958 622.591C1.04349 622.591 3.3264 615.261 6.36428 612.075C10.5033 607.735 11.1669 607.494 12.9846 609.683ZM484.115 612.01C486.874 614.683 488.08 616.954 488.08 619.477V623.102L482.105 617.218C477.516 612.7 476.434 610.966 477.443 609.751C479.271 607.548 479.641 607.673 484.115 612.01ZM18.9954 615.621C21.2663 617.892 13.7913 624.995 9.13167 624.995H5.51075L10.8195 619.587C16.6464 613.65 16.9013 613.528 18.9954 615.621ZM479.473 619.078C485.404 624.891 485.433 624.995 481.102 624.995C476.68 624.995 469.304 617.805 471.489 615.621C473.588 613.523 473.977 613.691 479.473 619.078ZM287.049 617.463C289.876 617.718 294.204 617.714 296.666 617.456C299.128 617.197 296.815 616.989 291.525 616.994C286.236 616.998 284.221 617.209 287.049 617.463ZM25.2455 621.99L28.0694 624.995H22.323H16.5779L19.409 622.011C20.9658 620.37 22.2809 619.018 22.3314 619.006C22.3807 618.995 23.6923 620.338 25.2455 621.99ZM471.249 621.99L474.073 624.995H468.244H462.415L465.239 621.99C466.792 620.338 468.144 618.986 468.244 618.986C468.344 618.986 469.696 620.338 471.249 621.99Z" fill="#FF1940"/>
</svg>
