<svg width="440" height="488" viewBox="0 0 440 488" fill="none" xmlns="http://www.w3.org/2000/svg">
<path d="M139.182 4.11162C139.182 8.69856 133.638 7.9012 132.047 3.08569C131.486 1.38701 132.863 0 135.106 0C137.348 0 139.182 1.85191 139.182 4.11162Z" fill="#FF1940"/>
<path d="M296.219 131.252C292.197 131.252 291.111 128.179 294.074 125.192C297.035 122.203 300.081 123.299 300.081 127.356C300.081 129.499 298.343 131.252 296.219 131.252Z" fill="#FF1940"/>
<path d="M122.446 97.4012L123.226 83.6975C124.204 66.5289 128.883 68.3237 128.883 85.8663V98.6999H143.196C152.081 98.6999 156.906 99.6843 155.918 101.297C155.042 102.726 148.603 103.895 141.605 103.895H128.883V116.728C128.883 123.788 127.724 130.284 126.308 131.167C124.709 132.164 123.733 127.297 123.733 118.333V103.895H111.011C93.621 103.895 91.8419 99.1752 108.861 98.1882L122.446 97.4012Z" fill="#FF1940"/>
<path d="M273.803 233.932C267.767 230.675 266.652 223.516 271.429 218.698C276.205 213.88 283.301 215.005 286.53 221.093C288.935 225.623 288.548 227.519 284.359 231.742C280.173 235.968 278.293 236.358 273.803 233.932Z" fill="#FF1940"/>
<path d="M96.5244 271.425C90.2188 271.425 87.2912 265.495 90.0334 258.287C91.9284 253.303 100.446 253.518 104.674 258.656C109.246 264.214 104.645 271.425 96.5244 271.425Z" fill="#FF1940"/>
<path d="M7.26003 280.001C7.26003 284.588 1.71656 283.791 0.125347 278.975C-0.435953 277.276 0.941524 275.889 3.18415 275.889C5.42678 275.889 7.26003 277.739 7.26003 280.001Z" fill="#FF1940"/>
<path d="M424.797 246.091C433.989 245.325 434.55 244.761 435.305 235.541C435.745 230.185 437.123 225.801 438.369 225.801C439.615 225.801 440.993 230.185 441.433 235.541C442.187 244.761 442.749 245.325 451.94 246.091C463.846 247.083 462.082 251.774 449.803 251.774C441.394 251.774 440.944 252.237 440.944 260.865C440.944 265.865 439.785 269.956 438.369 269.956C436.953 269.956 435.794 265.865 435.794 260.865C435.794 252.237 435.344 251.774 426.934 251.774C414.655 251.774 412.892 247.083 424.797 246.091Z" fill="#FF1940"/>
<path d="M302.917 455.591L303.705 443.189C304.683 427.758 309.354 429.547 309.354 445.355V456.89H322.076C339.466 456.89 341.245 461.609 324.226 462.596L310.641 463.383L309.907 473.773C308.695 490.96 305.826 492.96 304.323 477.669L302.917 463.383L288.755 461.965C273.598 460.448 275.58 457.555 292.618 456.332L302.917 455.591Z" fill="#FF1940"/>
<path d="M393.462 321.903C388.913 321.903 386.006 317.628 388.161 314.111C390.96 309.54 397.172 311.332 397.172 316.708C397.172 319.565 395.504 321.903 393.462 321.903Z" fill="#FF1940"/>
</svg>
