<svg width="490" height="835" viewBox="0 0 490 835" fill="none" xmlns="http://www.w3.org/2000/svg">
<path fill-rule="evenodd" clip-rule="evenodd" d="M267.97 2.15495C267.626 3.34156 266.385 17.3923 265.214 33.3788C263.217 60.6252 263.369 68.5421 265.835 65.8189C266.803 64.7506 270.977 14.5102 270.921 4.61935C270.892 -0.143097 269.075 -1.66116 267.97 2.15495ZM247.488 20.3139C245.44 22.7807 246.804 25.8748 249.94 25.8748C251.339 25.8748 252.804 25.0356 253.197 24.0104C253.906 22.1658 251.736 18.4816 249.94 18.4816C249.428 18.4816 248.324 19.3059 247.488 20.3139ZM98.7786 28.9553C97.6717 31.8374 99.2334 34.5001 102.03 34.5001C105.166 34.5001 106.53 31.4061 104.482 28.9392C102.526 26.582 99.6858 26.5894 98.7786 28.9553ZM383.232 29.978C381.138 32.5015 382.856 35.9369 385.988 35.4896C387.854 35.2234 388.605 34.2365 388.605 32.053C388.605 28.5375 385.442 27.3164 383.232 29.978ZM192.559 45.2819C196.175 61.691 203.084 78.3048 203.109 70.6442C203.125 65.411 195.347 41.8933 193.6 41.8933C192.291 41.8933 192.012 42.8002 192.559 45.2819ZM330.762 66.3599C323.505 80.8259 322.942 82.5559 325.48 82.5559C328.001 82.5559 340.741 55.7777 339.033 54.0699C337.985 53.0225 335.892 56.1338 330.762 66.3599ZM126.682 76.5427C126.682 78.8753 144.258 101.141 145.682 100.611C147.883 99.7931 146.693 97.5431 138.03 86.1527C130.45 76.1854 126.682 72.9952 126.682 76.5427ZM229.703 89.7864C222.861 91.2675 224.178 94.12 231.314 93.276C238.397 92.4368 240.462 91.5669 239.41 89.864C238.633 88.6084 235.272 88.5813 229.703 89.7864ZM246.242 90.5651C246.242 91.9846 247.817 92.4134 253.021 92.4134C258.225 92.4134 259.8 91.9846 259.8 90.5651C259.8 89.1457 258.225 88.7168 253.021 88.7168C247.817 88.7168 246.242 89.1457 246.242 90.5651ZM267.196 91.1085C267.196 92.8114 268.406 93.3105 274.899 94.2815C281.216 95.2266 283.772 92.2767 277.981 90.7253C273.712 89.5819 267.196 89.8135 267.196 91.1085ZM209.573 93.95C207.369 94.656 205.567 96.0299 205.567 97.0021C205.567 98.8209 209.909 98.4106 216.352 95.9831C223.542 93.276 217.411 91.4363 209.573 93.95ZM287.633 94.7164C286.646 96.3134 289.92 98.1013 295.875 99.2189C298.994 99.8029 300.475 99.6304 300.475 98.6816C300.475 96.2345 288.903 92.6623 287.633 94.7164ZM384.972 107.88C376.788 115.612 374.303 118.656 375.335 119.687C376.878 121.23 399.082 101.797 399.082 98.9047C399.082 95.6172 395.628 97.8142 384.972 107.88ZM190.468 101.123C185.709 103.634 184.397 105.968 187.744 105.968C190.826 105.968 199.556 101.047 198.758 99.7598C197.696 98.0397 195.683 98.3711 190.468 101.123ZM307.405 100.684C305.809 102.278 306.787 103.529 311.519 105.943C316.81 108.64 320.197 109.139 320.197 107.221C320.197 105.674 308.428 99.66 307.405 100.684ZM172.595 110.454C167.459 113.549 166.361 115.064 168.355 116.297C169.924 117.266 179.683 110.96 179.683 108.978C179.683 106.568 178.703 106.772 172.595 110.454ZM40.591 110.347C40.8277 111.567 45.4079 115.102 50.8781 118.287C86.3295 138.931 102.141 147.862 103.238 147.862C108.118 147.862 100.519 142.494 73.5859 126.915C38.6423 106.702 40.0191 107.395 40.591 110.347ZM325.9 110.535C324.416 112.019 325.163 113.056 330.031 116.277C335.344 119.793 337.453 120.315 337.453 118.117C337.453 115.664 327.381 109.054 325.9 110.535ZM116.345 114.013C113.849 116.507 115.137 119.522 118.7 119.522C121.982 119.522 123.139 117.39 121.542 114.285C120.177 111.633 118.798 111.561 116.345 114.013ZM155.328 122.944C151.248 126.352 150.076 129.409 152.874 129.344C154.804 129.298 162.427 122.458 162.427 120.771C162.427 118.58 159.468 119.485 155.328 122.944ZM342.953 123.294C341.979 124.87 349.458 133.076 351.869 133.076C354.981 133.076 353.422 129.544 348.637 125.755C345.467 123.246 343.507 122.397 342.953 123.294ZM451.296 129.995C450.319 132.539 451.644 135.54 453.742 135.54C456.265 135.54 458.412 132.477 457.518 130.152C456.552 127.635 452.244 127.526 451.296 129.995ZM140.272 137.54C137.475 140.724 136.732 142.384 137.678 143.329C139.176 144.827 147.636 137.482 147.636 134.683C147.636 131.716 144.225 133.039 140.272 137.54ZM357.221 138.313C357.246 139.161 359.156 142.06 361.465 144.757C365.077 148.979 365.78 149.353 366.511 147.448C367.11 145.89 366.15 143.986 363.258 141.004C358.944 136.554 357.143 135.751 357.221 138.313ZM127.615 154.207C124.535 158.956 124.185 161.417 126.591 161.417C127.794 161.417 134.077 152.131 134.077 150.353C134.077 147.44 130.696 149.456 127.615 154.207ZM370.157 153.957C369.404 155.175 374.546 164.278 376.76 165.645C379.465 167.318 379.25 163.655 376.374 159.101C372.886 153.579 371.235 152.213 370.157 153.957ZM203.501 158.261C182.794 164.735 169.234 187.676 171.686 212.088C174.383 238.929 193.968 267.766 225.197 290.876L237.578 300.039L237.595 386.003L237.614 471.967L273.667 471.641L309.72 471.314V465.153V458.992L302.632 458.623C296.648 458.311 295.545 457.893 295.545 455.936C295.545 454.471 296.566 453.475 298.318 453.226C300.321 452.941 301.203 451.869 301.489 449.369C302.096 444.074 299.849 442.358 292.313 442.358H285.684V436.241V430.124L297.702 429.772L309.72 429.42L310.092 422.95L310.465 416.481H284.516H258.568V358.155V299.829L269.969 291.328C306.568 264.04 324.9 233.993 323.67 203.311C322.136 165.042 284.547 144.02 253.192 163.898L247.73 167.362L243.456 164.459C232.947 157.319 215.28 154.58 203.501 158.261ZM422.809 164.896C414.925 168.067 408.942 171.178 408.942 172.106C408.942 174.424 409.49 174.299 423.804 168.732C437.512 163.402 439.747 162.07 437.846 160.368C437.178 159.769 430.722 161.713 422.809 164.896ZM230.352 162.693C234.45 164.073 240.021 166.671 242.734 168.466C247.537 171.643 247.753 171.672 250.96 169.58C265.86 159.863 283.931 157.727 296.392 164.214C322.656 177.882 327.819 212.847 308.379 245.378C300.558 258.466 283.046 276.786 267.217 288.44L254.87 297.53V358.854V420.178H280.747H306.622L306.203 422.95C305.809 425.562 305.072 425.759 293.578 426.339L281.37 426.955L280.993 434.297C280.354 446.743 280.731 447.286 290.022 447.286C297.597 447.286 301.176 449.13 295.237 449.973C292.87 450.309 292.408 451.226 292.088 456.22L291.712 462.073H299.175C306.314 462.073 306.638 462.207 306.638 465.153V468.234H273.975H241.312V382.881V297.528L229.965 289.542C204.534 271.644 186.611 249.749 178.937 227.204C165.086 186.515 193.866 150.406 230.352 162.693ZM118.078 171.225C115.381 176.51 114.881 179.899 116.796 179.899C118.235 179.899 122.984 170.952 122.984 168.243C122.984 164.815 120.615 166.257 118.078 171.225ZM380.294 171.985C379.691 172.588 383.657 183.145 385.087 184.746C385.35 185.04 386.13 184.715 386.82 184.025C387.672 183.173 387.283 180.923 385.611 177.022C383.287 171.604 381.945 170.333 380.294 171.985ZM211.113 173.633C186.132 179.891 181.011 209.871 199.583 241.151C206.904 253.481 241.776 285.868 247.733 285.868C249.447 285.868 262.272 276.564 271.976 268.281C296.94 246.974 311.28 218.021 306.795 197.984C300.84 171.386 274.626 165.051 252.994 184.985L247.642 189.917L242.517 184.944C233.619 176.311 219.999 171.406 211.113 173.633ZM229.676 180.476C233.032 182.148 238.5 186.277 241.824 189.652L247.87 195.787L254.251 189.306C278.894 164.273 309.651 180.906 302.46 215.377C298.396 234.863 281.402 257.677 258.902 273.855C247.534 282.028 247.548 282.024 241.537 277.592C209.194 253.745 191.883 228.646 192.063 205.859C192.241 183.148 210.416 170.881 229.676 180.476ZM110.524 189.449C108.722 194.128 108.547 198.635 110.144 199.207C111.458 199.675 114.356 192.014 114.356 188.074C114.356 184.875 111.955 185.736 110.524 189.449ZM387.989 193.003C387.989 197.302 390.915 204.543 392.651 204.543C394.591 204.543 394.287 200.886 391.807 194.378C390.392 190.668 387.989 189.801 387.989 193.003ZM0.972198 200.215C-1.07635 202.682 0.288115 205.776 3.4238 205.776C4.82277 205.776 6.28832 204.937 6.68151 203.911C7.39024 202.067 5.21966 198.382 3.4238 198.382C2.91228 198.382 1.80789 199.207 0.972198 200.215ZM52.1119 199.612C50.7253 201.856 52.0984 202.411 64.7656 204.717C79.4246 207.387 82.3089 207.49 82.3089 205.339C82.3089 204.176 78.3203 203.018 69.1129 201.507C61.8555 200.317 55.255 199.088 54.4464 198.778C53.6378 198.469 52.5877 198.843 52.1119 199.612ZM105.266 209.626C103.981 216.046 104.346 219.33 106.344 219.33C107.361 219.33 108.199 218.36 108.207 217.173C108.214 215.987 108.564 212.938 108.984 210.396C109.97 204.434 106.45 203.706 105.266 209.626ZM392.671 212.064C391.589 215.308 393.584 224.875 395.343 224.875C397.076 224.875 397.455 214.289 395.817 211.638C394.965 210.262 393.191 210.502 392.671 212.064ZM103.263 233.5C103.263 238.702 103.692 240.277 105.112 240.277C106.532 240.277 106.96 238.702 106.96 233.5C106.96 228.298 106.532 226.723 105.112 226.723C103.692 226.723 103.263 228.298 103.263 233.5ZM394.394 238.319C394.6 242.122 395.322 245.228 396 245.221C397.898 245.199 397.545 232.577 395.627 231.938C394.407 231.531 394.111 233.064 394.394 238.319ZM421.268 233.48C421.268 235.106 425.776 235.348 455.883 235.348C483.027 235.348 490.388 235.016 489.984 233.808C489.141 231.275 421.268 230.952 421.268 233.48ZM104.108 248.595C102.851 250.773 105.167 260.608 106.936 260.608C108.679 260.608 109.03 251.254 107.388 248.597C106.651 247.405 104.795 247.404 104.108 248.595ZM392.457 256.45C391.344 262.013 391.51 266.153 392.846 266.153C394.55 266.153 395.049 264.943 396.02 258.452C397.06 251.505 393.811 249.679 392.457 256.45ZM52.1107 272.801C33.8549 276.652 27.4591 278.461 27.4591 279.778C27.4591 282.055 28.1987 281.955 58.175 275.64C72.696 272.58 82.9363 269.836 83.2382 268.926C84.0357 266.512 78.9205 267.149 52.1107 272.801ZM107.509 268.965C106.689 271.103 109.885 280.066 111.682 280.665C113.664 281.325 113.492 276.812 111.337 271.659C109.432 267.1 108.481 266.431 107.509 268.965ZM387.968 276.681C385.756 282.497 385.318 285.596 386.595 286.385C388.087 287.306 389.693 284.589 391.453 278.167C392.973 272.624 389.994 271.353 387.968 276.681ZM113.881 288.104C112.963 289.59 117.508 300.655 119.037 300.655C121.3 300.655 121.475 299.06 119.689 294.701C117.436 289.2 114.95 286.376 113.881 288.104ZM382.174 293.518C380.29 295.874 376.895 302.803 376.895 304.29C376.895 307.593 380.376 305.018 382.882 299.863C385.544 294.385 385.046 289.925 382.174 293.518ZM410.175 296.194C410.175 297.232 415.485 299.877 423.776 302.971C438.811 308.583 439.757 308.785 439.757 306.387C439.757 305.396 434.162 302.658 425.89 299.6C410.381 293.867 410.175 293.822 410.175 296.194ZM122.984 308.378C122.984 309.237 124.427 312.064 126.191 314.659C130.605 321.152 132.919 318.83 128.952 311.888C126.17 307.018 122.984 305.145 122.984 308.378ZM369.608 315.488C365.353 321.359 364.957 322.834 367.634 322.834C370.344 322.834 376.399 313.22 374.735 311.556C373.795 310.617 372.315 311.751 369.608 315.488ZM134.829 323.847C133.148 326.567 141.793 336.561 143.956 334.399C144.664 333.691 143.309 331.169 140.42 327.815C137.289 324.182 135.435 322.866 134.829 323.847ZM96.4835 330.357C80.9456 340.557 78.2697 342.701 79.5171 343.948C80.9271 345.358 106.344 329.78 106.344 327.507C106.344 324.818 103.801 325.553 96.4835 330.357ZM454.137 326.121C452.576 327.681 453.323 331.199 455.383 331.99C458.001 332.994 461.291 329.82 460.302 327.243C459.552 325.291 455.673 324.584 454.137 326.121ZM356.147 332.619C351.815 338.01 351.504 338.853 353.851 338.853C355.845 338.853 363.337 331.265 363.337 329.244C363.337 326.288 359.965 327.87 356.147 332.619ZM148.334 339.951C147.138 341.888 157.557 350.375 159.161 348.771C160.21 347.722 159.322 346.305 155.641 343.157C150.379 338.657 149.401 338.227 148.334 339.951ZM341.459 346.265C334.617 352.487 336.909 354.827 344.315 349.18C348.529 345.966 349.936 342.518 347.005 342.585C346.158 342.605 343.663 344.261 341.459 346.265ZM377.152 350.133C377.759 352.001 419.895 389.373 421.393 389.373C425.286 389.373 421.05 384.709 402.171 368.206C381.914 350.5 375.843 346.114 377.152 350.133ZM164.316 353.573C163.541 354.828 171.885 361.033 174.349 361.033C177.767 361.033 176.864 358.662 172.293 355.638C167.038 352.161 165.444 351.748 164.316 353.573ZM324.92 357.983C319.685 361.408 318.428 363.02 320.16 364.09C321.814 365.112 332.748 358.629 332.191 356.956C331.429 354.674 329.578 354.936 324.92 357.983ZM182.148 364.745C182.148 366.962 193.061 371.563 194.62 370.004C195.637 368.988 194.678 367.951 190.972 366.061C185.513 363.278 182.148 362.775 182.148 364.745ZM307.255 367.332C304.543 368.574 301.77 369.813 301.092 370.085C300.311 370.4 300.377 371.134 301.269 372.084C302.856 373.775 314.034 369.617 314.034 367.335C314.034 365.062 312.212 365.061 307.255 367.332ZM61.3476 367.818C59.9831 369.462 60.0374 370.1 61.673 371.737C64.3169 374.379 67.8014 372.911 67.2961 369.368C66.8141 365.993 63.565 365.147 61.3476 367.818ZM201.391 371.899C199.96 374.213 211.651 379.239 214.448 377.511C216.184 376.439 213.248 373.721 209.546 372.974C207.695 372.6 205.269 371.941 204.151 371.509C203.033 371.076 201.791 371.251 201.391 371.899ZM126.799 398.799C107.428 424.425 103.836 430.036 106.804 430.036C108.65 430.036 150.219 374.544 149.385 373.193C148.029 371 146.523 372.706 126.799 398.799ZM284.76 374.733C280.847 375.862 279.681 377.475 281.82 378.797C283.45 379.804 293.441 376.584 294.013 374.868C294.605 373.093 290.639 373.037 284.76 374.733ZM221.862 378.504C222.156 379.398 224.216 380.31 226.439 380.527C229.359 380.813 230.334 380.47 229.947 379.295C229.653 378.4 227.593 377.489 225.369 377.272C222.449 376.986 221.474 377.328 221.862 378.504ZM267.425 378.351C264.064 379.699 264.941 381.989 268.809 381.961C272.412 381.936 275.109 380.118 274.06 378.421C273.062 376.806 271.325 376.787 267.425 378.351ZM327.124 387.902C326.443 389.002 339.314 414.73 341.094 415.831C344.397 417.871 342.961 412.67 336.865 400.518C330.486 387.806 328.652 385.43 327.124 387.902ZM203.189 401.816C198.226 413.449 194.578 434.162 198.131 430.549C200.354 428.288 207.055 401.457 205.726 400.129C204.849 399.253 204.058 399.778 203.189 401.816ZM254.87 444.104C254.87 459.398 255.15 462.073 256.752 462.073C259.264 462.073 258.93 427.483 256.411 426.646C255.225 426.252 254.87 430.276 254.87 444.104ZM442.668 430.652C441.691 433.195 443.016 436.197 445.114 436.197C447.637 436.197 449.784 433.133 448.89 430.808C447.924 428.291 443.616 428.182 442.668 430.652ZM387.319 476.69C381.145 480.455 377.122 486.198 376.192 492.576C375.166 499.612 370.796 514.299 369.973 513.478C369.651 513.155 370.522 508.561 371.908 503.269C376.477 485.831 374.721 479.789 364.689 478.444C354.27 477.046 346.06 484.909 343.682 498.563C341.736 509.734 338.354 518.193 330.569 531.363C326.898 537.573 323.894 543.192 323.894 543.848C323.894 544.504 323.643 544.79 323.336 544.483C323.029 544.177 323.86 536.459 325.182 527.335C328.821 502.219 328.969 502.735 318.123 502.735C313.467 502.735 311.888 503.402 308.487 506.802C304.326 510.961 303.467 513.304 299.807 530.46C298.629 535.984 295.996 543.297 293.818 547.094C291.682 550.822 288.867 556.367 287.564 559.416C286.26 562.466 282.817 567.562 279.912 570.74C277.007 573.919 272.996 579.097 270.998 582.247C268.181 586.687 265.683 588.767 259.871 591.516C254.966 593.834 249.503 597.966 244.07 603.465C235.501 612.138 218.856 621.478 193.23 631.997C174.051 639.868 152.249 654.956 142.475 667.12C139.258 671.125 132.368 682.769 127.164 692.996C109.863 726.998 107.343 729.903 67.672 761.544C47.7338 777.446 42.6765 782.444 46.5197 782.444C47.9372 782.444 80.7373 756.476 96.6536 742.751C102.849 737.41 110.198 729.789 112.988 725.814C118.353 718.168 133.238 690.992 134.724 686.129C139.402 670.822 168.429 646.169 193.857 635.909C199.281 633.72 211.608 628.036 221.251 623.278L238.784 614.626L242.859 617.142C251.325 622.374 269.364 622.757 273.486 617.793C275.683 615.145 274.117 614.539 268.852 616.001C259.294 618.654 245.866 616.776 243.165 612.408C240.56 608.193 261.297 593.149 271.778 591.649C277.842 590.783 280.26 588.042 275.953 586.915C272.461 586.002 272.416 586.117 280.191 576.496C287.734 567.162 287.647 567.211 291.677 570.033C293.856 571.56 294.855 571.685 295.957 570.571C297.053 569.465 296.954 568.866 295.545 568.049C289.047 564.285 289.058 564.372 293.796 555.104C299.401 544.138 299.682 543.872 303.711 545.708C308.851 548.049 310.458 545.281 305.557 542.527C302.625 540.879 301.789 539.69 302.273 537.853C302.63 536.498 303.543 532.062 304.303 527.995C307.305 511.915 311.631 505.254 318.031 506.858C320.723 507.533 320.808 507.997 320.642 521.248C320.39 541.323 317.23 556.263 311.917 562.497C309.606 565.208 304.072 571.752 299.619 577.038C293.991 583.72 290.443 586.867 287.987 587.358C283.672 588.222 283.239 591.454 287.438 591.454C291.422 591.454 295.295 587.959 308.487 572.459C319.949 558.993 319.901 559.021 327.284 561.309C331.609 562.648 330.789 558.787 326.36 556.952C321.959 555.13 322.034 555.652 325.238 549.202C332.932 533.71 339.368 523.699 341.151 524.452C348.28 527.462 351.466 525.255 344.895 521.859L341.244 519.971L343.507 514.694C344.752 511.791 346.468 505.279 347.322 500.223C349.78 485.651 360.908 476.802 367.547 484.139C371.103 488.066 367.445 509.401 358.89 534.644C350.071 560.665 350.214 560.411 340.273 567.783C335.67 571.196 328.7 577.618 324.783 582.056C319.404 588.146 316.611 590.32 313.382 590.925C309.108 591.727 307.983 593.08 310.366 594.553C313.883 596.726 319.633 593.18 331.062 581.788C347.178 565.725 348.426 565.087 357.652 568.201C361.614 569.538 365.137 570.351 365.48 570.006C367.12 568.368 364.233 565.75 359.125 564.243C356.018 563.325 353.476 562.121 353.476 561.565C353.476 559.33 362.401 537.647 366.645 529.575L371.174 520.96L377.116 521.747C380.779 522.234 383.058 522.064 383.058 521.305C383.058 519.663 378.917 517.522 375.744 517.522C374.344 517.522 373.198 517.382 373.199 517.214C373.199 517.045 374.264 514.106 375.564 510.684C376.866 507.262 378.574 500.908 379.363 496.562C381.582 484.33 387.518 478.091 396.936 478.091C404.723 478.091 405.185 479.327 403.316 495.157C402.406 502.85 400.781 511.796 399.704 515.039C398.627 518.282 395.907 528.36 393.661 537.435C391.414 546.51 386.98 560.02 383.808 567.458L378.038 580.98L370.174 585.566C361.622 590.554 350.477 595.149 346.929 595.149C345.7 595.15 341.92 594.242 338.528 593.133C332.483 591.157 332.158 591.184 322.272 594.437C307.749 599.215 291.298 607.393 281.488 614.711C261.39 629.701 244.632 637.183 225.955 639.503C214.735 640.897 206.799 643.396 206.799 645.535C206.799 647.876 209.215 648.223 212.758 646.392C214.718 645.378 221.214 643.941 227.192 643.198C246.13 640.846 260.264 634.64 281.666 619.275C300.668 605.636 324.242 595.575 335.604 596.258C337.359 596.363 336.293 597.457 331.906 600.056C323.562 604.997 320.473 607.817 318.912 611.92C316.305 618.776 323.822 630.992 331.991 633.176C335.468 634.105 335.389 634.201 326.427 639.997C313.934 648.077 292.655 664.263 276.512 677.965C263.655 688.878 241.312 713.542 241.312 716.822C241.312 720.296 244.253 717.722 255.066 704.78C269.962 686.951 297.817 663.655 328.457 643.401C345.302 632.265 360.873 618.902 360.867 615.586C360.862 612.773 357.087 605.918 353.231 601.724C350.415 598.661 350.994 598.104 359.994 595.202C365.352 593.474 368.834 595.034 374.53 601.715C376.645 604.198 378.006 604.969 378.593 604.021C379.85 601.988 377.611 598.385 372.453 594.134L367.994 590.459L384.238 582.33C402.501 573.192 404.125 572.868 408.417 577.498C410.746 580.009 411.813 580.451 412.91 579.355C414.007 578.258 413.523 577.053 410.871 574.287L407.393 570.658L417.721 563.987C433.73 553.645 440.859 552.199 450.897 557.26C458.588 561.138 458.816 564.627 451.832 571.595C445.029 578.382 415.51 600.139 399.657 610.049C392.9 614.273 383.819 621.029 379.474 625.062C366.111 637.469 354.259 646.285 340.045 654.389C332.552 658.661 322.94 665.197 318.687 668.914C314.433 672.631 306.502 678.548 301.061 682.063C295.62 685.579 286.207 692.196 280.142 696.768C274.077 701.342 256.896 713.131 241.962 722.965C215.354 740.49 214.366 741.294 192.55 763.186C169.044 786.772 130.379 830.58 130.379 833.627C130.379 837.332 132.932 834.82 154.503 809.885C166.657 795.837 185.476 775.406 196.322 764.484C215.153 745.521 217.213 743.855 241.928 727.632C256.164 718.287 273.913 706.121 281.37 700.594C288.828 695.068 299.816 687.37 305.79 683.489C311.765 679.606 319.253 674.016 322.43 671.065C325.608 668.115 333.755 662.525 340.534 658.645C355.721 649.952 368.663 640.41 379.977 629.562C384.722 625.012 393.874 618.128 400.314 614.264C406.755 610.401 415.906 604.358 420.652 600.837C425.397 597.316 434.827 590.341 441.606 585.337C456.49 574.349 463.176 568.216 463.176 565.549C463.176 561.982 454.718 553.419 449.865 552.071C438.187 548.828 431.391 550.635 414.846 561.381C404.277 568.245 384.291 578.61 384.291 577.228C384.291 576.947 386.514 571.138 389.231 564.319C393.523 553.551 397.255 540.48 404.881 509.512C405.882 505.446 407.802 499.347 409.147 495.958C410.492 492.57 411.891 487.025 412.256 483.636L412.92 477.475L406.273 475.935C397.063 473.801 391.71 474.014 387.319 476.69ZM192.451 504.592C192.022 505.71 192.481 507.432 193.47 508.421C195.937 510.886 199.636 509.292 199.161 505.967C198.694 502.692 193.582 501.645 192.451 504.592ZM348.246 601.864C350.22 603.525 353.141 607.343 354.736 610.351L357.638 615.818L354.016 619.008C352.024 620.763 347.039 623.963 342.935 626.12C334.032 630.8 330.46 630.398 325.719 624.184C319.171 615.603 322.036 609.208 335.419 602.522C344.279 598.096 343.797 598.121 348.246 601.864ZM288.15 642.568C288.15 645.777 299.057 656.207 300.697 654.567C301.781 653.484 300.809 651.67 296.679 647.065C291.12 640.868 288.15 639.302 288.15 642.568Z" fill="#FF1940"/>
</svg>
