<svg width="130" height="130" viewBox="0 0 130 130" fill="none" xmlns="http://www.w3.org/2000/svg">
<path d="M0.00121212 0H130C130 0 130 87.8389 130 98.0564C130 102.138 127.51 105.809 123.714 107.325L68.7139 129.286C66.3298 130.238 63.6702 130.238 61.2861 129.286L6.2861 107.325C2.48951 105.809 0 102.138 0 98.0564C0 87.839 0.00121212 0 0.00121212 0Z" fill="url(#paint0_linear_986_254)"/>
<path fill-rule="evenodd" clip-rule="evenodd" d="M57.2514 25.4642C45.9846 27.4367 38.6468 32.3885 34.7361 40.6584C31.9364 46.5788 30.9123 52.0949 32.3384 53.5736C33.3831 54.6567 33.4561 54.6162 39.7948 49.4232C48.3446 42.419 54.7294 42.0734 57.0918 48.4874C57.9742 50.8834 57.6742 55.5363 56.4602 58.2764C54.7129 62.2204 54.4598 62.3458 45.5339 63.6865C41.635 64.2719 37.4718 65.0628 36.2821 65.4437C31.5244 66.9677 30.1013 70.6761 31.5287 77.8325C32.9198 84.8063 34.8624 85.8867 41.2599 83.2436C48.0319 80.4459 52.8387 82.5828 52.8674 88.4034C52.8916 93.3223 55.8286 94.4788 59.3848 90.9697C62.0057 88.3831 62.7063 88.0142 64.9946 88.0142C67.2829 88.0142 67.9834 88.3831 70.6044 90.9697C74.1605 94.4788 77.0975 93.3223 77.1218 88.4034C77.1309 86.5467 78.0873 84.2971 79.2815 83.3232C81.6021 81.4306 84.3183 81.4491 89.1372 83.3905C95.2183 85.8402 97.0851 84.7274 98.4604 77.8325C99.9006 70.6122 98.5055 66.9806 93.7003 65.4419C92.5143 65.0618 88.3541 64.2719 84.4553 63.6865C75.5294 62.3458 75.2762 62.2204 73.5289 58.2764C72.4563 55.855 72.0389 51.0568 72.7159 48.93C74.8948 42.085 81.4048 42.2459 90.0799 49.359C94.003 52.5759 96.2805 54.2717 96.6788 54.2717C96.8431 54.2717 97.2804 53.9575 97.6507 53.5736C98.591 52.5986 98.5291 50.1961 97.4656 46.3913C94.1276 34.449 86.1965 27.7833 72.5694 25.4684C68.9046 24.8456 60.7971 24.8435 57.2514 25.4642ZM66.5015 55.5349C66.8011 55.8456 67.5714 57.1807 68.213 58.5023C68.8551 59.8235 69.8903 61.7314 70.5138 62.7423C72.0651 65.2566 72.7378 67.4961 72.7378 70.1465C72.7378 74.0571 70.902 75.1545 66.5937 73.8204C65.2131 73.3928 64.7761 73.3928 63.3954 73.8204C59.0872 75.1545 57.2514 74.0571 57.2514 70.1465C57.2514 67.4961 57.924 65.2566 59.4753 62.7423C60.0988 61.7314 61.1341 59.8235 61.7761 58.5023C62.4178 57.1807 63.188 55.8456 63.4877 55.5349C64.1883 54.8085 65.8009 54.8085 66.5015 55.5349Z" fill="#F3F3F3"/>
<defs>
<linearGradient id="paint0_linear_986_254" x1="65" y1="0.998236" x2="65" y2="130" gradientUnits="userSpaceOnUse">
<stop stop-color="#FF1A40" stop-opacity="0"/>
<stop offset="1" stop-color="#FF1A40"/>
</linearGradient>
</defs>
</svg>
