<svg width="530" height="761" viewBox="0 0 530 761" fill="none" xmlns="http://www.w3.org/2000/svg">
<path fill-rule="evenodd" clip-rule="evenodd" d="M408.115 16.5631C381.089 30.1427 374.239 34.0532 372.143 37.0974C367.044 44.5064 346.09 52.3618 321.796 55.9733C320.023 56.2369 305.639 55.761 289.833 54.9163C268.328 53.768 257.786 53.6847 247.95 54.5887C240.72 55.2542 218.875 56.2187 199.404 56.7346C157.26 57.8498 153.571 58.5906 145.142 67.6227C143.582 69.2938 139.615 72.4533 136.326 74.6437C133.038 76.8341 128.142 81.0756 125.449 84.0707C122.755 87.0647 119.024 90.3064 117.155 91.2743C101.417 99.4253 96.7532 110.495 93.1503 148.261L91.3734 166.885L80.7133 188.572C67.9942 214.447 57.8902 241.975 55.4007 257.533C54.0955 265.693 68.0136 335.763 73.6708 349.514C75.7378 354.536 78.233 362.84 79.2162 367.966C81.8861 381.884 87.0477 391.93 92.6878 394.185C96.7212 395.798 97.0318 396.207 95.8716 398.373C89.1694 410.891 88.7778 448.281 94.8518 495.833C98.7173 526.096 99.0485 535.76 96.2461 536.649C86.1901 539.84 85.3051 556.129 94.9717 560.131C98.8441 561.735 100.138 569.24 96.5408 569.24C92.5553 569.24 88.064 575.589 88.064 581.225C88.064 586.86 92.5553 593.21 96.5408 593.21C98.0116 593.21 98.3416 594.697 98.3416 601.335V609.46L94.0593 606.264C91.7034 604.505 83.4551 598.255 75.7275 592.373L61.6781 581.679L37.7804 594.372C14.7643 606.595 13.8416 607.218 12.7602 611.266C12.1435 613.576 9.01916 626.696 5.8194 640.42L0 665.372L15.5865 691.214C24.1592 705.426 32.0261 717.878 33.0687 718.883C35.7215 721.444 99.0142 761 100.456 761C101.106 761 116.647 751.546 134.991 739.991L168.346 718.981L184.596 692.177L200.847 665.374L194.029 636.425C190.28 620.505 187.13 607.393 187.028 607.289C186.926 607.185 176.144 601.375 163.069 594.378L139.293 581.656L121.18 595.423C111.216 602.995 102.901 609.19 102.702 609.189C102.502 609.189 102.255 605.852 102.155 601.775C101.97 594.378 101.979 594.358 105.916 592.491C115.459 587.964 115.493 574.5 105.97 569.984C101.894 568.051 100.798 562.515 104.265 561.375C105.089 561.105 107.5 559.154 109.621 557.04C113.138 553.536 113.426 552.742 112.894 548.021C112.26 542.402 108.961 537.899 104.694 536.829C102.381 536.249 102.108 535.428 101.91 528.457C101.677 520.223 98.9845 494.783 97.0455 482.491C95.2081 470.838 94.3813 417.379 95.9389 410.902C98.3781 400.759 100.512 397.158 104.534 396.404C106.545 396.027 110.985 393.951 114.4 391.789C120.249 388.089 120.723 387.973 122.558 389.804C128.439 395.67 129.452 416.313 125.256 444.824C121.249 472.052 120.678 483.456 122.75 494.926C124.512 504.692 126.005 507.821 127.951 505.833C128.607 505.164 128.389 502.36 127.38 498.507C125.075 489.692 125.359 470.92 128.072 452.814C133.955 413.561 133.342 400.507 124.911 385.352C124.7 384.973 131.354 379.079 139.699 372.255C148.042 365.43 164.24 352.014 175.695 342.442C205.105 317.864 240.803 291.326 254.218 284.066C284.175 267.853 312.277 245.931 341.025 216.355C347.945 209.236 357.72 200.49 362.75 196.919C375.085 188.165 437.273 157.183 442.513 157.183C447.549 157.183 530 119.94 530 117.665C530 115.115 528.842 115.537 501.12 128.177C486.543 134.823 474.066 140.493 473.393 140.775C472.705 141.065 471.595 138.786 470.847 135.548C464.121 106.422 441.11 66.4413 412.464 34.108C407.278 28.2536 403.21 23.3021 403.424 23.1035C403.638 22.9049 412.293 18.5309 422.656 13.3842C442.812 3.37268 444.673 2.24837 443.703 0.677764C442.74 -0.879148 443.516 -1.225 408.115 16.5631ZM408.794 35.6387C427.712 57.1512 443.289 79.8623 453.512 100.838C458.957 112.01 468.282 137.461 468.317 141.251C468.333 142.898 449.497 152.431 448.397 151.332C448.149 151.084 446.306 145.764 444.302 139.51C434.087 107.637 416.679 78.2506 389.364 46.771L379.23 35.0931L388.096 30.5627C392.972 28.071 397.733 26.0427 398.675 26.0563C399.617 26.0689 404.17 30.3812 408.794 35.6387ZM393.181 57.0154L396.573 61.29L393.554 62.4372C380.181 67.5188 366.448 52.0559 374.336 40.8002L376.261 38.0528L383.026 45.3968C386.745 49.4363 391.317 54.6652 393.181 57.0154ZM368.383 50.7444C370.179 60.4283 377.828 67.0098 387.288 67.0098C391.496 67.0098 391.901 67.2495 391.234 69.3497C387.256 81.8803 396.304 95.5455 408.578 95.5455C410.883 95.5455 411.318 95.9576 410.691 97.5431C406.183 108.938 411.055 120.502 422.147 124.737C425.608 126.057 426.91 127.087 426.209 127.95C421.208 134.093 422.533 145.708 428.927 151.778L432.816 155.471L401.081 171.451C363.636 190.307 355.769 195.687 335.433 216.347C306.21 246.033 277.83 267.821 250.738 281.369C242.626 285.426 199.19 317.61 181.133 332.943C139.649 368.168 120.579 382.895 115.864 383.345L111.216 383.788L113.872 379.582C122.419 366.048 123.199 351.259 116.314 333.221L112.275 322.636L119.671 316.1C123.74 312.505 127.762 309.175 128.609 308.698C130.343 307.723 146.554 319.375 151.287 324.997C154.483 328.794 156.581 329.377 156.581 326.469C156.581 324.248 147.101 315.158 139.196 309.798C136.228 307.786 133.788 305.866 133.772 305.53C133.756 305.195 136.441 302.259 139.737 299.006L145.733 293.092L163.651 294.308C191.994 296.232 205.025 294.726 222.244 287.539C229.78 284.392 239.315 280.969 243.43 279.93C247.546 278.893 254.997 275.816 259.989 273.094L269.064 268.145L268.655 260.89C268.205 252.92 267.326 250.566 263.107 246.04L260.284 243.012L265.816 239.89C281.264 231.169 286.561 227.828 290.462 224.345L294.73 220.532L292.542 212.542C290.746 205.98 289.516 203.803 285.662 200.364C281.211 196.392 272.726 192.567 268.366 192.567C267.264 192.567 266.042 191.558 265.65 190.325C264.511 186.737 255.597 179.611 249.526 177.435C237.46 173.113 225.302 175.707 215.787 184.637L209.852 190.206L205.2 185.93C202.641 183.577 198.877 180.965 196.835 180.123C192.455 178.318 192.236 177.338 195.676 174.93C199.987 171.912 212.499 156.934 215.745 150.905C218.664 145.484 218.818 144.397 218.812 129.218C218.803 108.593 214.616 87.3033 211.233 90.6853C210.537 91.3805 211.047 96.0912 212.635 103.65C215.885 119.105 216.252 140.806 213.373 147.292C211.567 151.359 197.122 169.739 195.73 169.739C195.387 169.739 195.387 167.647 195.731 165.091C197.437 152.379 189.02 127.251 184.077 130.304C183.376 130.738 184.237 133.596 186.279 137.613C190.754 146.417 192.408 154.776 191.651 164.779C190.836 175.532 190.143 176.544 181.845 179.09C177.139 180.534 174.852 181.825 174.852 183.04C174.852 184.34 175.57 184.664 177.422 184.201C178.836 183.847 182.403 182.937 185.352 182.178C195.893 179.464 209.079 190.918 210.253 203.808C210.567 207.257 211.448 210.285 212.209 210.536C214.403 211.258 215.153 205.787 213.754 199.27L212.472 193.291L217.321 188.353C229.228 176.225 247.957 176.171 258.859 188.232L263.106 192.931L259.804 195.299C253.442 199.86 245.882 207.523 244.533 210.779C242.826 214.898 217.946 235.942 214.783 235.942C214.322 235.942 213.677 234.914 213.348 233.659C213.02 232.403 211.876 231.376 210.807 231.376C209.319 231.376 209.027 232.027 209.561 234.152C211.991 243.833 176.823 233.072 151.614 216.422L142.648 210.5L146.771 209.084C153.34 206.827 157.992 201.451 151.728 203.355C143.582 205.831 141.118 206.117 139.741 204.75C137.463 202.489 136.268 188.557 135.395 154.044C134.733 127.951 134.28 121.798 133.018 121.798C129.263 121.798 131.876 198.171 135.898 205.97C141.351 216.545 161.999 229.423 186.805 237.72C206.881 244.435 215.527 242.585 232.521 227.939C236.918 224.149 244.883 218.17 250.221 214.649C265.115 204.828 269.526 200.96 268.838 198.328C267.708 194.011 279.883 199.192 284.915 205.17C288.736 209.709 288.722 209.783 283.477 212.776C275.781 217.168 266.579 226.451 264.317 232.104C262.452 236.762 260.781 238.324 249.65 245.807C237.279 254.126 237.06 254.218 235.193 251.946C232.376 248.518 230.487 249.004 231.351 252.935C232.07 256.208 232.023 256.241 224.876 257.484C202.015 261.463 192.25 261.551 158.967 258.081C135.884 255.674 131.313 253.533 137.209 247.888C139.071 246.105 140.594 243.972 140.594 243.147C140.594 240.569 137.674 241.504 134.457 245.113C132.759 247.018 130.868 248.268 130.256 247.889C125.063 244.682 114.724 202.867 112.414 175.731C111.763 168.085 110.129 165.232 108.192 168.364C107.643 169.252 110.205 192.453 111.514 198.44C112.155 201.373 111.985 201.482 105.543 202.229C101.895 202.652 96.2141 203.911 92.9162 205.027C89.6194 206.142 86.9221 206.694 86.9221 206.252C86.9221 205.81 88.9353 195.745 91.3963 183.884C93.8572 172.024 96.4608 155.643 97.1837 147.484C99.865 117.192 102.561 108.453 111.837 99.9777C118.976 93.4567 119.686 93.7033 117.233 101.849C116.137 105.493 115.929 107.874 116.646 108.591C118.318 110.262 119.551 108.351 121.73 100.716C124.52 90.9399 127.157 86.3525 132.413 82.1337C137.718 77.8751 138.879 77.5109 137.208 80.6316C135.599 83.637 135.72 86.4141 137.46 86.4141C138.249 86.4141 140.083 83.823 141.537 80.6544C144.878 73.3755 150.023 67.4892 155.47 64.7109C161.339 61.7181 181.831 59.7537 199.696 60.4694C208.404 60.8186 222.506 60.3484 234.805 59.2971C252.234 57.8087 260.397 57.7391 288.477 58.8394C329.21 60.4363 339.019 59.2572 357.655 50.5195C368.105 45.6193 367.429 45.6056 368.383 50.7444ZM379.548 51.8493C377.899 52.4405 377.621 56.294 379.159 57.2437C380.695 58.1922 383.83 56.7152 383.83 55.0419C383.83 53.0911 381.314 51.2146 379.548 51.8493ZM410.242 79.9467C414.034 85.493 416.878 90.287 416.564 90.6009C416.25 90.9148 414.024 91.4124 411.617 91.7058C399.132 93.2307 389.958 78.9651 396.511 68.2185L398.907 64.2909L401.128 67.0771C402.35 68.6089 406.451 74.4005 410.242 79.9467ZM399.109 80.0814C398.238 82.3517 399.528 84.1312 402.046 84.1312C404.292 84.1312 405.503 82.1714 404.692 79.8509C404.006 77.883 399.888 78.0531 399.109 80.0814ZM426.48 106.822C434.275 121.818 434.272 121.798 427.835 121.798C418.932 121.798 411.054 112.165 412.938 103.585C413.699 100.126 417.563 94.4041 419.139 94.4041C419.627 94.4041 422.929 99.9914 426.48 106.822ZM419.516 107.762C417.756 108.415 417.634 112.252 419.34 113.305C421.63 114.72 424.585 110.664 422.615 108.809C421.696 107.943 420.302 107.471 419.516 107.762ZM440.24 139.755C445.228 155.301 445.233 154.177 440.19 153.232C426.814 150.723 422.418 135.003 432.755 126.645C435.225 124.647 435.608 125.321 440.24 139.755ZM431.154 140.171C430.728 140.859 431.186 142.228 432.17 143.212C434.302 145.343 437.799 143.305 436.741 140.549C436.004 138.628 432.264 138.375 431.154 140.171ZM346.146 176.746C331.122 187.1 311.987 191.223 291.184 188.587C286.906 188.045 284.496 188.193 283.979 189.031C281.574 192.92 304.594 194.927 318.777 192.064C333.482 189.095 355.66 177.688 353.504 174.2C352.53 172.625 351.715 172.908 346.146 176.746ZM84.5183 198.375C83.1513 205.104 81.4156 210.655 80.5169 211.173C78.2467 212.477 78.346 224.906 80.6413 226.81C81.6657 227.659 82.3543 230.156 82.3543 233.015C82.3543 247.129 87.2886 272.72 91.0308 278.012C93.1606 281.025 100.978 284.959 104.908 284.998C108.098 285.029 108.398 291.43 105.833 304.828L104.188 313.419L108.623 324.27C114.574 338.835 117.755 349.416 117.755 354.65C117.755 360.992 113.723 372.973 109.738 378.47C104.956 385.071 95.4468 390.876 98.3736 385.409C103.568 375.709 92.553 352.098 83.6618 353.875C80.5191 354.503 80.1709 354.176 77.4324 348.032C74.7214 341.949 72.063 332.758 70.5145 324.117C69.8841 320.598 70.028 320.408 73.3306 320.408C76.0358 320.408 76.7233 319.962 76.415 318.41C76.1706 317.185 75.144 316.521 73.7611 316.693C69.6169 317.21 68.8678 315.367 64.831 294.718C58.6884 263.302 58.6679 263.088 61.9396 263.362C68.0205 263.87 70.9347 263.307 70.9347 261.624C70.9347 260.331 69.5393 259.912 65.225 259.912C58.1745 259.912 58.194 260.109 63.4093 242.025C68.9968 222.646 84.8243 184.383 86.5429 186.101C86.7576 186.314 85.8463 191.838 84.5183 198.375ZM290.406 195.706C291.171 199.689 330.254 216.898 332.786 214.367C334.536 212.618 333.116 211.636 324.448 208.601C320.366 207.171 311.17 203.236 304.012 199.855C289.171 192.846 289.9 193.068 290.406 195.706ZM265.053 199.13C265.039 199.958 260.253 203.43 253.101 207.804C250.79 209.218 251.656 207.994 255.726 204.095C261.181 198.868 265.092 196.786 265.053 199.13ZM113.623 208.73C114.523 213.226 115.169 212.772 105.119 214.697C100.45 215.592 93.8332 217.386 90.4165 218.687C86.9986 219.986 84.0855 220.932 83.9427 220.788C83.7988 220.645 83.3443 219.182 82.931 217.538C81.5835 212.17 92.8659 207.344 111.617 205.266C112.324 205.187 113.226 206.746 113.623 208.73ZM289.048 217.108C291.234 219.74 288.066 222.524 271.633 232.41C263.217 237.473 269.501 228.305 280.3 219.766C286.501 214.863 287.046 214.697 289.048 217.108ZM117.713 227.666C124.304 253.105 130.482 258.799 154.659 261.714C199.752 267.151 228.732 264.237 246.756 252.451C258.058 245.062 257.091 245.205 261.522 250.249C265.182 254.416 266.493 257.95 263.438 255.416C262.156 254.352 260.215 254.702 254.315 257.061C238.138 263.53 231.95 268.572 231.95 275.283C231.95 278.778 231.527 279.119 221.958 283.295C204.638 290.856 202.654 291.223 201.23 287.141C199.874 283.251 197.692 283.747 197.692 287.944V290.73H177.149C158.191 290.73 155.173 290.431 138.037 286.851C127.823 284.717 116.384 282.62 112.616 282.191C101.24 280.897 100.858 280.656 105.03 277.393C111.464 272.359 109.472 269.34 102.909 274.18C100.781 275.749 98.0835 277.033 96.913 277.033C92.3795 277.033 88.3289 261.053 86.3191 235.232L85.5083 224.82L90.4975 222.916C98.2377 219.962 106.504 217.893 111.016 217.78L115.125 217.679L117.713 227.666ZM263.426 261.574C265.918 265.375 265.097 266.276 254.464 271.415C240.411 278.208 234.574 278.63 236.115 272.742C236.822 270.042 245.488 264.523 254.642 260.944C261.429 258.29 261.266 258.278 263.426 261.574ZM127.461 288.622C134.37 289.975 140.244 291.267 140.516 291.494C141.656 292.448 112.721 318.125 110.506 318.125C110.243 318.125 109.725 316.97 109.353 315.556C108.395 311.905 112.175 286.165 113.671 286.163C114.347 286.163 120.553 287.27 127.461 288.622ZM91.9147 365.203C96.3535 374.076 96.905 380.322 93.6996 385.436L91.2158 389.398L88.6019 384.257C85.8886 378.921 83.0725 369.806 81.8107 362.278L81.0798 357.921L84.8574 358.283C88.1896 358.603 89.021 359.418 91.9147 365.203ZM112.045 388.949C107.842 391.802 105.725 392.48 108.46 390.099C109.943 388.808 111.741 387.76 112.457 387.769C113.172 387.779 112.987 388.31 112.045 388.949ZM67.6242 610.7L74.0203 631.448L68.6097 637.725C65.6338 641.178 61.2133 646.217 58.7878 648.923L54.3764 653.842L31.6938 657.82C19.2179 660.01 8.61033 661.648 8.12157 661.463C7.63282 661.277 19.1243 644.881 33.6591 625.027C48.1939 605.173 60.3431 589.159 60.6571 589.441C60.9712 589.723 64.1058 599.289 67.6242 610.7ZM166.853 624.713C181.386 644.551 193.022 661.036 192.713 661.345C192.403 661.656 181.962 660.115 169.512 657.921L146.875 653.934L139.629 646.115C135.645 641.814 131.144 636.702 129.629 634.753L126.874 631.211L133.44 609.927C137.05 598.222 140.101 588.644 140.217 588.644C140.334 588.644 152.319 604.875 166.853 624.713ZM83.9793 603.448L98.3416 614.256V627.715V641.173L88.1691 636.066C76.6377 630.276 78.5481 633.466 70.358 606.336C68.0844 598.803 65.9878 591.927 65.7 591.057C65.0719 589.155 64.2132 588.573 83.9793 603.448ZM133.762 595.778C132.685 599.074 129.838 608.224 127.435 616.112L123.067 630.453L113.114 635.802C107.641 638.744 102.976 641.149 102.75 641.147C102.523 641.146 102.372 635.154 102.412 627.83L102.485 614.516L118.399 602.218C127.152 595.455 134.629 589.89 135.017 589.853C135.403 589.816 134.838 592.481 133.762 595.778ZM173.14 604.094C178.792 607.103 183.497 609.61 183.594 609.663C184.026 609.901 194.237 654.115 193.931 654.42C193.649 654.702 169.064 621.5 150.387 595.617L145.906 589.406L154.384 594.014C159.047 596.549 167.487 601.085 173.14 604.094ZM52.4431 592.994C35.0785 617.048 7.71847 653.677 7.37246 653.331C6.88713 652.846 16.6325 610.556 17.3897 609.86C18.4791 608.859 52.1907 590.958 53.0141 590.943C53.5199 590.934 53.263 591.857 52.4431 592.994ZM112.078 640.563L124.256 634.458L133.727 645.332L143.199 656.208L140.708 671.173C139.338 679.404 138.109 686.217 137.978 686.312C125.466 695.383 101.176 711.918 100.365 711.918C99.423 711.918 66.7609 689.495 63.6262 686.697C63.0621 686.193 61.4748 679.092 60.101 670.918L57.6036 656.056L67.2348 645.17L76.8672 634.285L88.3826 640.476L99.8993 646.667L112.078 640.563ZM54.2234 660.269C54.5374 661.367 55.6737 667.776 56.7471 674.51L58.6987 686.753L51.9703 694.379C48.2692 698.573 42.9283 704.715 40.102 708.028C37.2757 711.341 34.7063 714.064 34.3922 714.079C33.4924 714.12 5.56132 667.303 6.14143 666.725C6.73753 666.129 47.4025 658.617 51.1595 658.409C52.6361 658.327 53.8842 659.085 54.2234 660.269ZM171.867 662.23C184.356 664.406 194.74 666.355 194.945 666.559C195.668 667.282 167.2 713.272 166.181 713.03C165.612 712.894 159.979 706.908 153.662 699.725L142.179 686.665L144.473 672.468C145.735 664.66 147.307 658.271 147.965 658.271C148.624 658.271 159.38 660.052 171.867 662.23ZM80.1035 703.059L98.3416 715.885V735.684C98.3416 746.573 97.8997 755.312 97.3595 755.102C96.8194 754.893 82.9869 746.286 66.6216 735.974L36.8657 717.227L48.8436 703.729C55.4316 696.305 61.0568 690.231 61.3446 690.231C61.6312 690.231 70.0737 696.003 80.1035 703.059ZM150.95 702.422C156.874 709.127 162.103 715.239 162.57 716.006C163.281 717.171 109.678 752.5 103.736 754.783C102.662 755.196 102.393 750.766 102.574 735.617L102.809 715.913L120.845 703.084C130.765 696.027 139.173 690.25 139.531 690.243C139.888 690.237 145.027 695.717 150.95 702.422Z" fill="#FF1940"/>
</svg>
