<svg width="460" height="610" viewBox="0 0 460 610" fill="none" xmlns="http://www.w3.org/2000/svg">
<path fill-rule="evenodd" clip-rule="evenodd" d="M215.47 0.356645C117.356 5.53766 31.1018 77.2725 6.91959 173.802C-0.21772 202.292 0.00072681 198.159 0.00072681 304.853C0.00072681 393.184 0.146689 401.814 1.82378 412.395C18.0118 514.552 93.4272 590.926 195.115 608.141C208.316 610.376 247.584 610.666 261.146 608.629C363.939 593.192 441.694 515.641 457.932 412.359C460.7 394.757 460.685 214.549 457.914 197.811C449.652 147.895 429.88 107.116 397.094 72.3776C349.496 21.943 285.707 -3.3518 215.47 0.356645ZM262.635 4.78236C354.353 18.8768 428.417 86.377 450.75 176.225C456.916 201.035 456.757 197.588 456.757 305.353V403.891L454.427 416.896C431.962 542.295 316.303 625.322 192.633 604.829C106.552 590.565 35.2037 526.473 11.0016 441.67C2.86339 413.151 3.06993 416.43 2.71942 310.511C2.44934 229.193 2.6231 214.448 3.96953 203.97C18.0158 94.6473 102.834 13.0346 212.988 2.85161C221.89 2.02829 252.452 3.21675 262.635 4.78236ZM212.821 22.2562C117.395 30.8665 42.4343 99.8033 24.1035 195.811C22.0799 206.408 21.9876 210.182 21.6043 297.85C21.3332 360.003 21.5556 392.308 22.3063 399.673C31.2806 487.778 94.7408 561.598 179.464 582.485C299.721 612.133 417.685 532.264 436.593 408.393C438.85 393.608 438.439 213.09 436.117 199.224C417.807 89.8834 320.246 12.5644 212.821 22.2562ZM263.861 27.1571C353.701 42.9582 421.128 113.049 433.991 204.009C435.831 217.018 436.132 389.034 434.341 403.64C423.873 488.989 362.503 558.898 279.515 580.006C272.193 581.869 258.318 584.419 257.87 583.984C257.706 583.825 263.48 578.803 270.701 572.824C283.479 562.243 332.27 514.439 335.402 509.432C337.366 506.292 339.926 489.644 341.722 468.341C342.419 460.068 340.097 455.054 327.918 438.534C319.758 427.465 319.443 426.83 316.277 415.025C309.349 389.189 299.554 368.444 291.141 361.782C276.022 349.812 253.521 333.762 248.734 331.532C245.73 330.133 240.706 327.085 237.568 324.759C229.432 318.725 223.88 316.751 219.102 318.193C210.466 320.799 209.788 322.949 203.588 367.377C198.223 405.821 192.957 434.579 189.759 442.907C183.031 460.424 178.877 484.258 177.731 511.933C176.994 529.767 175.358 537.611 168.766 554.95C165.837 562.653 162.981 570.194 162.421 571.709L161.402 574.461L157.158 572.841C85.7785 545.591 34.8115 480.069 25.3715 403.417C23.6041 389.059 23.9784 218.084 25.8094 204.115C38.1825 109.679 113.228 36.2256 208.52 25.2803C221.278 23.8148 250.492 24.8061 263.861 27.1571ZM180.221 50.3451C180.221 50.9443 182.163 53.7584 184.536 56.5975C197.192 71.7364 207.745 93.3838 213.021 115.029C213.591 117.368 214.544 119.281 215.139 119.281C217.908 119.281 210.941 96.0748 203.98 82.1154C195.283 64.6726 180.221 44.5318 180.221 50.3451ZM228.046 74.9856C226.741 77.4836 225.021 92.1713 224.849 102.274C224.67 112.837 224.707 113.279 225.762 113.279C226.234 113.279 226.936 107.764 227.322 101.024C227.708 94.2831 228.582 85.4817 229.264 81.4641C230.474 74.3474 229.919 71.3992 228.046 74.9856ZM172.505 79.4534C173.118 81.3081 175.256 81.6152 175.256 79.8485C175.256 78.9782 174.549 78.2649 173.684 78.2649C172.819 78.2649 172.288 78.7991 172.505 79.4534ZM245.425 89.9364C244.282 91.0869 244.701 92.2703 246.252 92.2703C247.071 92.2703 247.741 91.5951 247.741 90.7698C247.741 89.2072 246.566 88.785 245.425 89.9364ZM306.964 99.5042C302.326 105.643 287.355 137.59 288.576 138.738C289.36 139.475 289.819 139.444 290.117 138.633C291.279 135.464 307.461 103.356 309.28 100.61C312.131 96.3059 310.108 95.3415 306.964 99.5042ZM350.511 103.473C330.5 117.168 302.353 141.606 302.353 145.284C302.353 147.68 304.979 145.804 311.553 138.712C320.052 129.543 335.658 116.752 350.753 106.581C356.893 102.444 361.67 98.6578 361.368 98.1656C360.497 96.7471 359.94 97.0192 350.511 103.473ZM169.103 110.501L168.802 115.779L163.563 116.083C157 116.463 157.686 118.28 164.392 118.28H169.298V123.842C169.298 127.294 169.675 129.169 170.291 128.785C170.837 128.444 171.284 125.942 171.284 123.223V118.28H176.19C178.889 118.28 181.373 117.83 181.71 117.28C182.091 116.659 180.231 116.28 176.804 116.28H171.284V111.337C171.284 104.58 169.48 103.889 169.103 110.501ZM90.218 107.505C89.8297 108.14 90.0283 108.833 90.6598 109.045C101.207 112.586 126.892 128.942 142.725 142.198C148.043 146.65 152.623 150.293 152.903 150.293C159.2 150.293 123.95 122.82 105.001 112.959C93.2733 106.857 91.1066 106.058 90.218 107.505ZM263.132 112.278C262.736 112.924 262.858 113.903 263.404 114.453C264.066 115.12 264.637 115.062 265.118 114.279C265.514 113.633 265.392 112.654 264.846 112.104C264.183 111.437 263.612 111.495 263.132 112.278ZM242.334 122.035C241.819 124.394 240.981 125.212 238.503 125.774L235.329 126.493L238.41 127.379C240.692 128.035 241.742 129.111 242.459 131.526L243.426 134.787L244.171 131.544C244.747 129.037 245.63 128.096 248.067 127.397L251.216 126.493L247.989 125.763C245.981 125.309 244.756 124.419 244.747 123.407C244.715 119.885 243.014 118.918 242.334 122.035ZM118.11 140.374C117.266 141.749 115.936 140.944 134.425 150.251C145.27 155.71 151.02 158.104 151.682 157.437C152.345 156.769 147.024 153.585 135.714 147.881C125.269 142.612 118.506 139.728 118.11 140.374ZM337.796 140.928C337.002 141.728 337.899 143.29 339.151 143.29C339.665 143.29 340.085 142.615 340.085 141.79C340.085 140.243 338.914 139.802 337.796 140.928ZM183.2 155.897C173.941 159.292 167.96 165.228 163.139 175.803C159.391 184.023 159.836 203.882 164.016 214.95C172.867 238.388 192.79 261.499 221.52 281.655L229.557 287.293L237.456 281.848C286.315 248.171 309.976 203.262 294.779 173.049C283.27 150.167 257.476 148.362 235.84 168.926L229.067 175.363L226.906 172.582C216.365 159.01 195.955 151.219 183.2 155.897ZM208.699 161.311C213.344 163.616 217.678 166.927 222.541 171.891L229.62 179.117L237.154 171.672C242.385 166.504 246.749 163.245 251.428 161.012C269.641 152.321 288.661 160.285 294.4 179.006C303.59 208.988 282.171 246.466 237.428 278.687L229.598 284.326L223.031 279.647C180.957 249.669 158.224 213.738 163.342 185.301C167.624 161.508 187.694 150.893 208.699 161.311ZM325.39 162.498C323.548 164.353 323.978 167.11 326.305 168.365C328.037 169.299 328.762 169.149 330.376 167.522C331.992 165.895 332.141 165.165 331.213 163.42C329.968 161.075 327.232 160.642 325.39 162.498ZM124.997 177.746C123.939 180.522 125.068 182.806 127.5 182.806C130.632 182.806 132.406 180.028 130.643 177.888C129.012 175.909 125.728 175.826 124.997 177.746ZM374.838 182.463C363.939 189.329 340.986 200.185 333.135 202.187C325.945 204.021 323.842 205.966 329.365 205.672C338.361 205.194 383.775 183.131 383.775 179.237C383.775 177.496 381.31 178.387 374.838 182.463ZM105.977 180.493C106.591 182.347 108.728 182.654 108.728 180.888C108.728 180.016 108.022 179.304 107.157 179.304C106.292 179.304 105.761 179.838 105.977 180.493ZM70.0035 198.144C70.0035 198.722 70.4156 199.45 70.918 199.763C73.2276 201.202 122.208 209.316 128.579 209.316C129.677 209.316 130.573 208.703 130.573 207.953C130.573 206.98 128.374 206.393 122.878 205.898C115.824 205.263 78.0593 199.131 72.4154 197.704C71.0094 197.348 70.0035 197.532 70.0035 198.144ZM277.433 211.889C271.758 225.044 251.939 248.699 238.556 258.294C233.927 261.613 232.708 263.337 234.991 263.337C238.678 263.337 259.981 243.154 268.852 231.257C276.064 221.585 282.172 209.591 280.661 208.069C279.855 207.257 278.99 208.279 277.433 211.889ZM331.149 214.259C331.149 214.777 331.543 215.445 332.023 215.745C333.911 216.92 368.434 222.139 369.215 221.366C370.616 219.983 368.839 219.514 350.277 216.363C329.741 212.877 331.149 213.032 331.149 214.259ZM113.978 228.825C83.1988 236.285 60.5993 243.524 61.3867 245.672C61.6201 246.309 62.2029 246.719 62.6805 246.583C63.1581 246.447 68.6879 244.574 74.9683 242.422C81.2487 240.269 95.9939 236.16 107.736 233.29C119.477 230.421 130.76 227.662 132.807 227.16C136.873 226.161 137.878 224.285 134.297 224.383C133.068 224.416 123.925 226.415 113.978 228.825ZM128.077 238.702C116.278 243.02 99.792 250.928 99.792 252.27C99.792 253.947 100.674 253.658 113.139 247.878C119.61 244.879 128.861 241.164 133.695 239.625C138.529 238.086 142.486 236.489 142.487 236.076C142.491 234.495 136.678 235.554 128.077 238.702ZM346.847 242.079C346.556 245.63 346.34 245.847 342.795 246.142C338.204 246.524 338.884 248.331 343.619 248.331C346.862 248.331 347.036 248.509 347.036 251.832C347.036 253.758 347.483 255.334 348.029 255.334C348.575 255.334 349.022 253.758 349.022 251.832C349.022 248.509 349.196 248.331 352.439 248.331C357.174 248.331 357.854 246.524 353.263 246.142C349.718 245.847 349.501 245.63 349.21 242.079C349.041 240.016 348.509 238.327 348.029 238.327C347.548 238.327 347.017 240.016 346.847 242.079ZM134.352 275.066L134.049 279.843L130.077 280.128C123.507 280.6 122.742 281.714 128.587 282.298L134.049 282.844L134.591 288.346C135.171 294.236 136.277 293.465 136.745 286.846L137.027 282.844L142.266 282.541C148.83 282.161 148.144 280.343 141.437 280.343H136.531V275.901C136.531 269.812 134.73 269.123 134.352 275.066ZM328.666 272.34C327.835 273.695 328.956 275.341 330.711 275.341C331.498 275.341 332.142 274.441 332.142 273.341C332.142 271.27 329.746 270.58 328.666 272.34ZM295.132 280.95C294.8 281.284 298.556 285.417 303.478 290.136C312.681 298.96 324.994 314.492 330.313 323.985C333.569 329.799 334.658 330.927 335.572 329.435C337.212 326.762 320.256 303.307 307.133 290.097C297.769 280.671 296.425 279.646 295.132 280.95ZM176.515 294.205C173.308 296.894 168.743 301.291 166.371 303.975C157.006 314.572 144.07 337.359 146.202 339.506C146.859 340.168 148.717 337.341 151.733 331.095C157.639 318.863 165.929 307.711 176.167 298.223C185.349 289.714 185.622 286.569 176.515 294.205ZM283.236 289.933C282.913 290.258 283.941 292.575 285.519 295.083C288.978 300.578 291.435 307.654 292.857 316.218C294.078 323.573 296.037 324.531 295.611 317.564C294.911 306.142 286.279 286.868 283.236 289.933ZM231.394 323.846C238.724 328.143 240.41 329.915 238.907 331.739C235.328 336.083 221.925 327.293 221.925 320.601C221.925 319.659 227.524 321.576 231.394 323.846ZM215.787 325.45C213.562 331.88 217.119 343.963 223.166 350.515C224.508 351.969 229.023 355.048 233.198 357.357C237.374 359.666 240.791 361.76 240.791 362.01C240.791 364.228 237.245 376.045 236.408 376.616C235.815 377.02 231.382 377.357 226.559 377.366C219.981 377.377 217.894 377.694 218.214 378.632C218.516 379.516 221.272 379.86 227.628 379.808L236.615 379.733L237.203 383.309C238.307 390.037 237.987 390.92 233.189 394.393C230.646 396.232 224.093 402.049 218.628 407.317C209.703 415.921 208.239 417.854 204.253 426.298C201.811 431.469 198.611 437.546 197.142 439.803C194.041 444.565 190.15 453.856 190.15 456.5C190.15 460.104 196.983 465.415 201.62 465.415C204.708 465.415 204.729 465.113 200.704 478.783C197.077 491.101 197.166 491.792 202.81 495.135C208.576 498.549 215.015 498.781 220.1 495.758C222.788 494.16 224.696 493.827 229.063 494.192C241.939 495.268 250.408 487.941 252.207 474.169C252.826 469.425 252.834 469.417 256.674 469.417C258.79 469.417 261.613 468.999 262.947 468.487L265.375 467.557L265.81 479.242C266.317 492.882 267.147 495.001 275.396 503.713C282.779 511.512 294.216 520.031 295.528 518.71C296.196 518.037 294.44 516.206 290.209 513.163C274.308 501.732 268.593 493.261 268.593 481.128V473.463L272.527 477.763C276.643 482.262 284.283 487.001 288.36 487.583C292.711 488.204 291.523 485.925 286.573 484.155C281.002 482.161 272.848 475.22 270.152 470.177C268.319 466.747 268.319 466.743 270.982 462.165C272.969 458.75 273.334 457.391 272.419 456.821C271.745 456.401 271.053 456.475 270.882 456.985C269.817 460.161 266.229 464.609 264.059 465.44C257.253 468.047 246.106 465.384 244.331 460.726C243.831 459.411 243.46 459.331 242.495 460.33C241.539 461.321 242.168 462.375 245.507 465.385C249.106 468.63 249.724 469.757 249.705 473.054C249.644 483.939 238.571 494.071 229.04 491.963L226.393 491.376L226.642 477.145C226.956 459.268 228.567 449.952 231.37 449.807C235.045 449.617 235.333 449.348 233.424 447.892C231.544 446.46 231.544 446.41 233.424 444.315C237.583 439.676 254.297 433.106 267.251 431.016C271.855 430.274 275.478 429.944 275.302 430.284C272.595 435.529 272.307 436.544 273.254 437.498C273.969 438.219 274.882 437.383 276.222 434.781C277.286 432.716 278.618 430.87 279.18 430.681C280.982 430.076 290.555 438.91 304.816 454.338C313.296 463.512 319.055 468.997 319.615 468.432C320.654 467.385 308.025 453.232 292.659 438.224C284.818 430.566 281.951 428.389 278.963 427.824C273.524 426.796 260.752 429.036 250.022 432.9C231.388 439.609 227.618 443.522 225.262 458.591C224.459 463.72 222.658 472.759 221.259 478.677C219.209 487.348 218.954 489.73 219.945 490.932C222.147 493.605 210.911 496.929 207.362 494.654C206.488 494.094 206.55 492.566 207.61 488.449C209.398 481.5 209.392 475.666 207.588 472.184C206.317 469.731 206.421 468.514 208.587 460.357C209.915 455.356 211.002 451.073 211.002 450.838C211.002 450.603 212.119 450.409 213.484 450.409C216.35 450.409 216.636 449.622 214.375 447.956C209.417 444.304 252.235 405.392 261.21 405.392C261.448 405.392 261.642 406.48 261.642 407.811C261.642 409.141 261.913 410.942 262.245 411.812C263.361 414.744 264.621 413.426 264.621 409.326C264.621 405.568 264.792 405.31 266.855 405.951C273.068 407.882 285.366 416.081 300.125 428.132C310.53 436.627 314.565 438.442 308.243 431.785C302.834 426.088 280.624 409.611 273.701 406.159C266.855 402.746 260.004 402.086 255.59 404.416C250.474 407.116 230.06 423.183 224.407 428.959C213.931 439.664 209.909 445.722 207.339 454.658C204.538 464.402 205.022 463.829 200.375 462.906C198.3 462.494 197.175 461.949 197.872 461.694C199.408 461.131 202.688 454.823 205.015 447.956C206.72 442.925 206.172 437.404 203.969 437.404C202.391 437.404 202.944 435.494 207.174 426.321C211.471 417.006 211.597 416.856 213.933 418.346C216.153 419.762 217.281 418.413 215.52 416.451C214.06 414.827 214.629 414.094 223.647 405.984C229.165 401.021 238.051 394.419 244.266 390.663C250.273 387.034 257.259 382.56 259.79 380.722C265.441 376.618 265.304 376.614 264.81 380.882C264.278 385.475 266.191 385.43 267.048 380.829C268.233 374.468 272.377 375.336 282.727 384.115C296.275 395.606 301.833 402.143 310.741 417.064C315.586 425.18 322.899 436.34 326.991 441.865C337.189 455.631 340.486 462.843 339.589 469.416C338.781 475.335 338.047 475.627 335.817 470.917C334.905 468.992 333.706 467.416 333.151 467.416C331.587 467.416 331.932 469.067 334.613 474.397C337.12 479.382 337.639 482.13 337.257 488.424C337.068 491.569 336.933 491.722 335.937 489.925C334.41 487.17 334.382 487.148 333.297 487.823C332.699 488.195 332.886 490.218 333.794 493.175C337.154 504.128 333.631 510.62 315.617 526.669C309.687 531.952 300.692 540.789 295.628 546.306C290.564 551.823 279.317 562.219 270.636 569.409C261.954 576.598 254.681 582.995 254.472 583.623C253.822 585.589 231.891 586.644 215.984 585.475C196.612 584.05 164.334 577.263 164.334 574.614C164.334 574.193 166.976 567.019 170.206 558.671C177.847 538.925 179.275 532.347 180.27 512.349C181.656 484.514 185.107 464.287 191.691 445.431C195.946 433.245 200.006 411.58 206.093 368.584C211.259 332.093 212.271 326.879 214.724 324.11C216.864 321.694 217.019 321.89 215.787 325.45ZM226.779 331.909C231.944 335.353 238.179 336.245 240.742 333.909C242.944 331.9 245.092 332.337 251.713 336.135C260.657 341.266 262.885 343.434 261.172 345.34C259.143 347.599 260.341 348.614 262.998 346.889C265.159 345.485 272.817 350.396 288.272 363.099L292.561 366.624L290.01 369.306C286.064 373.456 287.414 375.425 291.431 371.379C294.509 368.278 295.071 368.753 299.997 378.632C305.743 390.154 315.306 416.396 313.759 416.396C313.568 416.396 311.258 412.743 308.627 408.277C301.208 395.686 278.977 375.307 271.021 373.804C268.616 373.349 266.465 373.737 263.676 375.126L259.733 377.092L257.844 374.985C256.806 373.827 254.394 370.503 252.485 367.6C249.505 363.067 247.864 361.761 240.872 358.354C228.007 352.086 224.492 349.229 221.013 342.216C216.685 333.489 216.691 319.094 221.02 326.267C222.021 327.926 224.612 330.464 226.779 331.909ZM169.263 337.433C168.093 339.635 170.21 344.368 172.365 344.368C176.403 344.368 178.786 339.321 176.05 336.565C174.178 334.679 170.475 335.152 169.263 337.433ZM246.207 363.997C247.092 364.339 248.449 365.855 249.225 367.365C250 368.876 252.192 372.167 254.095 374.68L257.555 379.248L252.897 382.169C245.037 387.096 241.081 389.386 240.425 389.386C239.171 389.386 239.813 377.704 241.456 370.628C243.173 363.232 243.402 362.912 246.207 363.997ZM203.53 444.407C202.332 449.319 197.8 458.413 196.55 458.413C192.372 458.413 192.135 457.46 194.642 450.75C195.974 447.185 198.039 442.889 199.232 441.201C201.3 438.274 201.462 438.22 202.77 440.02C203.576 441.13 203.889 442.937 203.53 444.407ZM205.289 486.919C204.334 491.527 201.073 493.277 201.073 489.18C201.073 486.865 203.46 477.478 204.826 474.419C205.851 472.126 206.23 482.376 205.289 486.919ZM224.399 482.672C224.019 485.561 223.307 488.352 222.816 488.874C221.612 490.158 221.675 488.662 223.088 482.498C224.599 475.906 225.277 475.996 224.399 482.672ZM197.101 505.491C190.82 507.718 184.899 509.794 183.944 510.103C182.989 510.413 182.207 511.289 182.207 512.05C182.207 513.816 181.805 513.882 189.784 510.792C193.535 509.338 199.932 507.158 204 505.947C208.067 504.735 211.567 503.223 211.778 502.587C212.434 500.604 208.922 501.299 197.101 505.491ZM210.406 505.256C201.262 511.929 194.021 522.292 190.758 533.374C188.809 539.989 188.795 540.444 190.536 540.444C191.348 540.444 192.193 538.901 192.59 536.693C194.39 526.692 202.117 514.869 211.217 508.192C214.375 505.875 216.96 503.63 216.96 503.204C216.96 501.634 214.175 502.506 210.406 505.256Z" fill="#FF1940"/>
</svg>
