<svg width="401" height="357" viewBox="0 0 401 357" fill="none" xmlns="http://www.w3.org/2000/svg">
<path d="M207.216 59.5292C203.194 59.5292 202.107 56.4565 205.071 53.4695C208.032 50.4799 211.078 51.576 211.078 55.6331C211.078 57.7759 209.34 59.5292 207.216 59.5292Z" fill="#FF1940"/>
<path d="M33.442 25.6783L34.2222 11.9746C35.2006 -5.19395 39.8789 -3.39914 39.8789 14.1435V26.977H54.1921C63.0776 26.977 67.9028 27.9614 66.914 29.5744C66.0386 31.003 59.5992 32.1718 52.6009 32.1718H39.8789V45.0053C39.8789 52.065 38.7203 58.561 37.3042 59.4441C35.7052 60.4415 34.7294 55.574 34.7294 46.6105V32.1718H22.0074C4.61736 32.1718 2.83821 27.4523 19.8575 26.4653L33.442 25.6783Z" fill="#FF1940"/>
<path d="M154.799 202.209C148.764 198.952 147.649 191.793 152.425 186.975C157.201 182.157 164.297 183.282 167.526 189.37C169.931 193.9 169.545 195.796 165.356 200.019C161.169 204.245 159.289 204.635 154.799 202.209Z" fill="#FF1940"/>
<path d="M7.52073 199.702C1.21511 199.702 -1.71241 193.772 1.02972 186.564C2.92476 181.58 11.4421 181.796 15.6699 186.933C20.2427 192.492 15.6416 199.702 7.52073 199.702Z" fill="#FF1940"/>
<path d="M365.794 184.368C374.986 183.602 375.547 183.039 376.301 173.818C376.741 168.462 378.119 164.078 379.365 164.078C380.611 164.078 381.989 168.462 382.429 173.818C383.184 183.039 383.745 183.602 392.937 184.368C404.843 185.361 403.079 190.051 390.8 190.051C382.391 190.051 381.94 190.514 381.94 199.142C381.94 204.142 380.781 208.233 379.365 208.233C377.949 208.233 376.79 204.142 376.79 199.142C376.79 190.514 376.34 190.051 367.931 190.051C355.652 190.051 353.888 185.361 365.794 184.368Z" fill="#FF1940"/>
<path d="M103.913 323.868L104.701 311.466C105.679 296.035 110.35 297.825 110.35 313.632V325.167H123.072C140.462 325.167 142.241 329.887 125.222 330.874L111.637 331.66L110.904 342.05C109.691 359.237 106.823 361.237 105.319 345.946L103.913 331.66L89.7519 330.242C74.5942 328.725 76.5768 325.832 93.614 324.609L103.913 323.868Z" fill="#FF1940"/>
<path d="M264.459 160.18C259.909 160.18 257.002 155.905 259.157 152.388C261.956 147.817 268.169 149.609 268.169 154.986C268.169 157.843 266.5 160.18 264.459 160.18Z" fill="#FF1940"/>
</svg>
