<svg width="370" height="436" viewBox="0 0 370 436" fill="none" xmlns="http://www.w3.org/2000/svg">
<path d="M240.469 19.8081C232.991 19.8081 229.519 12.7965 232.771 4.27384C235.019 -1.61984 245.12 -1.36482 250.134 4.71006C255.557 11.2825 250.1 19.8081 240.469 19.8081Z" fill="#FF1940"/>
<path d="M52.7427 53.9206C52.7427 59.3444 46.1685 58.4015 44.2814 52.7074C43.6157 50.6988 45.2493 49.0589 47.9089 49.0589C50.5685 49.0589 52.7427 51.2456 52.7427 53.9206Z" fill="#FF1940"/>
<path d="M328.252 160.519C339.153 159.613 339.818 158.946 340.713 148.043C341.235 141.71 342.869 136.526 344.347 136.526C345.825 136.526 347.458 141.71 347.98 148.043C348.875 158.946 349.541 159.613 360.442 160.519C374.561 161.692 372.47 167.238 357.907 167.238C347.935 167.238 347.4 167.785 347.4 177.988C347.4 183.9 346.026 188.737 344.347 188.737C342.667 188.737 341.293 183.9 341.293 177.988C341.293 167.785 340.759 167.238 330.786 167.238C316.224 167.238 314.132 161.692 328.252 160.519Z" fill="#FF1940"/>
<path d="M28.9399 221.505L29.8743 206.84C31.0346 188.594 36.5737 190.71 36.5737 209.401V223.041H51.6611C72.2845 223.041 74.3945 228.621 54.2107 229.788L38.1004 230.719L37.2302 243.003C35.792 263.326 32.3903 265.691 30.6071 247.61L28.9399 230.719L12.1455 229.042C-5.83051 227.248 -3.47929 223.827 16.7258 222.38L28.9399 221.505Z" fill="#FF1940"/>
<path d="M191.272 203.625C185.877 203.625 182.429 198.57 184.985 194.412C188.304 189.007 195.672 191.126 195.672 197.483C195.672 200.861 193.694 203.625 191.272 203.625Z" fill="#FF1940"/>
<path d="M269.905 436C263.276 436 256.766 421.47 260.363 414.707C264.091 407.705 275.478 406.252 281.237 412.044C289.649 420.506 282.321 436 269.905 436Z" fill="#FF1940"/>
</svg>
