<svg width="275" height="306" viewBox="0 0 275 306" fill="none" xmlns="http://www.w3.org/2000/svg">
<path d="M129.31 17.0261C122.883 17.0261 119.9 10.9992 122.694 3.67358C124.626 -1.39233 133.306 -1.17313 137.615 4.04854C142.275 9.69786 137.586 17.0261 129.31 17.0261Z" fill="#FF1940"/>
<path d="M79.7007 11.9655C79.7007 16.6275 74.051 15.817 72.4293 10.9227C71.8573 9.1962 73.2611 7.78655 75.5467 7.78655C77.8323 7.78655 79.7007 9.66615 79.7007 11.9655Z" fill="#FF1940"/>
<path d="M239.123 94.9963C248.491 94.2175 249.063 93.6447 249.832 84.2731C250.28 78.8297 251.684 74.3736 252.954 74.3736C254.224 74.3736 255.628 78.8297 256.077 84.2731C256.846 93.6447 257.418 94.2175 266.786 94.9963C278.92 96.0047 277.122 100.772 264.608 100.772C256.038 100.772 255.578 101.242 255.578 110.012C255.578 115.094 254.398 119.251 252.954 119.251C251.511 119.251 250.33 115.094 250.33 110.012C250.33 101.242 249.871 100.772 241.301 100.772C228.786 100.772 226.989 96.0047 239.123 94.9963Z" fill="#FF1940"/>
<path d="M24.8702 173.204L25.6732 160.598C26.6703 144.915 31.4305 146.734 31.4305 162.8V174.524H44.3962C62.1195 174.524 63.9327 179.32 46.5874 180.323L32.7426 181.123L31.9947 191.683C30.7587 209.151 27.8354 211.183 26.3029 195.643L24.8702 181.123L10.4376 179.682C-5.0106 178.14 -2.99002 175.199 14.3737 173.956L24.8702 173.204Z" fill="#FF1940"/>
<path d="M147.187 132.049C142.55 132.049 139.588 127.704 141.784 124.129C144.637 119.483 150.968 121.305 150.968 126.769C150.968 129.673 149.268 132.049 147.187 132.049Z" fill="#FF1940"/>
<path d="M137.419 306C131.722 306 126.127 293.511 129.218 287.698C132.422 281.679 142.208 280.43 147.157 285.409C154.386 292.682 148.088 306 137.419 306Z" fill="#FF1940"/>
</svg>
