<svg width="330" height="274" viewBox="0 0 330 274" fill="none" xmlns="http://www.w3.org/2000/svg">
<path d="M50.8133 22.9605C50.8133 28.4835 44.1369 27.5234 42.2206 21.7252C41.5445 19.6799 43.2035 18.0099 45.9045 18.0099C48.6054 18.0099 50.8133 20.2397 50.8133 22.9605Z" fill="#FF1940"/>
<path d="M135.799 274C130.955 274 126.974 264.58 130.543 260.984C134.11 257.384 144.051 261.075 145.007 265.865C146.632 274 138.357 274 135.799 274Z" fill="#FF1940"/>
<path d="M30.6571 135.286L31.5967 118.786C32.7751 98.1145 38.4095 100.276 38.4095 121.398V136.85H55.6477C66.3491 136.85 72.1603 138.035 70.9695 139.978C69.9152 141.698 62.1598 143.105 53.7314 143.105H38.4095V158.557C38.4095 167.057 37.0141 174.879 35.3085 175.942C33.3828 177.143 32.2076 171.283 32.2076 160.49V143.105H16.8857C-4.05822 143.105 -6.20095 137.422 14.2964 136.234L30.6571 135.286Z" fill="#FF1940"/>
<path d="M323.921 118.786C322.216 117.066 321.834 114.008 323.071 111.987C324.572 109.539 326.355 109.357 328.424 111.443C330.129 113.163 330.511 116.222 329.273 118.242C327.772 120.691 325.989 120.872 323.921 118.786Z" fill="#FF1940"/>
<path d="M232.757 193.76C240.497 192.002 243.115 189.444 244.721 182.07C248.132 171.765 246.68 157.121 252.259 186.36C252.287 189.522 256.111 192.305 262.384 193.725L272.462 196.005L262.626 198.832C255.016 201.018 252.259 203.958 250.461 211.795L248.132 221.934L245.112 211.739C242.873 204.189 239.595 200.828 232.469 198.776L222.847 196.005L232.757 193.76Z" fill="#FF1940"/>
<path d="M184.006 7.50083C182.806 9.60536 179.963 10.7891 177.689 10.1339C174.931 9.33863 172.963 6.46053 174.419 3.90831C175.62 1.80378 178.103 -0.543314 180.377 0.111876C183.135 0.907161 185.463 4.94861 184.006 7.50083Z" fill="#FF1940"/>
</svg>
