<svg width="44" height="44" viewBox="0 0 44 44" fill="none" xmlns="http://www.w3.org/2000/svg">
<path fill-rule="evenodd" clip-rule="evenodd" d="M37.5891 6.39507C35.5595 4.3619 33.1448 2.74974 30.4848 1.65201C27.8248 0.554276 24.9723 -0.0072128 22.0927 7.1244e-05C10.0177 7.1244e-05 0.187909 9.7808 0.183028 21.8033C0.183028 25.6457 1.1909 29.3957 3.10659 32.7037L0 44L11.6137 40.9664C14.8262 42.7069 18.4253 43.6195 22.0829 43.6211H22.0927C34.1652 43.6211 43.995 33.8404 43.9999 21.8179C44.0082 18.9531 43.4459 16.1151 42.3455 13.4679C41.2452 10.8206 39.6285 8.41673 37.5891 6.39507ZM29.5721 25.002C30.152 25.2132 33.2542 26.7395 33.8876 27.0577C34.0099 27.1191 34.1246 27.1747 34.2311 27.2263C34.6709 27.4396 34.9711 27.5851 35.0981 27.7982C35.2557 28.0629 35.2557 29.3273 34.7293 30.8028C34.2029 32.2784 31.6806 33.6244 30.4673 33.8046C29.3778 33.9651 28.0013 34.0355 26.4896 33.554C25.5747 33.2611 24.398 32.8725 22.8891 32.222C16.9636 29.6615 12.9598 23.9143 12.21 22.838C12.1583 22.7638 12.1221 22.7118 12.1018 22.6845L12.0935 22.6735C11.7491 22.2123 9.52318 19.2318 9.52318 16.1488C9.52318 13.2397 10.9504 11.7164 11.609 11.0136C11.6542 10.9653 11.6958 10.9209 11.733 10.8802C11.9446 10.6397 12.2036 10.4456 12.4938 10.3099C12.784 10.1742 13.099 10.1 13.4192 10.0918C13.8219 10.0903 14.2246 10.0979 14.6269 10.1143C14.6713 10.1162 14.7174 10.1158 14.765 10.1154C15.1342 10.112 15.5944 10.1078 16.0457 11.1928C16.2222 11.6168 16.4817 12.2481 16.7545 12.9121C17.2954 14.2282 17.8889 15.6726 17.9937 15.8841C18.1542 16.1995 18.2583 16.5684 18.0472 16.9908C18.0152 17.0548 17.9856 17.1152 17.9574 17.1728C17.7996 17.4951 17.6841 17.731 17.4166 18.0439C17.3115 18.1669 17.203 18.2995 17.0945 18.4322C16.8774 18.6975 16.6603 18.9629 16.4708 19.1506C16.1527 19.466 15.8233 19.8067 16.1921 20.4403C16.5608 21.0738 17.8276 23.1407 19.7053 24.8162C21.7245 26.6168 23.4795 27.3779 24.3677 27.7631C24.5407 27.8381 24.6809 27.8989 24.7837 27.9503C25.4142 28.2657 25.783 28.215 26.1518 27.7926C26.5205 27.3702 27.731 25.9482 28.1533 25.3174C28.5756 24.6867 28.995 24.7908 29.5721 25.002Z" fill="#F3F3F3"/>
</svg>
