<svg width="74" height="76" viewBox="0 0 74 76" fill="none" xmlns="http://www.w3.org/2000/svg">
<path d="M39.0737 1.50837C38.432 -0.502789 35.568 -0.502789 34.9263 1.50837L30.4878 15.419C29.5996 18.2025 26.2466 19.3287 23.8406 17.6516L14.8946 11.4159C13.0174 10.1076 10.6431 12.2016 11.7277 14.2086L14.4588 19.2573C16.0167 22.1374 13.9168 25.6269 10.6258 25.6269H2.1804C0.0854435 25.6269 -0.799494 28.2793 0.880082 29.5226L12.2169 37.91C14.5411 39.6296 14.5559 43.0835 12.2465 44.8226L3.89078 51.1149C2.08266 52.477 3.31711 55.3352 5.55655 54.971L11.55 53.9965C14.7527 53.4757 17.3815 56.4957 16.4008 59.5692L13.4626 68.7779C12.8241 70.7785 15.1411 72.4181 16.8355 71.1648L28.4697 62.5575C30.8129 60.8238 34.176 61.8315 35.1637 64.5632L38.7816 74.5686C39.5539 76.7043 42.6942 76.3655 42.9874 74.1153L43.6298 69.1798C44.0564 65.9025 47.8763 64.2932 50.5442 66.2669L57.1645 71.1648C58.8589 72.4181 61.1759 70.7785 60.5374 68.7779L56.1673 55.0828C55.2834 52.3127 57.3471 49.4824 60.2719 49.4535L71.0675 49.3465C73.3515 49.3238 74.0612 46.2662 72.0183 45.2514L66.2793 42.4008C63.3801 40.9608 63.0265 36.99 65.6262 35.0667L73.1199 29.5226C74.7995 28.2793 73.9146 25.6269 71.8196 25.6269H57.6563C54.7606 25.6269 52.6727 22.8694 53.4755 20.1053L56.3656 10.1541C56.9945 7.98829 54.2834 6.43203 52.709 8.05425L49.0911 11.7815C46.8021 14.1398 42.8074 13.21 41.8109 10.087L39.0737 1.50837Z" fill="#F3F3F3"/>
</svg>
